<svg width="260" height="260" viewBox="0 0 260 260" fill="none" xmlns="http://www.w3.org/2000/svg">
<path d="M130 207.188C123.281 207.188 117.812 212.656 117.812 219.375C117.812 226.094 123.281 231.562 130 231.562C136.719 231.562 142.188 226.094 142.188 219.375C142.188 212.656 136.719 207.188 130 207.188ZM130 223.438C127.757 223.438 125.938 221.613 125.938 219.375C125.938 217.137 127.757 215.312 130 215.312C132.243 215.312 134.062 217.137 134.062 219.375C134.062 221.613 132.243 223.438 130 223.438Z" fill="#007AC9"/>
<path d="M113.75 101.562C115.994 101.562 117.812 99.7437 117.812 97.5C117.812 95.2563 115.994 93.4375 113.75 93.4375C111.506 93.4375 109.688 95.2563 109.688 97.5C109.688 99.7437 111.506 101.562 113.75 101.562Z" fill="#007AC9"/>
<path d="M146.25 101.562C148.494 101.562 150.312 99.7437 150.312 97.5C150.312 95.2563 148.494 93.4375 146.25 93.4375C144.006 93.4375 142.188 95.2563 142.188 97.5C142.188 99.7437 144.006 101.562 146.25 101.562Z" fill="#007AC9"/>
<path d="M117.812 125.938V134.062H134.062C143.024 134.062 150.312 126.774 150.312 117.812H142.188C142.188 122.293 138.543 125.938 134.062 125.938H117.812Z" fill="#007AC9"/>
<path d="M132.872 82.4403C128.399 77.9675 125.938 72.02 125.938 65.6947V60.9375H117.812V65.6947C117.812 74.1894 121.119 82.1763 127.128 88.1847L132.872 82.4403Z" fill="#007AC9"/>
<path d="M239.688 101.562H215.312C210.832 101.562 207.188 97.9184 207.188 93.4375V85.3125H235.625C246.825 85.3125 255.938 76.2003 255.938 65C255.938 53.7997 246.825 44.6875 235.625 44.6875C234.142 44.6875 232.704 44.8663 231.311 45.1709C229.543 31.1756 217.587 20.3125 203.125 20.3125C199.172 20.3125 195.382 21.2306 191.884 22.7581C186.587 11.5619 175.126 4.0625 162.5 4.0625C144.58 4.0625 130 18.6428 130 36.5625C130 37.8544 130.122 39.1422 130.268 40.3162L130 40.4056L123.435 38.2159C120.14 37.1191 116.712 36.5625 113.242 36.5625C98.3044 36.5625 85.5766 46.6741 82.0097 60.9375H60.9375V44.6875H36.5625V52.8125H52.8125V69.0625H74.6809C72.8162 71.5122 71.3944 74.2544 70.4438 77.1875H44.6875V85.3125H69.0828C69.0828 85.4222 69.0625 85.5319 69.0625 85.6416C69.0625 88.2862 69.5094 90.9066 70.2609 93.4375H52.8125V109.688H36.5625V117.812H60.9375V101.562H74.2056C74.3316 101.737 74.4209 101.94 74.5509 102.111L77.5938 106.165C77.3419 107.303 77.1875 108.477 77.1875 109.688C77.1875 118.649 84.4756 125.938 93.4375 125.938H93.7625C95.0666 135.001 100.632 142.703 108.388 146.9L106.45 154.651L84.9184 156.609C70.8013 157.893 58.5975 166.225 52.26 178.9L35.7094 212.006C33.605 216.202 32.5 220.898 32.5 225.583C32.5 242.32 46.1175 255.938 62.855 255.938H101.562C107.551 255.938 112.734 252.647 115.554 247.812H144.45C147.27 252.647 152.453 255.938 158.442 255.938H197.149C213.882 255.938 227.5 242.32 227.5 225.583C227.5 220.898 226.395 216.202 224.295 212.006L207.744 178.9C201.407 166.225 189.203 157.893 175.086 156.609L153.554 154.651L151.612 146.9C159.368 142.703 164.933 135.001 166.237 125.938H166.562C175.524 125.938 182.812 118.649 182.812 109.688C182.812 108.477 182.658 107.303 182.402 106.165L185.445 102.107C188.992 97.3903 190.938 91.5403 190.938 85.6416C190.938 85.5319 190.917 85.4222 190.917 85.3125H199.062V93.4375C199.062 102.399 206.351 109.688 215.312 109.688H239.688C244.168 109.688 247.812 113.332 247.812 117.812C247.812 122.293 244.168 125.938 239.688 125.938H215.312V134.062H239.688C248.649 134.062 255.938 126.774 255.938 117.812C255.938 108.851 248.649 101.562 239.688 101.562ZM162.5 12.1875C172.291 12.1875 181.11 18.2203 184.888 27.0888C181.736 29.7375 179.124 33.02 177.352 36.8306C176.479 36.6884 175.598 36.5625 174.688 36.5625C170.426 36.5625 166.372 38.2647 163.373 41.1653C158.503 38.2403 152.815 36.5625 146.758 36.5625C143.853 36.5625 141.001 37.0419 138.21 37.8097C138.182 37.3953 138.125 36.9281 138.125 36.5625C138.125 23.1197 149.057 12.1875 162.5 12.1875ZM85.3125 109.688C85.3125 105.207 88.9566 101.562 93.4375 101.562V117.812C88.9566 117.812 85.3125 114.168 85.3125 109.688ZM101.562 247.812H93.4375V231.562H101.562C106.043 231.562 109.688 235.207 109.688 239.688C109.688 244.168 106.043 247.812 101.562 247.812ZM142.188 239.688H117.812C117.812 230.726 110.524 223.438 101.562 223.438V199.062H158.438V223.438C149.476 223.438 142.188 230.726 142.188 239.688ZM150.312 239.688C150.312 235.207 153.957 231.562 158.438 231.562H166.562V247.812H158.438C153.957 247.812 150.312 244.168 150.312 239.688ZM200.476 182.536L217.027 215.638C218.562 218.713 219.375 222.154 219.375 225.583C219.375 237.839 209.402 247.812 197.145 247.812H174.688V231.562H211.25V223.438H190.938V199.062H182.812V223.438H166.562V199.062C166.562 194.582 162.918 190.938 158.438 190.938H101.562C97.0816 190.938 93.4375 194.582 93.4375 199.062V223.438H77.1875V199.062H69.0625V223.438H48.75V231.562H85.3125V247.812H62.855C50.5984 247.812 40.625 237.839 40.625 225.583C40.625 222.154 41.4375 218.713 42.9731 215.642L59.5238 182.536C64.5897 172.396 74.3559 165.73 85.6537 164.702L107.648 162.703L107.673 162.74C112.661 170.219 121.01 174.688 130 174.688C138.99 174.688 147.339 170.219 152.327 162.74L152.352 162.703L174.346 164.702C185.64 165.726 195.41 172.396 200.476 182.536ZM145.937 157.678L145.568 158.23C142.09 163.447 136.268 166.562 130 166.562C123.732 166.562 117.91 163.447 114.432 158.23L114.063 157.678L116.058 149.707C117.934 150.101 119.88 150.312 121.875 150.312H138.125C140.12 150.312 142.066 150.101 143.942 149.711L145.937 157.678ZM166.562 117.812V101.562C171.043 101.562 174.688 105.207 174.688 109.688C174.688 114.168 171.043 117.812 166.562 117.812ZM178.949 97.2359L178.141 98.3125C175.191 95.3103 171.096 93.4375 166.562 93.4375H166.457C165.929 86.5963 161.419 80.6731 154.826 78.4713C147.266 75.9525 142.188 68.9041 142.188 60.9375H134.062C134.062 72.4059 141.375 82.55 152.258 86.1819C155.955 87.4128 158.438 90.8619 158.438 94.7578V121.875C158.438 133.075 149.325 142.188 138.125 142.188H121.875C110.675 142.188 101.562 133.075 101.562 121.875V85.3125C101.562 80.8316 105.207 77.1875 109.688 77.1875V69.0625C100.726 69.0625 93.4375 76.3506 93.4375 85.3125V93.4375C88.9038 93.4375 84.8088 95.3103 81.8594 98.3125L81.0509 97.2359C78.5606 93.9128 77.1875 89.7934 77.1875 85.6416C77.1875 79.1659 80.405 73.1534 85.7919 69.5622L89.0297 67.405L89.4563 64.8375C91.4062 53.1619 101.408 44.6875 113.242 44.6875C115.838 44.6875 118.406 45.1059 120.863 45.9266L130 48.9694L139.137 45.9225C141.594 45.1059 144.162 44.6875 146.758 44.6875C158.592 44.6875 168.594 53.1619 170.54 64.8334L170.966 67.4009L174.204 69.5581C179.595 73.1534 182.812 79.1659 182.812 85.6416C182.812 89.7934 181.439 93.9128 178.949 97.2359ZM178.713 62.8022L178.388 62.5869C177.153 56.2656 174.119 50.7 169.894 46.345C171.275 45.3213 172.928 44.6875 174.688 44.6875C179.168 44.6875 182.812 48.3316 182.812 52.8125H190.938C190.938 47.6694 188.488 43.1275 184.746 40.1497C188.049 33.1378 195.219 28.4375 203.125 28.4375C214.325 28.4375 223.438 37.5497 223.438 48.75C223.438 48.7866 223.433 48.8231 223.433 48.8556C218.534 52.5687 215.312 58.3944 215.312 65V69.0625H223.438V65C223.438 58.2806 228.906 52.8125 235.625 52.8125C242.344 52.8125 247.812 58.2806 247.812 65C247.812 71.7194 242.344 77.1875 235.625 77.1875H207.188H203.125C200.883 77.1875 199.062 75.3634 199.062 73.125C199.062 70.8866 200.883 69.0625 203.125 69.0625H207.188V60.9375H203.125C196.406 60.9375 190.938 66.4056 190.938 73.125C190.938 74.5509 191.202 75.9119 191.652 77.1875H189.556C187.675 71.3863 183.938 66.2837 178.713 62.8022Z" fill="#007AC9"/>
<path d="M207.188 125.938H199.062V134.062H207.188V125.938Z" fill="#007AC9"/>
<path d="M190.938 125.938H182.812V134.062H190.938V125.938Z" fill="#007AC9"/>
<path d="M12.1875 81.25C12.1875 87.9694 17.6556 93.4375 24.375 93.4375C31.0944 93.4375 36.5625 87.9694 36.5625 81.25C36.5625 74.5306 31.0944 69.0625 24.375 69.0625C17.6556 69.0625 12.1875 74.5306 12.1875 81.25ZM28.4375 81.25C28.4375 83.4884 26.6175 85.3125 24.375 85.3125C22.1325 85.3125 20.3125 83.4884 20.3125 81.25C20.3125 79.0116 22.1325 77.1875 24.375 77.1875C26.6175 77.1875 28.4375 79.0116 28.4375 81.25Z" fill="#007AC9"/>
<path d="M16.25 60.9375C22.9694 60.9375 28.4375 55.4694 28.4375 48.75C28.4375 42.0306 22.9694 36.5625 16.25 36.5625C9.53062 36.5625 4.0625 42.0306 4.0625 48.75C4.0625 55.4694 9.53062 60.9375 16.25 60.9375ZM16.25 44.6875C18.4925 44.6875 20.3125 46.5116 20.3125 48.75C20.3125 50.9884 18.4925 52.8125 16.25 52.8125C14.0075 52.8125 12.1875 50.9884 12.1875 48.75C12.1875 46.5116 14.0075 44.6875 16.25 44.6875Z" fill="#007AC9"/>
<path d="M16.25 101.562C9.53062 101.562 4.0625 107.031 4.0625 113.75C4.0625 120.469 9.53062 125.938 16.25 125.938C22.9694 125.938 28.4375 120.469 28.4375 113.75C28.4375 107.031 22.9694 101.562 16.25 101.562ZM16.25 117.812C14.0075 117.812 12.1875 115.988 12.1875 113.75C12.1875 111.512 14.0075 109.688 16.25 109.688C18.4925 109.688 20.3125 111.512 20.3125 113.75C20.3125 115.988 18.4925 117.812 16.25 117.812Z" fill="#007AC9"/>
</svg>
