<svg width="260" height="260" viewBox="0 0 260 260" fill="none" xmlns="http://www.w3.org/2000/svg">
<path d="M121.875 69.0625C124.119 69.0625 125.938 67.2437 125.938 65C125.938 62.7563 124.119 60.9375 121.875 60.9375C119.631 60.9375 117.812 62.7563 117.812 65C117.812 67.2437 119.631 69.0625 121.875 69.0625Z" fill="#CA4000"/>
<path d="M154.375 69.0625C156.619 69.0625 158.438 67.2437 158.438 65C158.438 62.7563 156.619 60.9375 154.375 60.9375C152.131 60.9375 150.312 62.7563 150.312 65C150.312 67.2437 152.131 69.0625 154.375 69.0625Z" fill="#CA4000"/>
<path d="M142.188 93.4375H125.938V101.562H142.188C151.149 101.562 158.438 94.2744 158.438 85.3125H150.312C150.312 89.7934 146.668 93.4375 142.188 93.4375Z" fill="#CA4000"/>
<path d="M243.75 125.938H239.688V113.75C239.688 110.988 238.729 108.465 237.173 106.417C241.142 103.452 243.75 98.7634 243.75 93.4375V89.375C243.75 84.9591 245.846 81.8391 248.499 77.8903C251.81 72.9584 255.938 66.82 255.938 56.875C255.938 41.1938 243.177 28.4375 227.5 28.4375C211.823 28.4375 199.062 41.1938 199.062 56.875C199.062 66.82 203.19 72.9584 206.501 77.8903C209.154 81.8391 211.25 84.9591 211.25 89.375V93.4375C211.25 98.7634 213.858 103.452 217.827 106.417C216.271 108.465 215.312 110.988 215.312 113.75V126.685C210.596 128.367 207.188 132.836 207.188 138.125V147.643C207.188 153.067 209.304 158.169 213.139 162.004L214.939 163.808L212.42 175.561C205.319 162.155 195.15 150.812 182.638 142.309C188.012 133.888 190.938 123.967 190.938 113.953V48.75C190.938 24.1109 170.889 4.0625 146.25 4.0625H130C112.677 4.0625 97.6584 13.9913 90.2444 28.4375H56.875V35.1609C56.875 37.9031 55.1159 40.3975 52.2478 41.5797C49.5381 42.7009 46.5278 42.1809 44.5941 40.2431L39.8409 35.4981L11.115 64.22L15.8681 68.9731C17.8019 70.9069 18.3219 73.9091 17.1397 76.7731C16.0225 79.4909 13.5281 81.25 10.7859 81.25H4.0625V121.875H10.7859C13.5281 121.875 16.0225 123.634 17.2047 126.498C18.3219 129.216 17.7978 132.218 15.8681 134.152L11.115 138.905L39.8409 167.627L44.5941 162.878C46.5319 160.94 49.5422 160.424 52.3941 161.606C55.1159 162.727 56.875 165.222 56.875 167.964V174.688H64.2769C56.9116 188.171 52.8125 203.487 52.8125 219.375C52.8125 235.056 65.5728 247.812 81.25 247.812H93.2669C94.9609 252.582 99.4784 255.938 104.723 255.938H171.523C177.698 255.938 182.902 251.31 183.625 245.176L185.364 230.401L197.048 240.415C202.613 245.188 209.723 247.817 217.059 247.817C234.016 247.812 247.812 234.016 247.812 217.059V164.182L249.986 162.004C253.821 158.169 255.938 153.067 255.938 147.643V138.125C255.938 131.406 250.469 125.938 243.75 125.938ZM219.375 93.4375H235.625C235.625 97.9184 231.981 101.562 227.5 101.562C223.019 101.562 219.375 97.9184 219.375 93.4375ZM223.438 56.875C223.438 54.6366 225.258 52.8125 227.5 52.8125C229.742 52.8125 231.562 54.6366 231.562 56.875C231.562 59.1134 229.742 60.9375 227.5 60.9375C225.258 60.9375 223.438 59.1134 223.438 56.875ZM207.188 56.875C207.188 45.6747 216.3 36.5625 227.5 36.5625C238.7 36.5625 247.812 45.6747 247.812 56.875C247.812 64.3459 244.867 68.7253 241.755 73.3606C239.375 76.8991 236.962 80.5512 236.035 85.3125H231.562V68.315C236.279 66.6331 239.688 62.1644 239.688 56.875C239.688 50.1556 234.219 44.6875 227.5 44.6875C220.781 44.6875 215.312 50.1556 215.312 56.875C215.312 62.1644 218.721 66.6331 223.438 68.315V85.3125H218.965C218.042 80.5512 215.625 76.8991 213.245 73.3606C210.133 68.7253 207.188 64.3459 207.188 56.875ZM231.562 113.75V126.685C230.043 127.225 228.674 128.05 227.5 129.106C226.326 128.046 224.957 127.225 223.438 126.685V113.75C223.438 111.512 225.258 109.688 227.5 109.688C229.742 109.688 231.562 111.512 231.562 113.75ZM93.4375 48.75C93.4375 28.5919 109.838 12.1875 130 12.1875H146.25C166.412 12.1875 182.812 28.5919 182.812 48.75V113.953C182.812 122.46 180.314 130.877 175.732 138.019C173.708 136.886 171.681 135.757 169.561 134.765L167.911 133.993C164.271 132.295 161.704 128.915 161.046 124.954L159.295 114.457C169 104.577 174.688 91.1341 174.688 76.9356V63.4562C174.688 52.975 166.823 44.2853 156.398 43.2412L145.035 42.1078C138.779 41.4822 134.062 36.27 134.062 29.9813V20.3125H125.938V29.9813C125.938 32.2238 126.299 34.385 126.965 36.4081L114.745 40.9906C106.86 43.9481 101.562 51.5897 101.562 60.0112V76.9356C101.562 91.1341 107.25 104.577 116.959 114.461L115.208 124.963C114.55 128.923 111.983 132.299 108.339 134.002L106.698 134.769C104.573 135.761 102.505 136.833 100.482 137.971C95.9197 130.837 93.4375 122.44 93.4375 113.953V48.75ZM143.699 116.334C140.311 118.272 135.939 118.272 132.551 116.334C118.446 108.274 109.688 93.1816 109.688 76.9356V60.0112C109.688 54.9575 112.864 50.375 117.597 48.5997L131.089 43.5337C134.367 47.1941 138.966 49.6641 144.223 50.1922L155.586 51.3256C161.846 51.9553 166.562 57.1675 166.562 63.4562V76.9356C166.562 93.1816 157.804 108.274 143.699 116.334ZM117.812 137.048C120.624 134.132 122.541 130.402 123.224 126.295L124.174 120.583C125.576 121.574 127.01 122.525 128.517 123.386C131.438 125.056 134.765 125.938 138.125 125.938C141.485 125.938 144.812 125.056 147.729 123.386C149.236 122.525 150.674 121.574 152.072 120.583L153.022 126.291C153.705 130.402 155.622 134.132 158.433 137.048V146.25C158.433 148.488 156.613 150.312 154.371 150.312H121.871C119.628 150.312 117.808 148.488 117.808 146.25V137.048H117.812ZM86.3606 124.142C83.4641 125.316 80.3441 125.938 77.1875 125.938C63.7447 125.938 52.8125 115.005 52.8125 101.562C52.8125 88.1197 63.7447 77.1875 77.1875 77.1875C79.9947 77.1875 82.7206 77.6628 85.3125 78.585V113.957C85.3125 117.382 85.6944 120.794 86.3606 124.142ZM85.3125 70.1228C82.6759 69.4444 79.9662 69.0625 77.1875 69.0625C59.2678 69.0625 44.6875 83.6428 44.6875 101.562C44.6875 119.482 59.2678 134.062 77.1875 134.062C81.0834 134.062 84.9306 133.323 88.5503 131.974C89.4847 134.534 90.6059 137.02 91.9222 139.409C87.2463 141.237 82.3144 142.188 77.1875 142.188C54.7869 142.188 36.5625 123.963 36.5625 101.562C36.5625 79.1619 54.7869 60.9375 77.1875 60.9375C79.9337 60.9375 82.6394 61.3072 85.3125 61.8475V70.1228ZM64.9309 166.562C64.4028 161.082 60.8034 156.28 55.3597 154.038C50.0419 151.836 44.1188 152.697 39.8897 156.187L22.555 138.856C26.0406 134.623 26.8978 128.696 24.6553 123.264C22.4656 117.934 17.6678 114.343 12.1875 113.819V89.31C17.6678 88.7819 22.4697 85.1825 24.7122 79.7306C26.91 74.4169 26.0447 68.4978 22.5591 64.2687L39.8937 46.9381C44.1309 50.4237 50.0662 51.2891 55.4856 49.0344C60.8156 46.8406 64.4069 42.0428 64.9309 36.5625H87.0431C85.9422 40.4422 85.3125 44.5209 85.3125 48.75V53.5153C82.6353 53.0684 79.9216 52.8125 77.1875 52.8125C50.3059 52.8125 28.4375 74.6809 28.4375 101.562C28.4375 128.444 50.3059 150.312 77.1875 150.312C79.4788 150.312 81.7537 150.101 84.0166 149.78C78.4428 154.777 73.5394 160.432 69.3306 166.562H64.9309ZM182.76 183.008L177.048 231.562H99.1981L93.4862 183.016C93.4578 182.727 93.4375 182.431 93.4375 182.138C93.4375 178.031 96.7769 174.688 100.888 174.688H175.362C179.473 174.688 182.812 178.031 182.812 182.138C182.812 182.431 182.792 182.727 182.76 183.008ZM171.527 247.812H104.723C102.663 247.812 100.929 246.269 100.689 244.225L100.157 239.688H176.093L175.561 244.221C175.317 246.269 173.587 247.812 171.527 247.812ZM217.063 239.688C211.664 239.688 206.436 237.754 202.337 234.24L186.513 220.679L190.832 183.95C190.901 183.349 190.938 182.739 190.938 182.138C190.938 173.55 183.95 166.562 175.362 166.562H100.888C92.3 166.562 85.3125 173.55 85.3125 182.138C85.3125 182.739 85.3491 183.349 85.4181 183.958L89.1069 215.312H69.0625V223.438H90.0616L91.9709 239.688H81.25C70.0497 239.688 60.9375 230.575 60.9375 219.375C60.9375 186.566 80.0597 156.402 109.688 142.358V146.25C109.688 152.969 115.156 158.438 121.875 158.438H154.375C161.094 158.438 166.562 152.969 166.562 146.25V142.362C186.473 151.795 201.687 168.236 209.588 188.78L203.214 218.522L211.157 220.224L222.658 166.562H239.688V217.059C239.688 229.535 229.539 239.688 217.063 239.688ZM244.242 156.26L242.068 158.438H221.061L218.887 156.26C216.613 153.993 215.312 150.853 215.312 147.643V138.125C215.312 135.887 217.133 134.062 219.375 134.062C221.617 134.062 223.438 135.887 223.438 138.125C223.438 144.844 228.906 150.312 235.625 150.312H247.512C247.004 152.547 245.871 154.631 244.242 156.26ZM247.812 142.188H235.625C233.383 142.188 231.562 140.363 231.562 138.125C231.562 135.887 233.383 134.062 235.625 134.062H243.75C245.992 134.062 247.812 135.887 247.812 138.125V142.188Z" fill="#CA4000"/>
<path d="M231.562 4.0625H223.438V20.3125H231.562V4.0625Z" fill="#CA4000"/>
<path d="M210.937 6.55825L203.441 9.69287L209.701 24.6626L217.197 21.528L210.937 6.55825Z" fill="#CA4000"/>
<path d="M244.08 6.53861L237.699 21.5094L245.173 24.6952L251.554 9.72443L244.08 6.53861Z" fill="#CA4000"/>
</svg>
