<svg width="100" height="72" viewBox="0 0 100 72" fill="none" xmlns="http://www.w3.org/2000/svg">
<g clip-path="url(#clip0)">
<path d="M12.0238 52.5988H0.329257C0.244366 52.6002 0.16316 52.6337 0.102044 52.6926C0.040928 52.7516 0.00445742 52.8315 0 52.9163L0 71.2312C0 71.3185 0.0346895 71.4023 0.0964371 71.464C0.158185 71.5258 0.241933 71.5604 0.329257 71.5604H3.58067C3.62391 71.5604 3.66672 71.5519 3.70667 71.5354C3.74662 71.5188 3.78291 71.4946 3.81349 71.464C3.84406 71.4334 3.86832 71.3971 3.88486 71.3572C3.90141 71.3172 3.90993 71.2744 3.90993 71.2312V63.9875C3.91269 63.9448 3.93093 63.9045 3.96122 63.8742C3.99151 63.8439 4.0318 63.8257 4.07455 63.8229H11.0889C11.1762 63.8229 11.26 63.7882 11.3217 63.7265C11.3835 63.6647 11.4182 63.581 11.4182 63.4937V61.0007C11.4182 60.9134 11.3835 60.8296 11.3217 60.7679C11.26 60.7061 11.1762 60.6715 11.0889 60.6715H4.07455C4.0318 60.6687 3.99151 60.6505 3.96122 60.6202C3.93093 60.5899 3.91269 60.5496 3.90993 60.5068V55.9325C3.91269 55.8898 3.93093 55.8495 3.96122 55.8192C3.99151 55.7889 4.0318 55.7706 4.07455 55.7679H12.0238C12.1116 55.7679 12.196 55.7334 12.2587 55.6718C12.3214 55.6102 12.3574 55.5265 12.3589 55.4386V52.9163C12.353 52.831 12.3153 52.751 12.2532 52.6922C12.1911 52.6334 12.1092 52.6001 12.0238 52.5988Z" fill="#666666"/>
<path d="M27.7399 57.2143C26.9077 57.1771 26.0847 57.4007 25.3859 57.854C24.687 58.3073 24.1471 58.9675 23.8417 59.7425C23.828 59.7697 23.807 59.7926 23.781 59.8085C23.7551 59.8245 23.7252 59.833 23.6947 59.833C23.6643 59.833 23.6344 59.8245 23.6084 59.8085C23.5825 59.7926 23.5615 59.7697 23.5477 59.7425L22.3718 57.7199C22.329 57.6457 22.2673 57.5843 22.1929 57.542C22.1185 57.4996 22.0341 57.4778 21.9485 57.4788H20.3551C20.3119 57.4788 20.2691 57.4874 20.2291 57.5039C20.1892 57.5204 20.1529 57.5447 20.1223 57.5753C20.0917 57.6058 20.0675 57.6421 20.0509 57.6821C20.0344 57.722 20.0259 57.7649 20.0259 57.8081V71.2488C20.0259 71.2921 20.0344 71.3349 20.0509 71.3748C20.0675 71.4148 20.0917 71.4511 20.1223 71.4816C20.1529 71.5122 20.1892 71.5365 20.2291 71.553C20.2691 71.5696 20.3119 71.5781 20.3551 71.5781H23.4596C23.5028 71.5781 23.5456 71.5696 23.5856 71.553C23.6255 71.5365 23.6618 71.5122 23.6924 71.4816C23.7229 71.4511 23.7472 71.4148 23.7637 71.3748C23.7803 71.3349 23.7888 71.2921 23.7888 71.2488V63.6054C23.7888 61.0301 25.1176 60.2893 26.1759 60.2893C27.5282 60.2893 28.4278 61.0889 28.4278 63.5701V71.2606C28.4293 71.3484 28.4653 71.4322 28.528 71.4938C28.5907 71.5554 28.6751 71.5899 28.7629 71.5898H31.8674C31.9547 71.5898 32.0384 71.5552 32.1002 71.4934C32.1619 71.4317 32.1966 71.3479 32.1966 71.2606V62.4412C32.1966 59.4426 30.4327 57.2143 27.7399 57.2143Z" fill="#666666"/>
<path d="M40.9925 68.6912C40.7171 68.7215 40.4404 68.7372 40.1634 68.7382C39.96 68.7645 39.7534 68.7477 39.5569 68.6889C39.3604 68.6302 39.1784 68.5308 39.0228 68.3972C38.7889 68.0742 38.6803 67.6772 38.7171 67.2801V60.4069C38.7185 60.3637 38.7363 60.3226 38.7669 60.2921C38.7975 60.2615 38.8385 60.2437 38.8817 60.2422H40.7984C40.8864 60.2393 40.9699 60.2031 41.0322 60.1408C41.0944 60.0786 41.1306 59.9951 41.1336 59.9071V57.8081C41.132 57.7202 41.096 57.6365 41.0334 57.5749C40.9707 57.5133 40.8863 57.4788 40.7984 57.4788H38.8876C38.8423 57.4788 38.799 57.4609 38.767 57.4289C38.735 57.3969 38.7171 57.3535 38.7171 57.3083V53.3749C38.7177 53.3312 38.7068 53.2882 38.6854 53.2501C38.664 53.2121 38.6329 53.1804 38.5952 53.1582C38.5576 53.1361 38.5147 53.1244 38.471 53.1242C38.4274 53.1241 38.3845 53.1355 38.3466 53.1573L35.2011 54.98C35.1258 55.0235 35.0633 55.0861 35.0199 55.1614C34.9766 55.2368 34.9539 55.3223 34.9541 55.4092V57.3083C34.9542 57.3525 34.937 57.395 34.9063 57.4269C34.8756 57.4587 34.8337 57.4773 34.7895 57.4788H33.2255C33.1823 57.4788 33.1395 57.4873 33.0995 57.5039C33.0596 57.5204 33.0233 57.5447 32.9927 57.5753C32.9621 57.6058 32.9379 57.6421 32.9213 57.6821C32.9048 57.722 32.8963 57.7649 32.8963 57.8081V59.9071C32.8963 59.995 32.9308 60.0793 32.9923 60.142C33.0539 60.2047 33.1377 60.2407 33.2255 60.2422H34.7895C34.8327 60.2437 34.8737 60.2615 34.9043 60.2921C34.9348 60.3226 34.9527 60.3637 34.9541 60.4069V67.8387C35.0051 70.508 36.3515 71.8407 38.9934 71.8368C39.6596 71.8369 40.3233 71.754 40.9689 71.5898C41.0569 71.5644 41.1343 71.5111 41.1894 71.4379C41.2446 71.3648 41.2745 71.2757 41.2747 71.1841V68.9323C41.2747 68.8996 41.2681 68.8673 41.2553 68.8372C41.2424 68.8072 41.2236 68.7801 41.2 68.7575C41.1763 68.735 41.1483 68.7175 41.1177 68.7061C41.0871 68.6947 41.0545 68.6896 41.0219 68.6912H40.9925Z" fill="#666666"/>
<path d="M50.6115 57.3318C49.8295 57.2436 47.8246 57.3318 46.6722 59.7777C46.6511 59.8159 46.6157 59.8442 46.5738 59.8563C46.5319 59.8684 46.487 59.8634 46.4487 59.8424C46.4217 59.8272 46.3993 59.8048 46.3841 59.7777L45.1435 57.6964C45.0997 57.6218 45.0369 57.5601 44.9615 57.5178C44.8861 57.4754 44.8008 57.4538 44.7143 57.4553H43.2502C43.1629 57.4553 43.0792 57.49 43.0174 57.5517C42.9557 57.6135 42.921 57.6972 42.921 57.7846V71.2253C42.921 71.3126 42.9557 71.3964 43.0174 71.4581C43.0792 71.5199 43.1629 71.5546 43.2502 71.5546H46.3605C46.4479 71.5546 46.5316 71.5199 46.5934 71.4581C46.6551 71.3964 46.6898 71.3126 46.6898 71.2253V63.1703C46.6898 61.4064 48.4948 60.3128 50.5762 60.9066C50.6079 60.9165 50.6412 60.9199 50.6742 60.9166C50.7071 60.9133 50.7391 60.9034 50.7682 60.8875C50.7973 60.8716 50.8229 60.85 50.8434 60.824C50.864 60.798 50.8791 60.7681 50.8878 60.7361C50.8906 60.7146 50.8906 60.6929 50.8878 60.6714V57.6611C50.8877 57.5825 50.8599 57.5065 50.8094 57.4463C50.7589 57.3861 50.6888 57.3456 50.6115 57.3318Z" fill="#666666"/>
<path d="M63.2761 68.3208V62.206C63.3132 61.5161 63.1939 60.8267 62.9272 60.1894C62.6604 59.5521 62.2531 58.9832 61.7357 58.5254C60.5685 57.6032 59.1056 57.1371 57.62 57.2142C56.5559 57.1963 55.4994 57.3964 54.5155 57.8022C53.6675 58.1436 52.9279 58.7084 52.3754 59.4367C51.9466 60.0235 51.6881 60.7173 51.6287 61.4417C51.6271 61.4749 51.6321 61.5081 51.6433 61.5393C51.6546 61.5706 51.6719 61.5994 51.6943 61.624C51.7167 61.6485 51.7437 61.6684 51.7738 61.6826C51.8039 61.6967 51.8365 61.7047 51.8697 61.7062H55.08C55.1576 61.7085 55.2334 61.6823 55.293 61.6324C55.3526 61.5826 55.3919 61.5126 55.4034 61.4358C55.4448 61.0533 55.6323 60.7016 55.9266 60.4539C56.3555 60.1317 56.8845 59.9713 57.4201 60.0012C57.7117 59.9758 58.0053 60.0154 58.2798 60.1171C58.5542 60.2187 58.8028 60.3799 59.0076 60.5891C59.3566 61.0335 59.534 61.5887 59.5073 62.1531V62.7998C59.5045 62.8426 59.4863 62.8829 59.456 62.9132C59.4257 62.9435 59.3854 62.9617 59.3427 62.9645H57.7611C55.6679 62.9645 54.0667 63.3682 52.9575 64.1757C52.4468 64.5414 52.0302 65.0231 51.7419 65.5812C51.4537 66.1393 51.302 66.7578 51.2994 67.3859C51.2713 67.9918 51.3774 68.5963 51.6101 69.1564C51.8429 69.7165 52.1966 70.2181 52.6458 70.6256C53.6004 71.4535 54.8346 71.8866 56.0972 71.8368C56.7437 71.8311 57.3815 71.687 57.9677 71.4142C58.5539 71.1414 59.0749 70.7462 59.4956 70.2552C59.5185 70.2332 59.5491 70.221 59.5808 70.221C59.6126 70.221 59.6431 70.2332 59.6661 70.2552C59.69 70.272 59.7067 70.2972 59.7131 70.3257L59.9659 71.337C59.9833 71.4127 60.026 71.4801 60.087 71.5282C60.1479 71.5764 60.2234 71.6022 60.3011 71.6016H63.4525C63.4857 71.6032 63.5189 71.5982 63.5502 71.5869C63.5815 71.5757 63.6102 71.5583 63.6348 71.5359C63.6594 71.5135 63.6793 71.4865 63.6934 71.4564C63.7075 71.4263 63.7156 71.3937 63.7171 71.3605C63.7232 71.3275 63.7232 71.2936 63.7171 71.2606C63.4274 70.3074 63.2788 69.317 63.2761 68.3208ZM59.4956 66.4981C59.5188 66.8124 59.4799 67.1281 59.3811 67.4274C59.2822 67.7266 59.1254 68.0034 58.9196 68.242C58.7137 68.4806 58.4629 68.6764 58.1814 68.818C57.8999 68.9596 57.5932 69.0444 57.279 69.0675C57.1577 69.0793 57.0356 69.0793 56.9144 69.0675C55.8208 69.0675 55.0624 68.5324 55.0624 67.3448C55.0624 66.1571 55.9737 65.1634 58.0903 65.1634H59.3309C59.3741 65.1649 59.4152 65.1827 59.4457 65.2133C59.4763 65.2438 59.4941 65.2849 59.4956 65.3281V66.4981Z" fill="#666666"/>
<path d="M99.659 66.7039H96.7839C96.7009 66.705 96.6212 66.737 96.5604 66.7934C96.4996 66.8499 96.4619 66.927 96.4546 67.0097C96.3916 67.481 96.1597 67.9134 95.802 68.2267C95.3287 68.6278 94.7227 68.8375 94.1028 68.8147C93.7133 68.8412 93.3235 68.7676 92.9704 68.6009C92.6174 68.4342 92.313 68.1799 92.0861 67.8622C91.6392 67.2272 91.4217 66.1806 91.4217 64.7284V64.3344C91.4217 62.8998 91.6451 61.8631 92.092 61.2241C92.5069 60.7047 93.1099 60.3696 93.7702 60.2914C94.4304 60.2133 95.0949 60.3984 95.6197 60.8067L95.7843 60.9537C96.1607 61.3612 96.3903 61.8826 96.437 62.4353C96.4455 62.5175 96.4836 62.5939 96.5441 62.6501C96.6047 62.7063 96.6836 62.7387 96.7662 62.7411H99.6472C99.7361 62.7411 99.8214 62.7058 99.8842 62.6429C99.9471 62.5801 99.9824 62.4948 99.9824 62.4059C99.9493 61.0203 99.3703 59.7038 98.3714 58.743C97.2079 57.7049 95.6838 57.1645 94.1263 57.2378C93.2391 57.1919 92.3526 57.3426 91.5304 57.679C90.7081 58.0154 89.9703 58.5293 89.3697 59.1839C88.1569 60.6358 87.5374 62.4922 87.6352 64.3815V64.6284C87.6352 66.8862 88.2232 68.6501 89.3991 69.92C90.0081 70.5669 90.7506 71.0734 91.5751 71.4044C92.3995 71.7354 93.2861 71.8829 94.1733 71.8368C95.1904 71.8484 96.1965 71.625 97.1131 71.1842C97.972 70.7725 98.7004 70.1316 99.218 69.3321C99.6601 68.65 99.923 67.8674 99.9824 67.0567C99.9839 67.0134 99.977 66.9703 99.9619 66.9298C99.9467 66.8892 99.9238 66.852 99.8943 66.8204C99.8648 66.7887 99.8294 66.7631 99.79 66.7452C99.7506 66.7272 99.7081 66.7172 99.6649 66.7157L99.659 66.7039Z" fill="#666666"/>
<path d="M17.3154 57.4788H14.1933C14.0115 57.4788 13.8641 57.6262 13.8641 57.8081V71.2547C13.8641 71.4365 14.0115 71.5839 14.1933 71.5839H17.3154C17.4972 71.5839 17.6446 71.4365 17.6446 71.2547V57.8081C17.6446 57.6262 17.4972 57.4788 17.3154 57.4788Z" fill="#666666"/>
<path d="M15.7514 56.2618C16.9171 56.2618 17.8622 55.3167 17.8622 54.151C17.8622 52.9852 16.9171 52.0402 15.7514 52.0402C14.5856 52.0402 13.6406 52.9852 13.6406 54.151C13.6406 55.3167 14.5856 56.2618 15.7514 56.2618Z" fill="#666666"/>
<path d="M85.7832 57.4788H77.6811C77.6379 57.4774 77.5969 57.4595 77.5663 57.429C77.5357 57.3984 77.5179 57.3574 77.5165 57.3142V56.3441C77.5165 55.0153 78.224 54.3509 79.639 54.3509C79.9419 54.3468 80.2446 54.3665 80.5445 54.4097C80.6098 54.4181 80.6759 54.4007 80.7286 54.3612C80.7813 54.3217 80.8165 54.2631 80.8267 54.198V51.8109C80.8257 51.735 80.799 51.6617 80.7509 51.6029C80.7029 51.5442 80.6363 51.5035 80.5621 51.4875C80.0196 51.365 79.466 51.298 78.9099 51.2876C77.5155 51.2019 76.1439 51.6711 75.0941 52.5929C74.6258 53.0805 74.2634 53.6598 74.0296 54.2942C73.7959 54.9286 73.6959 55.6045 73.7359 56.2794V57.3083C73.7359 57.3525 73.7188 57.395 73.688 57.4268C73.6573 57.4587 73.6154 57.4773 73.5713 57.4788H69.4555C69.4113 57.4773 69.3695 57.4587 69.3388 57.4268C69.308 57.395 69.2909 57.3525 69.2909 57.3083V56.3441C69.2909 55.0153 70.0004 54.3509 71.4193 54.3509C71.7222 54.3468 72.025 54.3665 72.3248 54.4097C72.3886 54.4181 72.4532 54.4014 72.5048 54.3629C72.5564 54.3245 72.591 54.2674 72.6011 54.2039V51.8109C72.6002 51.735 72.5735 51.6617 72.5254 51.6029C72.4773 51.5442 72.4107 51.5035 72.3365 51.4875C71.796 51.3653 71.2444 51.2983 70.6903 51.2876C69.2959 51.2019 67.9242 51.6711 66.8744 52.5929C66.4036 53.079 66.0391 53.6578 65.8043 54.2925C65.5694 54.9272 65.4693 55.6039 65.5103 56.2794V71.2488C65.5119 71.3367 65.5479 71.4204 65.6106 71.482C65.6732 71.5436 65.7576 71.5781 65.8455 71.5781H68.9617C69.049 71.5781 69.1327 71.5434 69.1945 71.4816C69.2562 71.4199 69.2909 71.3361 69.2909 71.2488V60.4069C69.2924 60.3637 69.3102 60.3226 69.3408 60.2921C69.3713 60.2615 69.4123 60.2437 69.4555 60.2422H73.5713C73.6144 60.2437 73.6555 60.2615 73.686 60.2921C73.7166 60.3226 73.7344 60.3637 73.7359 60.4069V71.2488C73.7359 71.3361 73.7706 71.4199 73.8323 71.4816C73.8941 71.5434 73.9778 71.5781 74.0651 71.5781H77.1813C77.2692 71.5781 77.3536 71.5436 77.4162 71.482C77.4789 71.4204 77.5149 71.3367 77.5165 71.2488V60.4069C77.5157 60.386 77.519 60.3652 77.5263 60.3456C77.5335 60.3261 77.5446 60.3081 77.5588 60.2928C77.573 60.2776 77.59 60.2652 77.609 60.2565C77.628 60.2478 77.6485 60.243 77.6693 60.2422H79.7683C80.1195 60.2417 80.4643 60.1484 80.7679 59.9718L82.0731 59.2192C82.0995 59.2032 82.1297 59.1947 82.1606 59.1945C82.1914 59.1943 82.2217 59.2025 82.2482 59.2182C82.2748 59.2339 82.2966 59.2565 82.3113 59.2836C82.326 59.3107 82.3331 59.3412 82.3318 59.372V71.2488C82.3318 71.3361 82.3665 71.4199 82.4283 71.4816C82.49 71.5434 82.5738 71.5781 82.6611 71.5781H85.7832C85.8705 71.5781 85.9542 71.5434 86.016 71.4816C86.0777 71.4199 86.1124 71.3361 86.1124 71.2488V57.8081C86.1124 57.7208 86.0777 57.637 86.016 57.5753C85.9542 57.5135 85.8705 57.4788 85.7832 57.4788Z" fill="#666666"/>
<path d="M84.2251 52.0402C83.8076 52.0402 83.3995 52.164 83.0524 52.3959C82.7053 52.6279 82.4348 52.9575 82.275 53.3432C82.1152 53.7289 82.0734 54.1533 82.1549 54.5628C82.2363 54.9722 82.4374 55.3483 82.7325 55.6435C83.0277 55.9387 83.4038 56.1398 83.8133 56.2212C84.2227 56.3026 84.6471 56.2608 85.0328 56.1011C85.4185 55.9413 85.7482 55.6708 85.9801 55.3237C86.212 54.9766 86.3358 54.5685 86.3358 54.151C86.3328 53.5921 86.1094 53.057 85.7142 52.6619C85.319 52.2667 84.7839 52.0433 84.2251 52.0402Z" fill="#666666"/>
<path d="M51.0524 42.921L35.7126 34.0428C35.2294 33.7625 34.6808 33.6148 34.1222 33.6148C33.5636 33.6148 33.0149 33.7625 32.5317 34.0428L27.7693 36.7886C27.2861 37.0689 26.7374 37.2165 26.1788 37.2165C25.6202 37.2165 25.0716 37.0689 24.5884 36.7886L15.8043 31.7498C15.7402 31.712 15.6671 31.6921 15.5926 31.6921C15.5182 31.6921 15.4451 31.712 15.381 31.7498L14.2051 32.42C14.1055 32.4749 14.0181 32.5493 13.948 32.6388C13.8778 32.7282 13.8264 32.8309 13.7968 32.9406C13.7671 33.0503 13.7599 33.1649 13.7755 33.2775C13.7911 33.3901 13.8292 33.4984 13.8876 33.5959C13.9636 33.7279 14.0731 33.8374 14.2051 33.9134L24.5884 39.8459C25.0725 40.1234 25.6208 40.2694 26.1788 40.2694C26.7368 40.2694 27.2851 40.1234 27.7693 39.8459L32.5317 37.1002C33.0149 36.8198 33.5636 36.6722 34.1222 36.6722C34.6808 36.6722 35.2294 36.8198 35.7126 37.1002L51.0524 45.9548C51.5356 46.2352 52.0843 46.3828 52.6429 46.3828C53.2015 46.3828 53.7501 46.2352 54.2333 45.9548L64.6049 39.9812C64.7044 39.9262 64.7919 39.8518 64.862 39.7624C64.9321 39.673 64.9836 39.5703 65.0132 39.4606C65.0428 39.3509 65.0501 39.2363 65.0345 39.1237C65.0189 39.0111 64.9807 38.9028 64.9224 38.8053C64.8464 38.6733 64.7368 38.5638 64.6049 38.4878L63.429 37.8175C63.3648 37.7797 63.2917 37.7598 63.2173 37.7598C63.1429 37.7598 63.0698 37.7797 63.0056 37.8175L54.2333 42.921C53.7492 43.1984 53.2009 43.3444 52.6429 43.3444C52.0849 43.3444 51.5366 43.1984 51.0524 42.921Z" fill="#666666"/>
<path d="M84.1898 31.7498L75.4057 36.818C74.9225 37.0983 74.3738 37.2459 73.8152 37.2459C73.2566 37.2459 72.708 37.0983 72.2248 36.818L63.4407 31.7498C63.3766 31.712 63.3035 31.6921 63.2291 31.6921C63.1546 31.6921 63.0815 31.712 63.0174 31.7498L54.2333 36.7886C53.7501 37.0689 53.2015 37.2165 52.6429 37.2165C52.0843 37.2165 51.5356 37.0689 51.0524 36.7886L35.7126 27.928C35.2285 27.6506 34.6802 27.5046 34.1222 27.5046C33.5642 27.5046 33.0159 27.6506 32.5317 27.928L27.7693 30.6797C27.2851 30.9571 26.7368 31.1031 26.1788 31.1031C25.6208 31.1031 25.0725 30.9571 24.5884 30.6797L15.8043 25.6056C15.7402 25.5678 15.6671 25.5479 15.5926 25.5479C15.5182 25.5479 15.4451 25.5678 15.381 25.6056L14.2051 26.2759C14.1055 26.3308 14.0181 26.4052 13.948 26.4946C13.8778 26.584 13.8264 26.6867 13.7968 26.7964C13.7671 26.9062 13.7599 27.0208 13.7755 27.1333C13.7911 27.2459 13.8292 27.3542 13.8876 27.4518C13.9636 27.5837 14.0731 27.6933 14.2051 27.7693L24.5884 33.7312C25.0716 34.0115 25.6202 34.1592 26.1788 34.1592C26.7374 34.1592 27.2861 34.0115 27.7693 33.7312L32.5317 30.9854C33.0149 30.7051 33.5636 30.5574 34.1222 30.5574C34.6808 30.5574 35.2294 30.7051 35.7126 30.9854L51.0524 39.8459C51.5366 40.1234 52.0849 40.2694 52.6429 40.2694C53.2009 40.2694 53.7492 40.1234 54.2333 39.8459L63.0174 34.7719C63.0815 34.7341 63.1546 34.7142 63.2291 34.7142C63.3035 34.7142 63.3766 34.7341 63.4407 34.7719L72.2248 39.8459C72.7089 40.1234 73.2572 40.2694 73.8152 40.2694C74.3732 40.2694 74.9215 40.1234 75.4057 39.8459L85.7773 33.8605C85.8752 33.804 85.9609 33.7286 86.0294 33.6386C86.098 33.5487 86.1479 33.446 86.1764 33.3366C86.2048 33.2271 86.2112 33.1131 86.1952 33.0012C86.1792 32.8893 86.141 32.7817 86.083 32.6846C86.0077 32.5592 85.9027 32.4542 85.7773 32.3789L84.6013 31.7086C84.5352 31.6785 84.4623 31.6665 84.39 31.6737C84.3177 31.6809 84.2486 31.7072 84.1898 31.7498Z" fill="#666666"/>
<path d="M72.2249 30.6738L48.4067 16.9214C48.2466 16.8259 48.1304 16.6713 48.0831 16.491C48.0358 16.3107 48.0612 16.119 48.1538 15.9572C48.2146 15.8523 48.3017 15.7651 48.4067 15.7044C48.8908 15.4269 49.4391 15.2809 49.9971 15.2809C50.5551 15.2809 51.1034 15.4269 51.5875 15.7044L72.2249 27.634C72.709 27.9115 73.2573 28.0575 73.8153 28.0575C74.3733 28.0575 74.9216 27.9115 75.4057 27.634L85.7773 21.6427C85.9054 21.5683 86.0118 21.4615 86.0857 21.333C86.1596 21.2046 86.1985 21.0589 86.1985 20.9107C86.1985 20.7625 86.1596 20.6169 86.0857 20.4885C86.0118 20.36 85.9054 20.2532 85.7773 20.1787L51.5934 0.423322C51.1093 0.145859 50.561 -0.00012207 50.003 -0.00012207C49.445 -0.00012207 48.8967 0.145859 48.4125 0.423322L14.2227 20.167C14.1226 20.2213 14.0346 20.2954 13.9639 20.3847C13.8933 20.4741 13.8416 20.5769 13.8119 20.6869C13.7822 20.7968 13.7752 20.9117 13.7912 21.0245C13.8073 21.1372 13.8461 21.2456 13.9052 21.3429C13.9813 21.4748 14.0908 21.5844 14.2227 21.6604L24.5884 27.634C25.0726 27.9115 25.6209 28.0575 26.1789 28.0575C26.7369 28.0575 27.2852 27.9115 27.7693 27.634L32.5318 24.8824C33.0159 24.6049 33.5642 24.459 34.1222 24.459C34.6802 24.459 35.2285 24.6049 35.7126 24.8824L51.0525 33.7018C51.5356 33.9821 52.0843 34.1298 52.6429 34.1298C53.2015 34.1298 53.7502 33.9821 54.2333 33.7018L63.0174 28.6336C63.0816 28.5958 63.1547 28.5759 63.2291 28.5759C63.3035 28.5759 63.3766 28.5958 63.4408 28.6336L72.2249 33.7018C72.708 33.9821 73.2567 34.1298 73.8153 34.1298C74.3739 34.1298 74.9226 33.9821 75.4057 33.7018L85.7773 27.7164C85.8768 27.6614 85.9643 27.587 86.0344 27.4976C86.1046 27.4082 86.156 27.3055 86.1856 27.1958C86.2152 27.086 86.2225 26.9715 86.2069 26.8589C86.1913 26.7463 86.1531 26.638 86.0948 26.5404C86.0188 26.4085 85.9093 26.299 85.7773 26.2229L84.6014 25.5527C84.5372 25.5149 84.4641 25.495 84.3897 25.495C84.3153 25.495 84.2422 25.5149 84.1781 25.5527L75.394 30.6268C74.9155 30.9098 74.3715 31.0631 73.8157 31.0713C73.2598 31.0796 72.7115 30.9425 72.2249 30.6738Z" fill="#666666"/>
</g>
<defs>
<clipPath id="clip0">
<rect width="100" height="71.8427" fill="white"/>
</clipPath>
</defs>
</svg>
