<svg width="161" height="60" viewBox="0 0 161 60" fill="none" xmlns="http://www.w3.org/2000/svg">
<path fill-rule="evenodd" clip-rule="evenodd" d="M75.7639 1.54049C75.7639 0.826488 75.1782 0.240738 74.4675 0.240738C73.7832 0.240738 73.2008 0.826488 73.2008 1.54049V58.4651C73.2008 59.1806 73.7832 59.7615 74.4675 59.7615C75.1782 59.7615 75.7639 59.1806 75.7639 58.4651V1.54049ZM54.0044 31.9126L53.9947 31.9121C53.7941 31.9031 51.6788 31.8075 50.602 30.0042C51.7004 28.1618 53.8791 28.0973 54.0044 28.094C55.7935 28.0973 57.0948 28.901 57.0948 30.0042C57.0948 31.1063 55.7935 31.9062 54.0044 31.9126ZM49.1346 49.2177C48.3558 50.0026 46.8685 49.6445 45.5984 48.383L45.5916 48.3755C45.4548 48.2254 44.0334 46.6652 44.5409 44.6285C46.6054 44.1076 48.1887 45.5815 48.2963 45.6817L48.298 45.6833C49.5629 46.9516 49.9146 48.4362 49.1346 49.2177ZM29.9166 57.1748C28.8145 57.1748 28.0139 55.8785 28.0113 54.0897C28.0139 53.9607 28.0833 51.7853 29.9166 50.6806C31.7556 51.7853 31.8246 53.9607 31.828 54.0897C31.8246 55.8785 31.0244 57.1748 29.9166 57.1748ZM14.239 48.383C12.9689 49.6445 11.4843 50.0026 10.7028 49.2177C9.92426 48.4362 10.273 46.9516 11.5394 45.6833L11.5442 45.6789C11.677 45.5567 13.2466 44.112 15.298 44.6285C15.8196 46.7067 14.3268 48.2918 14.239 48.383ZM5.83451 31.9126C4.04501 31.9062 2.74263 31.1063 2.74263 30.0042C2.74263 28.901 4.04501 28.0973 5.83451 28.094C5.96013 28.0973 8.13813 28.1618 9.24026 30.0042C8.15963 31.8077 6.0447 31.9031 5.84418 31.9121L5.83451 31.9126ZM10.7028 10.7862C11.4813 10.0013 12.9689 10.3591 14.2375 11.6228C14.3268 11.7121 15.8196 13.3036 15.298 15.3815C13.2309 15.8992 11.6531 14.4281 11.5414 14.324L11.5394 14.3221C10.273 13.0557 9.92126 11.5677 10.7028 10.7862ZM29.9166 2.82608C31.0244 2.82608 31.8246 4.12658 31.828 5.91758C31.8246 6.04508 31.7556 8.22158 29.9166 9.32333C28.0833 8.22158 28.0139 6.04508 28.0113 5.91758C28.0139 4.12658 28.8145 2.82608 29.9166 2.82608ZM45.5984 11.6228C46.8685 10.3591 48.3558 10.0013 49.1346 10.7862C49.9146 11.5677 49.5629 13.0557 48.298 14.3221C48.2069 14.4083 46.6173 15.9027 44.5409 15.3815C44.023 13.3036 45.5136 11.7121 45.5984 11.6228ZM42.5301 42.6132L29.9166 47.8366L17.3073 42.6132L12.0809 30.0042V30.0008L17.3073 17.3937L29.9166 12.1703L42.5301 17.3937L47.7565 30.0008V30.0042L42.5301 42.6132ZM53.9965 25.511C53.8615 25.511 51.3539 25.5425 49.447 27.3346L45.6108 18.0777C48.229 17.9993 50.0245 16.2481 50.1205 16.154C52.4478 13.8248 52.8025 10.7986 50.9631 8.9577C49.1208 7.11983 46.0994 7.4712 43.7718 9.80033C43.6743 9.89783 41.9211 11.6933 41.8428 14.3082L32.5863 10.4738C34.3799 8.56358 34.4065 6.05895 34.4065 5.92208C34.4065 2.63108 32.5218 0.240829 29.9166 0.240829C27.319 0.240829 25.4294 2.63108 25.4294 5.92208C25.4294 6.05895 25.4575 8.56358 27.2545 10.4738L17.995 14.3082C17.9163 11.6933 16.1646 9.89783 16.0671 9.80033C13.738 7.4712 10.7125 7.11983 8.87763 8.9577C7.03638 10.7986 7.38963 13.8248 9.71538 16.154L9.721 16.1593C9.86855 16.3004 11.6459 18.0005 14.2248 18.0777L10.3904 27.3346C8.48651 25.5425 5.97588 25.511 5.83938 25.511C2.54951 25.511 0.159256 27.4006 0.159256 30.0042C0.159256 32.6067 2.54951 34.493 5.83938 34.493C5.97588 34.493 8.48651 34.4648 10.3904 32.6693L14.2248 41.9258C11.6065 42.0046 9.81438 43.7558 9.71688 43.8567C7.38963 46.1795 7.03638 49.205 8.87763 51.0477C10.7125 52.8841 13.738 52.5323 16.0671 50.2032C16.1646 50.1091 17.9163 48.311 17.995 45.6991L27.2545 49.5316C25.4575 51.44 25.4294 53.945 25.4294 54.08C25.4294 57.3758 27.3171 59.7616 29.9166 59.7616C32.5218 59.7616 34.4065 57.3758 34.4065 54.08C34.4065 53.945 34.3799 51.44 32.5863 49.5316L41.8428 45.6991C41.9211 48.311 43.6743 50.1091 43.7718 50.2032C46.0975 52.5323 49.1208 52.8841 50.9631 51.0477C52.8025 49.205 52.4478 46.1795 50.1205 43.8567C50.0245 43.7558 48.229 42.0046 45.6108 41.9258L49.447 32.6693C51.3539 34.4648 53.8615 34.493 53.9965 34.493C57.2913 34.493 59.6781 32.6067 59.6781 30.0042C59.6781 27.4006 57.2913 25.511 53.9965 25.511ZM100.574 33.0427C100.574 32.3272 101.161 31.74 101.842 31.74C102.558 31.74 103.139 32.3272 103.139 33.0427V41.9981H116.25V33.0427C116.25 32.3272 116.834 31.74 117.549 31.74C118.227 31.74 118.811 32.3272 118.811 33.0427V53.487C118.811 54.2025 118.227 54.7833 117.549 54.7833C116.834 54.7833 116.25 54.2025 116.25 53.487V44.3962H103.139V53.487C103.139 54.2025 102.558 54.7833 101.842 54.7833C101.161 54.7833 100.574 54.2025 100.574 53.487V33.0427ZM137.836 38.8119C137.836 41.7376 135.404 43.4892 131.995 43.4892H125.017V34.2732H132.026C135.695 34.2732 137.836 35.9622 137.836 38.7526V38.8119ZM123.721 31.9062C123.039 31.9062 122.456 32.4871 122.456 33.2026V53.4867C122.456 54.2022 123.039 54.7831 123.721 54.7831C124.436 54.7831 125.017 54.2022 125.017 53.4867V45.7932H131.543L137.937 54.1021C138.228 54.4914 138.618 54.7831 139.136 54.7831C139.782 54.7831 140.439 54.2022 140.439 53.5212C140.439 53.1635 140.272 52.8684 140.012 52.5762L134.364 45.3095C137.902 44.6285 140.439 42.4501 140.439 38.7177V38.6581C140.439 36.872 139.782 35.2809 138.681 34.1727C137.253 32.7474 135.018 31.9062 132.224 31.9062H123.721ZM149.224 34.2732H142.636C141.986 34.2732 141.434 33.7553 141.434 33.1058C141.434 32.4555 141.986 31.9062 142.636 31.9062H158.406C159.056 31.9062 159.608 32.4555 159.608 33.1058C159.608 33.7553 159.056 34.2732 158.406 34.2732H151.82V53.4867C151.82 54.2025 151.236 54.7831 150.521 54.7831C149.808 54.7831 149.224 54.2025 149.224 53.4867V34.2732ZM102.589 5.34945C101.192 5.34945 100.087 6.4542 100.087 7.84957V25.9564C100.087 27.3533 101.192 28.4584 102.589 28.4584C103.986 28.4584 105.088 27.3533 105.088 25.9564V19.1434H114.304V25.9564C114.304 27.3533 115.408 28.4584 116.802 28.4584C118.196 28.4584 119.301 27.3533 119.301 25.9564V7.84957C119.301 6.4542 118.196 5.34945 116.802 5.34945C115.408 5.34945 114.304 6.4542 114.304 7.84957V14.5354H105.088V7.84957C105.088 6.4542 103.986 5.34945 102.589 5.34945ZM123.231 25.8591C122.681 25.4732 122.292 24.7589 122.292 23.9789C122.292 22.6765 123.331 21.6719 124.631 21.6719C125.277 21.6719 125.733 21.9025 126.056 22.1305C127.776 23.3954 129.656 24.1705 131.866 24.1705C133.91 24.1705 135.143 23.3609 135.143 22.03V21.9704C135.143 20.6987 134.361 20.0507 130.569 19.0791C125.99 17.9084 123.039 16.6435 123.039 12.1326V12.067C123.039 7.94685 126.348 5.22098 130.987 5.22098C133.749 5.22098 136.151 5.9331 138.194 7.23135C138.747 7.5561 139.299 8.24048 139.299 9.21323C139.299 10.5096 138.257 11.5176 136.961 11.5176C136.474 11.5176 136.085 11.3886 135.695 11.158C134.041 10.1849 132.481 9.63735 130.927 9.63735C129.013 9.63735 128.005 10.5096 128.005 11.6151V11.6777C128.005 13.1717 128.978 13.6585 132.905 14.6657C137.513 15.865 140.109 17.5161 140.109 21.4787V21.5447C140.109 26.0541 136.665 28.5869 131.769 28.5869C128.787 28.5869 125.767 27.6797 123.231 25.8591ZM145.586 5.34945C144.19 5.34945 143.091 6.4542 143.091 7.84957V25.7622C143.091 27.1602 144.19 28.2638 145.586 28.2638H157.335C158.604 28.2638 159.608 27.2577 159.608 25.9909C159.608 24.7261 158.604 23.717 157.335 23.717H148.085V7.84957C148.085 6.4542 146.983 5.34945 145.586 5.34945ZM79.5948 0.240738C80.3088 0.240738 80.8927 0.826488 80.8927 1.54049V58.4651C80.8927 59.1806 80.3088 59.7615 79.5948 59.7615C78.912 59.7615 78.3315 59.1806 78.3315 58.4651V1.54049C78.3315 0.826488 78.912 0.240738 79.5948 0.240738Z" fill="#666666"/>
</svg>
