<svg width="136" height="58" viewBox="0 0 136 58" fill="none" xmlns="http://www.w3.org/2000/svg">
<path d="M1.005 38.955C1.005 39.505 1.445 40 2.05 40H22.18C22.785 40 23.225 39.505 23.225 38.955V34.445C23.225 33.895 22.785 33.4 22.18 33.4H8.15501V2.54501C8.15501 1.99501 7.66001 1.50001 7.11001 1.50001H2.05C1.445 1.50001 1.005 1.99501 1.005 2.54501V38.955Z" fill="#666666"/>
<path d="M25.6936 38.735C25.5836 39.505 26.0236 40 26.7386 40H31.6886C32.1836 40 32.6236 39.56 32.6786 39.175L35.8686 18.33C35.9236 18.33 36.0336 18.33 36.0336 18.33L45.7686 39.945C45.9336 40.275 46.2086 40.55 46.7036 40.55H47.6936C48.1886 40.55 48.5186 40.275 48.6286 39.945L58.2536 18.33C58.2536 18.33 58.3636 18.33 58.4186 18.33L61.6636 39.175C61.7736 39.56 62.2136 40 62.7086 40H67.7136C68.4286 40 68.8686 39.505 68.7036 38.735L62.2136 1.77501C62.1586 1.33502 61.8286 0.950012 61.2236 0.950012H60.3436C59.8486 0.950012 59.5736 1.17001 59.4086 1.50001L47.3086 27.46C47.2536 27.46 47.2536 27.46 47.1436 27.46L35.0436 1.50001C34.8786 1.17001 34.5486 0.950012 34.1086 0.950012H33.2286C32.6236 0.950012 32.2936 1.33502 32.2386 1.77501L25.6936 38.735Z" fill="#666666"/>
<path d="M69.8061 36.535C70.7411 37.69 73.3811 40.55 78.1661 40.55C84.6011 40.55 89.7161 36.15 89.7161 28.505V2.54501C89.7161 1.99501 89.2761 1.50001 88.6711 1.50001H83.5011C82.8961 1.50001 82.4561 1.99501 82.4561 2.54501V28.505C82.4561 32.3 80.2011 34.06 78.0561 34.06C76.2411 34.06 75.1411 33.07 74.4261 32.3C73.9311 31.805 73.3811 31.695 72.7761 32.245L69.9161 35.16C69.5861 35.545 69.5311 36.095 69.8061 36.535Z" fill="#666666"/>
<path d="M95.0494 36.04C95.0494 38.515 97.0844 40.55 99.5594 40.55C102.034 40.55 104.124 38.515 104.124 36.04C104.124 33.565 102.034 31.475 99.5594 31.475C97.0844 31.475 95.0494 33.565 95.0494 36.04Z" fill="#666666"/>
<path d="M110.139 38.955C110.139 39.505 110.634 40 111.184 40H114.924C115.749 40 117.014 40 117.014 38.955V23.775H126.199V38.955C126.199 39.505 126.639 40 127.244 40H131.809C132.359 40 132.854 39.505 132.854 38.955V19.045C132.854 18.44 132.359 18 131.809 18H117.014V12.06C117.014 8.65001 119.049 7.16501 121.029 7.16501C123.229 7.16501 126.144 8.59501 126.364 8.70502C127.024 9.03501 127.464 8.98001 127.849 8.21001L129.719 4.74501C129.994 4.25001 129.884 3.59001 129.389 3.31501C128.014 2.54501 124.604 0.950012 120.974 0.950012C114.814 0.950012 110.139 5.29501 110.139 12.005V18H108.269C107.664 18 107.224 18.44 107.224 19.045V22.73C107.224 23.28 107.664 23.775 108.269 23.775H110.139V38.955Z" fill="#666666"/>
<path d="M1.96858 53.8062C1.96858 53.9082 2.06038 54 2.16238 54H2.83558C2.93758 54 3.02938 53.9082 3.02938 53.8062V47.8188H4.69198C4.80418 47.8188 4.88578 47.727 4.88578 47.625V47.0538C4.88578 46.9518 4.80418 46.86 4.69198 46.86H0.305983C0.193783 46.86 0.112183 46.9518 0.112183 47.0538V47.625C0.112183 47.727 0.193783 47.8188 0.305983 47.8188H1.96858V53.8062Z" fill="#666666"/>
<path d="M8.29848 53.9898C8.32908 54.051 8.40048 54.102 8.47188 54.102H8.57388C8.65548 54.102 8.71668 54.051 8.74728 53.9898L11.8787 47.1252C11.9399 46.9926 11.8583 46.86 11.7053 46.86H10.9811C10.8893 46.86 10.8281 46.9212 10.8077 46.9722L8.56368 52.0212H8.50248L6.25848 46.9722C6.23808 46.9212 6.16668 46.86 6.08508 46.86H5.36088C5.20788 46.86 5.12628 46.9926 5.18748 47.1252L8.29848 53.9898Z" fill="#666666"/>
<path d="M14.9393 53.9898C14.9699 54.051 15.0413 54.102 15.1127 54.102H15.2147C15.2963 54.102 15.3575 54.051 15.3881 53.9898L18.5195 47.1252C18.5807 46.9926 18.4991 46.86 18.3461 46.86H17.6219C17.5301 46.86 17.4689 46.9212 17.4485 46.9722L15.2045 52.0212H15.1433L12.8993 46.9722C12.8789 46.9212 12.8075 46.86 12.7259 46.86H12.0017C11.8487 46.86 11.7671 46.9926 11.8283 47.1252L14.9393 53.9898Z" fill="#666666"/>
<path d="M21.2 53.8062C21.2 53.9082 21.2918 54 21.3938 54H21.9752C22.0772 54 22.169 53.9082 22.169 53.8062V47.0538C22.169 46.9518 22.0772 46.86 21.9752 46.86H21.3938C21.2918 46.86 21.2 46.9518 21.2 47.0538V53.8062Z" fill="#666666"/>
<path d="M23.8276 48.2574C24.1642 48.2574 24.4294 47.9922 24.4294 47.6658C24.4294 47.3292 24.1642 47.064 23.8276 47.064C23.5012 47.064 23.2462 47.3292 23.2462 47.6658C23.2462 47.9922 23.5012 48.2574 23.8276 48.2574ZM23.3584 53.8062C23.3584 53.9082 23.4502 54 23.5522 54H24.1336C24.2356 54 24.3274 53.9082 24.3274 53.8062V50.1138C24.3274 50.0118 24.2356 49.92 24.1336 49.92H23.5522C23.4502 49.92 23.3584 50.0118 23.3584 50.1138V53.8062Z" fill="#666666"/>
<path d="M26.496 53.8266C26.5674 53.8674 26.9652 54.102 27.4956 54.102C28.6074 54.102 29.4846 53.1636 29.4846 51.9702C29.4846 50.7972 28.6584 49.818 27.5364 49.818C26.7816 49.818 26.3634 50.2464 26.292 50.3178L26.19 50.0526C26.1492 49.9608 26.0982 49.92 26.0166 49.92H25.7106C25.6086 49.92 25.5168 50.0118 25.5168 50.1138V56.8662C25.5168 56.9682 25.6086 57.06 25.7106 57.06H26.2818C26.4246 57.06 26.496 56.9784 26.496 56.8662V53.8266ZM26.4756 52.929V51.297C26.5164 51.1746 26.8224 50.7054 27.414 50.7054C28.1076 50.7054 28.536 51.2868 28.536 51.9702C28.536 52.6638 28.0464 53.2248 27.3732 53.2248C26.8326 53.2248 26.4756 52.929 26.4756 52.929Z" fill="#666666"/>
<path d="M31.3638 53.8266C31.4352 53.8674 31.833 54.102 32.3634 54.102C33.4752 54.102 34.3524 53.1636 34.3524 51.9702C34.3524 50.7972 33.5262 49.818 32.4042 49.818C31.6494 49.818 31.2312 50.2464 31.1598 50.3178L31.0578 50.0526C31.017 49.9608 30.966 49.92 30.8844 49.92H30.5784C30.4764 49.92 30.3846 50.0118 30.3846 50.1138V56.8662C30.3846 56.9682 30.4764 57.06 30.5784 57.06H31.1496C31.2924 57.06 31.3638 56.9784 31.3638 56.8662V53.8266ZM31.3434 52.929V51.297C31.3842 51.1746 31.6902 50.7054 32.2818 50.7054C32.9754 50.7054 33.4038 51.2868 33.4038 51.9702C33.4038 52.6638 32.9142 53.2248 32.241 53.2248C31.7004 53.2248 31.3434 52.929 31.3434 52.929Z" fill="#666666"/>
<path d="M35.1912 52.1742C35.1912 53.235 35.6196 54.102 36.8436 54.102C37.6698 54.102 38.0982 53.6226 38.19 53.541L38.292 53.8368C38.3226 53.9286 38.3736 54 38.4756 54H38.7612C38.8632 54 38.955 53.9082 38.955 53.8062V50.1138C38.955 50.0118 38.8632 49.92 38.7612 49.92H38.2308C38.088 49.92 38.0064 49.9506 38.0064 50.1138V52.5516C37.9758 52.7352 37.5984 53.2248 36.9966 53.2248C36.4764 53.2248 36.1602 52.8678 36.1602 52.2048V50.1138C36.1602 50.0118 36.0684 49.92 35.9664 49.92H35.385C35.283 49.92 35.1912 50.0118 35.1912 50.1138V52.1742Z" fill="#666666"/>
<path d="M40.3745 51.8988H42.5776C42.6898 51.8988 42.7715 51.8172 42.7715 51.7152V51.2766C42.7715 51.1644 42.6898 51.0828 42.5776 51.0828H40.3745C40.2622 51.0828 40.1806 51.1644 40.1806 51.2766V51.7152C40.1806 51.8172 40.2622 51.8988 40.3745 51.8988Z" fill="#666666"/>
<path d="M46.5799 48.2574C46.9165 48.2574 47.1817 47.9922 47.1817 47.6658C47.1817 47.3292 46.9165 47.064 46.5799 47.064C46.2535 47.064 45.9985 47.3292 45.9985 47.6658C45.9985 47.9922 46.2535 48.2574 46.5799 48.2574ZM46.1005 55.2648C46.1005 55.9584 45.7843 56.2848 45.3253 56.2848C45.0805 56.2848 44.7847 56.1216 44.6521 56.0298C44.5501 55.9686 44.4481 55.9686 44.3971 56.0604L44.1421 56.5194C44.1013 56.5908 44.1115 56.703 44.1829 56.754C44.3665 56.9274 44.7949 57.162 45.3457 57.162C46.3249 57.162 47.0797 56.5296 47.0797 55.2648V50.1138C47.0797 50.0016 46.9879 49.92 46.8859 49.92H46.2943C46.1923 49.92 46.1005 50.0016 46.1005 50.1138V55.2648Z" fill="#666666"/>
<path d="M47.973 52.7352C47.973 53.5818 48.5238 54.102 49.2888 54.102C49.9212 54.102 50.319 53.796 50.5434 53.5818L50.6455 53.8572C50.6862 53.9592 50.7271 54 50.8189 54H51.1045C51.2065 54 51.2983 53.9082 51.2983 53.8062V51.6336C51.2983 50.6136 51.1758 49.818 49.8703 49.818C49.1155 49.818 48.534 50.022 48.4627 50.0526C48.3708 50.0832 48.2994 50.1546 48.3301 50.2872L48.4117 50.6646C48.4423 50.7768 48.5137 50.8584 48.6361 50.8278C48.8503 50.7666 49.3092 50.6442 49.7785 50.6442C50.2986 50.6442 50.4211 50.8992 50.4109 51.5418C50.4109 51.5418 50.0334 51.4194 49.605 51.4194C48.5646 51.4194 47.973 51.9906 47.973 52.7352ZM48.8605 52.725C48.8605 52.3068 49.197 52.0518 49.6866 52.0518C50.0538 52.0518 50.3395 52.1742 50.4007 52.215V52.8678C50.2783 53.0718 49.8907 53.3778 49.4827 53.3778C49.1053 53.3778 48.8605 53.0922 48.8605 52.725Z" fill="#666666"/>
<path d="M54.5579 53.8062C54.5579 53.9082 54.6497 54 54.7517 54H55.3229C55.4249 54 55.5167 53.9082 55.5167 53.8062V51.3174C55.5677 51.1848 55.9145 50.7054 56.5265 50.7054C57.0977 50.7054 57.3935 51.0624 57.3935 51.7152V53.8062C57.3935 53.9082 57.4751 54 57.5873 54H58.1279C58.2299 54 58.3217 53.9082 58.3217 53.8062V51.6948C58.3217 51.4908 58.3115 51.297 58.2911 51.2052C58.3625 51.144 58.7195 50.7054 59.3417 50.7054C59.8925 50.7054 60.1883 51.0726 60.1883 51.7152V53.8062C60.1883 53.9082 60.2699 54 60.3821 54H60.9533C61.0655 54 61.1471 53.9082 61.1471 53.8062V51.756C61.1471 50.6952 60.7085 49.818 59.4641 49.818C58.6889 49.818 58.0973 50.3586 57.9851 50.4708C57.6893 50.0526 57.2609 49.818 56.6693 49.818C55.8839 49.818 55.4147 50.2974 55.3229 50.3892L55.2107 50.0424C55.1801 49.971 55.1291 49.92 55.0373 49.92H54.7517C54.6497 49.92 54.5579 50.0118 54.5579 50.1138V53.8062Z" fill="#666666"/>
<path d="M61.9987 52.7352C61.9987 53.5818 62.5495 54.102 63.3145 54.102C63.9469 54.102 64.3447 53.796 64.5691 53.5818L64.6711 53.8572C64.7119 53.9592 64.7527 54 64.8445 54H65.1301C65.2321 54 65.3239 53.9082 65.3239 53.8062V51.6336C65.3239 50.6136 65.2015 49.818 63.8959 49.818C63.1411 49.818 62.5597 50.022 62.4883 50.0526C62.3965 50.0832 62.3251 50.1546 62.3557 50.2872L62.4373 50.6646C62.4679 50.7768 62.5393 50.8584 62.6617 50.8278C62.8759 50.7666 63.3349 50.6442 63.8041 50.6442C64.3243 50.6442 64.4467 50.8992 64.4365 51.5418C64.4365 51.5418 64.0591 51.4194 63.6307 51.4194C62.5903 51.4194 61.9987 51.9906 61.9987 52.7352ZM62.8861 52.725C62.8861 52.3068 63.2227 52.0518 63.7123 52.0518C64.0795 52.0518 64.3651 52.1742 64.4263 52.215V52.8678C64.3039 53.0718 63.9163 53.3778 63.5083 53.3778C63.1309 53.3778 62.8861 53.0922 62.8861 52.725Z" fill="#666666"/>
<path d="M66.475 53.8062C66.475 53.9082 66.5668 54 66.6688 54H67.2604C67.3624 54 67.4542 53.9082 67.4542 53.8062V52.0212L69.3004 53.9184C69.331 53.9592 69.4126 54 69.484 54H70.3204C70.4938 54 70.5244 53.8266 70.4326 53.7348L68.4334 51.7356L70.1266 50.1954C70.2184 50.1138 70.1878 49.92 70.0144 49.92H69.3004C69.1984 49.92 69.1168 49.9812 69.0454 50.0424L67.4542 51.4704V47.0538C67.4542 46.9518 67.3624 46.86 67.2604 46.86H66.6688C66.5668 46.86 66.475 46.9518 66.475 47.0538V53.8062Z" fill="#666666"/>
<path d="M70.9201 53.6838C71.1343 53.8572 71.5831 54.102 72.2665 54.102C73.1743 54.102 73.7761 53.541 73.7761 52.9086C73.7761 52.1436 73.1641 51.8274 72.4195 51.501C72.0217 51.3276 71.7667 51.2154 71.7667 50.9502C71.7667 50.7972 71.8789 50.6442 72.2257 50.6442C72.6133 50.6442 73.0621 50.8584 73.0621 50.8584C73.1437 50.8992 73.2763 50.8686 73.3273 50.7768L73.5109 50.43C73.5721 50.328 73.5211 50.1954 73.4293 50.1342C73.2253 50.0016 72.7969 49.818 72.2257 49.818C71.2465 49.818 70.8283 50.43 70.8283 50.94C70.8283 51.6132 71.3587 52.0008 71.9911 52.2762C72.5521 52.5312 72.7765 52.6638 72.7765 52.9392C72.7765 53.1636 72.5827 53.286 72.2767 53.286C71.7769 53.286 71.3281 53.0208 71.3281 53.0208C71.2261 52.9596 71.1139 52.9902 71.0731 53.0718L70.8589 53.4696C70.8181 53.5512 70.8589 53.643 70.9201 53.6838Z" fill="#666666"/>
<path d="M74.5656 52.1742C74.5656 53.235 74.994 54.102 76.218 54.102C77.0442 54.102 77.4726 53.6226 77.5644 53.541L77.6664 53.8368C77.697 53.9286 77.748 54 77.85 54H78.1356C78.2376 54 78.3294 53.9082 78.3294 53.8062V50.1138C78.3294 50.0118 78.2376 49.92 78.1356 49.92H77.6052C77.4624 49.92 77.3808 49.9506 77.3808 50.1138V52.5516C77.3502 52.7352 76.9728 53.2248 76.371 53.2248C75.8508 53.2248 75.5346 52.8678 75.5346 52.2048V50.1138C75.5346 50.0118 75.4428 49.92 75.3408 49.92H74.7594C74.6574 49.92 74.5656 50.0118 74.5656 50.1138V52.1742Z" fill="#666666"/>
<path d="M80.0038 48.2574C80.3404 48.2574 80.6056 47.9922 80.6056 47.6658C80.6056 47.3292 80.3404 47.064 80.0038 47.064C79.6774 47.064 79.4224 47.3292 79.4224 47.6658C79.4224 47.9922 79.6774 48.2574 80.0038 48.2574ZM79.5244 55.2648C79.5244 55.9584 79.2082 56.2848 78.7492 56.2848C78.5044 56.2848 78.2086 56.1216 78.076 56.0298C77.974 55.9686 77.872 55.9686 77.821 56.0604L77.566 56.5194C77.5252 56.5908 77.5354 56.703 77.6068 56.754C77.7904 56.9274 78.2188 57.162 78.7696 57.162C79.7488 57.162 80.5036 56.5296 80.5036 55.2648V50.1138C80.5036 50.0016 80.4118 49.92 80.3098 49.92H79.7182C79.6162 49.92 79.5244 50.0016 79.5244 50.1138V55.2648Z" fill="#666666"/>
<path d="M81.397 52.7352C81.397 53.5818 81.9478 54.102 82.7128 54.102C83.3452 54.102 83.743 53.796 83.9674 53.5818L84.0694 53.8572C84.1102 53.9592 84.151 54 84.2428 54H84.5284C84.6304 54 84.7222 53.9082 84.7222 53.8062V51.6336C84.7222 50.6136 84.5998 49.818 83.2942 49.818C82.5394 49.818 81.958 50.022 81.8866 50.0526C81.7948 50.0832 81.7234 50.1546 81.754 50.2872L81.8356 50.6646C81.8662 50.7768 81.9376 50.8584 82.06 50.8278C82.2742 50.7666 82.7332 50.6442 83.2024 50.6442C83.7226 50.6442 83.845 50.8992 83.8348 51.5418C83.8348 51.5418 83.4574 51.4194 83.029 51.4194C81.9886 51.4194 81.397 51.9906 81.397 52.7352ZM82.2844 52.725C82.2844 52.3068 82.621 52.0518 83.1106 52.0518C83.4778 52.0518 83.7634 52.1742 83.8246 52.215V52.8678C83.7022 53.0718 83.3146 53.3778 82.9066 53.3778C82.5292 53.3778 82.2844 53.0922 82.2844 52.725ZM84.2632 48.2166C84.5896 48.2166 84.8446 47.9616 84.8446 47.6454C84.8446 47.319 84.5896 47.064 84.2632 47.064C83.947 47.064 83.692 47.319 83.692 47.6454C83.692 47.9616 83.947 48.2166 84.2632 48.2166ZM82.2538 48.2166C82.5802 48.2166 82.8352 47.9616 82.8352 47.6454C82.8352 47.319 82.5802 47.064 82.2538 47.064C81.9376 47.064 81.6826 47.319 81.6826 47.6454C81.6826 47.9616 81.9376 48.2166 82.2538 48.2166Z" fill="#666666"/>
<path d="M85.8633 53.8062C85.8633 53.9082 85.9551 54 86.0571 54H86.5467C86.7099 54 86.8222 53.9796 86.8222 53.8062V51.2154C86.863 51.144 87.1486 50.7156 87.7402 50.7156C87.8727 50.7156 88.0257 50.7564 88.0869 50.787C88.1787 50.8278 88.2807 50.8074 88.3317 50.6952L88.5765 50.1954C88.6887 49.92 88.2195 49.818 87.8319 49.818C87.0873 49.818 86.71 50.3076 86.6385 50.4096L86.5263 50.0628C86.5059 49.9812 86.4244 49.92 86.353 49.92H86.0571C85.9551 49.92 85.8633 50.0118 85.8633 50.1138V53.8062Z" fill="#666666"/>
<path d="M89.6367 48.2574C89.9733 48.2574 90.2385 47.9922 90.2385 47.6658C90.2385 47.3292 89.9733 47.064 89.6367 47.064C89.3103 47.064 89.0553 47.3292 89.0553 47.6658C89.0553 47.9922 89.3103 48.2574 89.6367 48.2574ZM89.1573 55.2648C89.1573 55.9584 88.8411 56.2848 88.3821 56.2848C88.1373 56.2848 87.8415 56.1216 87.7089 56.0298C87.6069 55.9686 87.5049 55.9686 87.4539 56.0604L87.1989 56.5194C87.1581 56.5908 87.1683 56.703 87.2397 56.754C87.4233 56.9274 87.8517 57.162 88.4025 57.162C89.3817 57.162 90.1365 56.5296 90.1365 55.2648V50.1138C90.1365 50.0016 90.0447 49.92 89.9427 49.92H89.3511C89.2491 49.92 89.1573 50.0016 89.1573 50.1138V55.2648Z" fill="#666666"/>
<path d="M91.0299 51.96C91.0299 53.133 91.8459 54.102 93.0801 54.102C93.7635 54.102 94.2939 53.847 94.5897 53.592C94.7121 53.49 94.6815 53.4084 94.6101 53.3268L94.3245 52.9392C94.2429 52.8372 94.1715 52.878 94.0491 52.9494C93.8451 53.082 93.5085 53.2452 93.1413 53.2452C92.4783 53.2452 91.9989 52.7046 91.9683 52.1538H94.7427C94.8345 52.1538 94.9161 52.0824 94.9263 51.9804C94.9365 51.909 94.9467 51.7764 94.9467 51.705C94.9467 50.6136 94.1307 49.818 93.0699 49.818C91.8459 49.818 91.0299 50.8074 91.0299 51.96ZM92.0193 51.5112C92.0805 51.0012 92.5089 50.6034 93.0597 50.6034C93.5595 50.6034 93.9675 51.0216 93.9981 51.5112H92.0193Z" fill="#666666"/>
<path d="M95.6114 53.6838C95.8256 53.8572 96.2744 54.102 96.9578 54.102C97.8656 54.102 98.4674 53.541 98.4674 52.9086C98.4674 52.1436 97.8554 51.8274 97.1108 51.501C96.713 51.3276 96.458 51.2154 96.458 50.9502C96.458 50.7972 96.5702 50.6442 96.917 50.6442C97.3046 50.6442 97.7534 50.8584 97.7534 50.8584C97.835 50.8992 97.9676 50.8686 98.0186 50.7768L98.2022 50.43C98.2634 50.328 98.2124 50.1954 98.1206 50.1342C97.9166 50.0016 97.4882 49.818 96.917 49.818C95.9378 49.818 95.5196 50.43 95.5196 50.94C95.5196 51.6132 96.05 52.0008 96.6824 52.2762C97.2434 52.5312 97.4678 52.6638 97.4678 52.9392C97.4678 53.1636 97.274 53.286 96.968 53.286C96.4682 53.286 96.0194 53.0208 96.0194 53.0208C95.9174 52.9596 95.8052 52.9902 95.7644 53.0718L95.5502 53.4696C95.5094 53.5512 95.5502 53.643 95.6114 53.6838Z" fill="#666666"/>
<path d="M99.5833 52.8882C99.5833 53.6124 99.8179 54.102 100.624 54.102C101.113 54.102 101.715 53.8572 101.817 53.796C101.919 53.745 101.96 53.6634 101.909 53.5512L101.725 53.1024C101.684 53.0106 101.623 52.9494 101.491 53.0106C101.368 53.0718 101.083 53.1942 100.868 53.1942C100.675 53.1942 100.542 53.133 100.542 52.7862V50.7666H101.582C101.695 50.7666 101.776 50.6748 101.776 50.5728V50.1138C101.776 50.0016 101.695 49.92 101.582 49.92H100.542V48.7776C100.542 48.6756 100.46 48.5838 100.358 48.5838L99.7771 48.594C99.6751 48.594 99.5833 48.6858 99.5833 48.7878V49.92H99.1549C99.0427 49.92 98.9611 50.0016 98.9611 50.1138V50.5728C98.9611 50.6748 99.0427 50.7666 99.1549 50.7666H99.5833V52.8882Z" fill="#666666"/>
<path d="M102.416 51.96C102.416 53.133 103.232 54.102 104.466 54.102C105.149 54.102 105.68 53.847 105.976 53.592C106.098 53.49 106.067 53.4084 105.996 53.3268L105.71 52.9392C105.629 52.8372 105.557 52.878 105.435 52.9494C105.231 53.082 104.894 53.2452 104.527 53.2452C103.864 53.2452 103.385 52.7046 103.354 52.1538H106.129C106.22 52.1538 106.302 52.0824 106.312 51.9804C106.322 51.909 106.333 51.7764 106.333 51.705C106.333 50.6136 105.517 49.818 104.456 49.818C103.232 49.818 102.416 50.8074 102.416 51.96ZM103.405 51.5112C103.466 51.0012 103.895 50.6034 104.446 50.6034C104.945 50.6034 105.353 51.0216 105.384 51.5112H103.405Z" fill="#666666"/>
<path d="M107.181 53.8062C107.181 53.9082 107.273 54 107.375 54H107.956C108.058 54 108.15 53.9082 108.15 53.8062V47.0538C108.15 46.9518 108.058 46.86 107.956 46.86H107.375C107.273 46.86 107.181 46.9518 107.181 47.0538V53.8062Z" fill="#666666"/>
<path d="M109.339 53.8062C109.339 53.9082 109.431 54 109.533 54H110.104C110.206 54 110.298 53.9082 110.298 53.8062V51.3174C110.349 51.1848 110.696 50.7054 111.308 50.7054C111.879 50.7054 112.175 51.0624 112.175 51.7152V53.8062C112.175 53.9082 112.257 54 112.369 54H112.909C113.011 54 113.103 53.9082 113.103 53.8062V51.6948C113.103 51.4908 113.093 51.297 113.073 51.2052C113.144 51.144 113.501 50.7054 114.123 50.7054C114.674 50.7054 114.97 51.0726 114.97 51.7152V53.8062C114.97 53.9082 115.051 54 115.164 54H115.735C115.847 54 115.929 53.9082 115.929 53.8062V51.756C115.929 50.6952 115.49 49.818 114.246 49.818C113.47 49.818 112.879 50.3586 112.767 50.4708C112.471 50.0526 112.042 49.818 111.451 49.818C110.665 49.818 110.196 50.2974 110.104 50.3892L109.992 50.0424C109.962 49.971 109.911 49.92 109.819 49.92H109.533C109.431 49.92 109.339 50.0118 109.339 50.1138V53.8062Z" fill="#666666"/>
<path d="M116.78 52.7352C116.78 53.5818 117.331 54.102 118.096 54.102C118.728 54.102 119.126 53.796 119.351 53.5818L119.453 53.8572C119.493 53.9592 119.534 54 119.626 54H119.912C120.014 54 120.105 53.9082 120.105 53.8062V51.6336C120.105 50.6136 119.983 49.818 118.677 49.818C117.923 49.818 117.341 50.022 117.27 50.0526C117.178 50.0832 117.107 50.1546 117.137 50.2872L117.219 50.6646C117.249 50.7768 117.321 50.8584 117.443 50.8278C117.657 50.7666 118.116 50.6442 118.586 50.6442C119.106 50.6442 119.228 50.8992 119.218 51.5418C119.218 51.5418 118.841 51.4194 118.412 51.4194C117.372 51.4194 116.78 51.9906 116.78 52.7352ZM117.668 52.725C117.668 52.3068 118.004 52.0518 118.494 52.0518C118.861 52.0518 119.147 52.1742 119.208 52.215V52.8678C119.085 53.0718 118.698 53.3778 118.29 53.3778C117.912 53.3778 117.668 53.0922 117.668 52.725ZM119.646 48.2166C119.973 48.2166 120.228 47.9616 120.228 47.6454C120.228 47.319 119.973 47.064 119.646 47.064C119.33 47.064 119.075 47.319 119.075 47.6454C119.075 47.9616 119.33 48.2166 119.646 48.2166ZM117.637 48.2166C117.963 48.2166 118.218 47.9616 118.218 47.6454C118.218 47.319 117.963 47.064 117.637 47.064C117.321 47.064 117.066 47.319 117.066 47.6454C117.066 47.9616 117.321 48.2166 117.637 48.2166Z" fill="#666666"/>
<path d="M123.161 50.4402C123.161 52.4802 124.783 54.102 126.823 54.102C128.863 54.102 130.495 52.4802 130.495 50.4402C130.495 48.4002 128.863 46.758 126.823 46.758C124.783 46.758 123.161 48.4002 123.161 50.4402ZM124.181 50.4402C124.181 48.9918 125.375 47.778 126.823 47.778C128.282 47.778 129.475 48.9918 129.475 50.4402C129.475 51.8988 128.282 53.082 126.823 53.082C125.375 53.082 124.181 51.8988 124.181 50.4402Z" fill="#666666"/>
<path d="M132.714 53.8572L131.347 56.7846C131.276 56.9274 131.368 57.06 131.521 57.06H132.133C132.214 57.06 132.276 56.9988 132.306 56.9376L135.427 50.1852C135.499 50.0526 135.417 49.92 135.254 49.92H134.673C134.581 49.92 134.499 49.9404 134.458 50.0322L133.234 52.7454H133.224L131.959 50.0322C131.929 49.971 131.847 49.92 131.786 49.92H131.113C130.96 49.92 130.878 50.0526 130.939 50.1852L132.714 53.8572Z" fill="#666666"/>
</svg>
