<svg width="260" height="260" viewBox="0 0 260 260" fill="none" xmlns="http://www.w3.org/2000/svg">
<path d="M199.062 199.062V166.562C199.062 162.082 195.418 158.438 190.938 158.438H182.812C182.812 153.957 179.168 150.312 174.688 150.312H150.312C145.832 150.312 142.188 153.957 142.188 158.438H134.062C133.595 158.438 133.144 158.498 132.698 158.576C122.525 149.488 110.35 142.614 97.2806 138.694L91.1016 136.841C87.6403 135.801 85.3125 132.673 85.3125 129.057V125.938H97.5C108.7 125.938 117.812 116.825 117.812 105.625L117.804 87.8272L118.816 87.3234C123.207 85.1216 125.938 80.7056 125.938 75.7941C125.938 73.2387 125.186 70.7688 123.772 68.6481L118.495 60.7303C118.048 60.06 117.812 59.2841 117.812 58.4797V52.065C122.529 50.3831 125.938 45.9144 125.938 40.625V32.5C125.938 16.8228 113.177 4.0625 97.5 4.0625H70.72C38.4475 4.0625 12.1875 30.3225 12.1875 62.595C12.1875 72.9422 14.9866 82.9725 20.0119 91.7231C10.0953 98.4953 4.0625 109.671 4.0625 121.875C4.0625 133.904 10.1116 145.121 19.8209 151.885C9.96531 161.586 4.0625 175 4.0625 189.499V211.25C4.0625 235.889 24.1109 255.938 48.75 255.938H117.812C121.477 255.938 124.824 254.674 127.546 252.618C129.029 254.621 131.385 255.938 134.062 255.938H190.938C195.418 255.938 199.062 252.293 199.062 247.812V231.562C203.543 231.562 207.188 227.918 207.188 223.438V207.188C207.188 202.707 203.543 199.062 199.062 199.062ZM150.312 158.438H174.688L174.696 166.562H150.312V158.438ZM35.1163 150.495C37.5172 149.159 40.0522 148.001 42.7294 147.107L49.1603 144.962L75.9688 177.133L54.3563 168.488L58.37 160.457L35.1163 150.495ZM125.938 205.506L105.625 185.193C104.678 184.247 103.488 183.584 102.213 183.198L118.987 172.018L114.319 162.679L117.634 157.15C120.713 159.193 123.642 161.448 126.429 163.873C126.132 164.718 125.938 165.616 125.938 166.562V205.506ZM93.4375 197.381C93.4375 193.83 96.33 190.938 99.8806 190.938L103.943 195L97.5 201.443L93.4375 197.381ZM108.513 169.232L95.0828 178.185L100.502 148.375C103.984 149.691 107.368 151.243 110.646 153.002L105.056 162.317L108.513 169.232ZM86.9334 177.6L70.9678 158.438H90.4191L86.9334 177.6ZM95.8466 221.723L94.9894 223.438H93.4375V208.869L101.148 216.58C98.9137 217.673 97.0125 219.395 95.8466 221.723ZM119.685 223.628L103.244 207.188L109.688 200.744L125.938 216.994V225.696C124.057 224.599 121.948 223.893 119.685 223.628ZM105.625 101.562C100.327 101.562 95.81 98.1663 94.1322 93.4375H109.688V101.562H105.625ZM115.188 80.0516L114.181 80.5553C112.19 81.5466 110.772 83.2772 110.114 85.3125H85.3125V89.375C85.3125 100.575 94.4247 109.688 105.625 109.688H108.94C107.258 114.404 102.789 117.812 97.5 117.812H69.0625V125.938H77.1875V129.057C77.1875 136.289 81.8431 142.545 88.7697 144.625L92.7144 145.807L91.8938 150.312H64.1956L56.2209 140.741C59.1419 137.772 60.8847 133.717 60.8847 129.346V95.4688L48.4291 86.125C46.0566 84.3456 44.6347 81.5059 44.6347 78.5403C44.6347 73.3159 48.8881 69.0625 54.1166 69.0625H60.8684L60.8969 61.6078C60.9131 56.7003 63.5944 52.1787 67.7463 49.7372C70.4153 51.6547 73.6572 52.8125 77.1875 52.8125H109.688V58.4797C109.688 60.8928 110.394 63.2328 111.735 65.2397L117.016 73.1616C117.536 73.9416 117.812 74.8556 117.812 75.7941C117.812 77.61 116.805 79.2431 115.188 80.0516ZM70.72 12.1875H97.5C108.7 12.1875 117.812 21.2997 117.812 32.5V40.625C117.812 42.8675 115.993 44.6875 113.75 44.6875H109.688V28.4375H101.562V44.6875H93.4375V28.4375H85.3125V44.6875H77.1875C72.7066 44.6875 69.0625 41.0434 69.0625 36.5625C69.0625 32.0816 72.7066 28.4375 77.1875 28.4375V20.3125C68.2256 20.3125 60.9375 27.6006 60.9375 36.5625C60.9375 39.0447 61.5428 41.3725 62.5381 43.4769C56.7572 47.3769 53.0034 53.8809 52.7841 60.9863C43.6963 61.6688 36.5097 69.2819 36.5097 78.5363C36.5097 84.045 39.1422 89.31 43.5541 92.6209L52.7597 99.5272V110.602L44.785 105.82C29.6928 96.7647 20.3125 80.1978 20.3125 62.595C20.3125 34.7994 42.9244 12.1875 70.72 12.1875ZM12.1875 121.875C12.1875 112.409 16.8553 103.732 24.5334 98.4587C28.9128 104.122 34.3241 109.021 40.6047 112.791L52.7597 120.083V129.346C52.7597 132.844 50.5294 135.943 47.2103 137.053L40.1619 139.405C35.1487 141.074 30.5378 143.471 26.3819 146.408C17.7125 141.355 12.1875 132.003 12.1875 121.875ZM12.1875 211.25V189.499C12.1875 176.373 17.8953 164.287 27.3122 155.988L47.2509 164.535L43.1397 172.754L85.3125 189.625V223.438H48.75C42.0306 223.438 36.5625 217.969 36.5625 211.25V182.812H28.4375V211.25C28.4375 222.45 37.5497 231.562 48.75 231.562H93.4375V247.812H48.75C28.5878 247.812 12.1875 231.412 12.1875 211.25ZM117.812 247.812H101.562V228.459L103.114 225.355C103.703 224.173 104.894 223.438 106.218 223.438C108.128 223.438 109.688 224.997 109.688 226.907V231.562H117.812C122.293 231.562 125.938 235.207 125.938 239.688C125.938 244.168 122.293 247.812 117.812 247.812ZM134.062 247.812V166.562H142.188C142.188 171.043 145.832 174.688 150.312 174.688H174.688C179.168 174.688 182.812 171.043 182.812 166.562H190.938V199.81C186.221 201.492 182.812 205.961 182.812 211.25V219.375C182.812 224.664 186.221 229.133 190.938 230.815V247.812H134.062ZM195 223.438C192.758 223.438 190.938 221.617 190.938 219.375V211.25C190.938 209.008 192.758 207.188 195 207.188H199.062L199.071 223.438H195Z" fill="#5E7921"/>
<path d="M97.5 69.0625C99.7437 69.0625 101.562 67.2437 101.562 65C101.562 62.7563 99.7437 60.9375 97.5 60.9375C95.2563 60.9375 93.4375 62.7563 93.4375 65C93.4375 67.2437 95.2563 69.0625 97.5 69.0625Z" fill="#5E7921"/>
<path d="M193.81 27.2471L188.065 21.5027L166.563 43.0055L161.31 37.7527L155.565 43.4971L166.563 54.4942L193.81 27.2471Z" fill="#5E7921"/>
<path d="M255.938 36.5625H199.062V44.6875H255.938V36.5625Z" fill="#5E7921"/>
<path d="M193.81 67.8721L188.065 62.1277L166.563 83.6305L161.31 78.3777L155.565 84.1221L166.563 95.1192L193.81 67.8721Z" fill="#5E7921"/>
<path d="M255.938 77.1875H199.062V85.3125H255.938V77.1875Z" fill="#5E7921"/>
<path d="M223.438 117.812H199.062V125.938H223.438V117.812Z" fill="#5E7921"/>
<path d="M161.31 136.935L170.625 127.619L179.94 136.935L185.685 131.19L176.369 121.875L185.685 112.56L179.94 106.815L170.625 116.131L161.31 106.815L155.565 112.56L164.881 121.875L155.565 131.19L161.31 136.935Z" fill="#5E7921"/>
<path d="M255.938 117.812H247.812V125.938H255.938V117.812Z" fill="#5E7921"/>
<path d="M239.688 117.812H231.562V125.938H239.688V117.812Z" fill="#5E7921"/>
</svg>
