<svg width="232" height="50" viewBox="0 0 232 50" fill="none" xmlns="http://www.w3.org/2000/svg">
<g clip-path="url(#clip0)">
<path d="M184.061 18.9271C183.396 20.6959 182.207 22.2199 180.654 23.2956C179.1 24.3713 177.255 24.9476 175.366 24.9476C173.476 24.9476 171.631 24.3713 170.078 23.2956C168.524 22.2199 167.335 20.6959 166.671 18.9271H160.091C160.834 22.4249 162.755 25.5614 165.534 27.812C168.313 30.0625 171.78 31.2905 175.356 31.2905C178.932 31.2905 182.399 30.0625 185.178 27.812C187.957 25.5614 189.879 22.4249 190.622 18.9271H184.061ZM0 0.843784V6.55287H9.13841V30.6162H14.8436V6.55287H23.6879V0.843784H0ZM123.552 0.843784V30.531H129.486V0.843784H123.552ZM28.9248 0.843784V5.91423H39.7623C43.8342 5.91423 45.5682 7.17603 45.5682 10.137C45.5682 12.8774 44.0974 14.1934 40.7997 14.3946H28.9209V30.5272H35.0751V20.1347H40.3391L46.0752 30.531H52.6552L46.9539 20.1347H62.2426L57.8573 30.531H64.1353L68.5207 20.1347H77.752L82.1335 30.531H88.4115L84.03 20.1347H96.1991V30.531H102.121V20.1347H114.151V14.3792H81.6032L75.956 0.986995H69.678L75.329 14.3869H50.7432C51.4055 13.0029 51.7292 11.4812 51.6876 9.94736C51.6876 3.80864 47.8789 0.824431 40.0488 0.824431L28.9248 0.843784ZM96.1798 0.843784V6.97863H116.373V0.839913L96.1798 0.843784ZM219.91 0.843784L213.09 21.5087L206.274 0.839913H198.769L194.67 30.5272H200.627L203.449 10.555L210.029 30.5272H216.133L222.713 10.555L225.53 30.5272H231.479L227.411 0.839913L219.91 0.843784ZM159.959 13.4076H166.388C166.905 11.4163 168.068 9.65296 169.696 8.39418C171.323 7.1354 173.322 6.45244 175.379 6.45244C177.437 6.45244 179.436 7.1354 181.063 8.39418C182.69 9.65296 183.854 11.4163 184.371 13.4076H190.8C190.255 9.70733 188.397 6.32642 185.566 3.88198C182.735 1.43754 179.12 0.092577 175.379 0.092577C171.639 0.092577 168.024 1.43754 165.193 3.88198C162.362 6.32642 160.504 9.70733 159.959 13.4076ZM135.888 15.6061C135.889 18.1752 136.524 20.7043 137.736 22.9691C138.949 25.234 140.701 27.1646 142.839 28.5896C144.977 30.0146 147.433 30.8901 149.99 31.1383C152.547 31.3865 155.126 30.9997 157.497 30.0124L154.292 24.462C152.899 24.9044 151.421 25.0117 149.979 24.7753C148.536 24.5389 147.17 23.9655 145.991 23.1015C144.812 22.2376 143.853 21.1077 143.193 19.8035C142.533 18.4993 142.19 17.0578 142.192 15.596C142.194 14.1343 142.541 12.6937 143.204 11.3912C143.868 10.0888 144.829 8.96136 146.011 8.10054C147.192 7.23973 148.56 6.66985 150.003 6.43724C151.446 6.20463 152.924 6.31586 154.316 6.76188L157.521 1.21149C155.149 0.219555 152.568 -0.171162 150.009 0.0740483C147.45 0.319258 144.991 1.1928 142.85 2.61708C140.71 4.04135 138.954 5.97225 137.74 8.23824C136.525 10.5042 135.889 13.0351 135.888 15.6061ZM74.0904 38.8528V46.6674H78.259V47.577H73.0492V38.8528H74.0904ZM80.9955 38.8528V39.8475H80.0008V38.8528H80.9955ZM80.9955 41.2757V47.5732H80.0008V41.2757H80.9955ZM84.2313 38.8528V39.8475H83.2366V38.8528H84.2313ZM84.2313 41.2757V47.5732H83.2366V41.2757H84.2313ZM88.7134 44.6315L87.4671 46.0365V47.5848H86.4724V38.6089H87.4671V44.8715L90.5636 41.2757H91.6434L89.3676 43.9542L91.837 47.577H90.7339L88.7134 44.6315ZM98.2931 44.7515H93.5478C93.5719 45.3228 93.822 45.8611 94.243 46.248C94.664 46.6348 95.2214 46.8386 95.7927 46.8145H95.8508C96.5063 46.8022 97.1541 46.6711 97.7628 46.4275L98.0183 47.2016C97.3044 47.5141 96.5333 47.6749 95.754 47.6738C93.9503 47.6738 92.5453 46.4855 92.5453 44.4032C92.5453 42.3208 94.0703 41.1325 95.5605 41.1325C97.1822 41.1325 98.3357 42.3208 98.3357 44.1748C98.3367 44.3679 98.3224 44.5607 98.2931 44.7515ZM93.5555 43.9271H97.31C97.2751 42.704 96.5358 42.0266 95.5527 42.0266C94.5696 42.0266 93.7297 42.6537 93.5594 43.9271H93.5555ZM105.419 43.5632V47.5732H104.424V43.66C104.424 42.5685 103.843 42.0382 102.957 42.0382C102.308 42.0466 101.672 42.2269 101.115 42.5608V47.5925H100.12V41.2757H101.03V41.7363C101.691 41.3606 102.437 41.1607 103.197 41.1558C103.498 41.1364 103.799 41.179 104.083 41.2808C104.367 41.3827 104.626 41.5417 104.846 41.7479C105.283 42.1815 105.419 42.7659 105.419 43.5632ZM112.893 43.5632V47.5732H111.898V43.66C111.898 42.5685 111.318 42.0382 110.431 42.0382C109.782 42.0466 109.146 42.2269 108.589 42.5608V47.5925H107.594V41.2757H108.504V41.7363C109.165 41.3606 109.911 41.1607 110.671 41.1558C110.972 41.1364 111.273 41.179 111.557 41.2808C111.841 41.3827 112.1 41.5417 112.32 41.7479C112.761 42.1815 112.893 42.7659 112.893 43.5632ZM120.417 44.7515H115.668C115.692 45.3228 115.942 45.8611 116.363 46.248C116.784 46.6348 117.342 46.8386 117.913 46.8145H117.971C118.627 46.8022 119.274 46.6711 119.883 46.4275L120.139 47.2016C119.425 47.5141 118.654 47.6749 117.874 47.6738C116.071 47.6738 114.666 46.4855 114.666 44.4032C114.666 42.3208 116.191 41.1325 117.681 41.1325C119.303 41.1325 120.456 42.3208 120.456 44.1748C120.458 44.3678 120.445 44.5606 120.417 44.7515ZM115.68 43.9271H119.423C119.388 42.704 118.648 42.0266 117.665 42.0266C116.682 42.0266 115.85 42.6537 115.68 43.9271ZM124.876 43.3813V44.2522H121.935V43.3813H124.876ZM130.872 49.5471C130.705 49.7024 130.509 49.8222 130.295 49.8994C130.08 49.9765 129.853 50.0095 129.625 49.9961C129.261 49.9981 128.899 49.9284 128.561 49.791L128.766 49.0169C129.001 49.0914 129.247 49.128 129.494 49.1253C130.039 49.1253 130.33 48.8582 130.33 48.0608V41.2757H131.325V48.1305C131.348 48.3849 131.32 48.6414 131.242 48.8848C131.164 49.1281 131.038 49.3534 130.872 49.5471ZM131.321 38.8528V39.8475H130.326V38.8528H131.321ZM138.388 47.5267V47.577H137.421C137.369 47.4519 137.329 47.3223 137.301 47.19C136.704 47.5078 136.041 47.6815 135.365 47.697C133.926 47.697 133.101 47.008 133.101 45.7114C133.101 44.5231 134.119 43.7258 135.811 43.7258C136.256 43.7213 136.702 43.7537 137.142 43.8226V43.5555C137.142 42.5143 136.561 42.0421 135.594 42.0421C134.949 42.0442 134.31 42.1595 133.705 42.3827L133.403 41.6086C134.121 41.3115 134.89 41.1551 135.667 41.148C136.008 41.1205 136.352 41.1621 136.676 41.2706C137.001 41.379 137.3 41.5519 137.556 41.7789C137.761 42.0059 137.917 42.2724 138.015 42.5619C138.113 42.8515 138.15 43.158 138.125 43.4626V45.6417C138.106 46.2804 138.195 46.9178 138.388 47.5267ZM135.482 46.8223C136.055 46.8309 136.621 46.6979 137.13 46.4352V44.6199C136.699 44.5375 136.261 44.5012 135.822 44.5115C134.661 44.5115 134.115 44.9721 134.115 45.723C134.115 46.4739 134.58 46.8223 135.474 46.8223H135.482ZM144.194 41.2757L145.394 44.4264L146.133 46.3888L146.849 44.4264L148.038 41.2757H149.079L146.609 47.5732H145.603L143.107 41.2757H144.194ZM151.513 38.8528V39.8475H150.519V38.8528H151.513ZM151.513 41.2757V47.5732H150.519V41.2757H151.513ZM159.084 44.7515H154.339C154.363 45.3228 154.613 45.8611 155.034 46.248C155.455 46.6348 156.013 46.8386 156.584 46.8145H156.642C157.297 46.8022 157.945 46.6711 158.554 46.4275L158.809 47.2016C158.095 47.5141 157.324 47.6749 156.545 47.6738C154.741 47.6738 153.336 46.4855 153.336 44.4032C153.336 42.3208 154.861 41.1325 156.352 41.1325C157.973 41.1325 159.127 42.3208 159.127 44.1748C159.128 44.3679 159.114 44.5607 159.084 44.7515ZM154.347 43.9271H158.101C158.066 42.704 157.327 42.0266 156.344 42.0266C155.361 42.0266 154.521 42.6537 154.351 43.9271H154.347ZM164.851 41.5544L164.573 42.3285C164.008 42.1116 163.409 42.0001 162.804 41.9995C162.003 41.9995 161.507 42.3131 161.507 42.8124C161.507 43.3117 161.751 43.6136 162.877 43.9039C164.623 44.3528 165.25 44.8986 165.25 45.8662C165.25 46.981 164.294 47.697 162.684 47.697C161.868 47.685 161.058 47.5465 160.284 47.2867L160.563 46.5126C161.249 46.732 161.964 46.8468 162.684 46.8532C163.737 46.8532 164.271 46.5126 164.271 45.9204C164.271 45.4598 163.884 45.096 162.564 44.7593C160.977 44.3722 160.528 43.7761 160.528 42.8936C160.528 41.8989 161.399 41.148 162.804 41.148C163.506 41.1508 164.201 41.2887 164.851 41.5544ZM170.158 47.4648C169.763 47.612 169.345 47.6892 168.923 47.6931C168.481 47.7206 168.046 47.5733 167.712 47.2829C167.555 47.1053 167.437 46.8976 167.364 46.6727C167.291 46.4477 167.264 46.2102 167.286 45.9746V42.135H166.256V41.2757H167.298V39.6888H168.292V41.2757H169.891V42.135H168.292V45.8662C168.292 46.5436 168.583 46.8339 169.105 46.8339C169.41 46.8219 169.712 46.7686 170.003 46.6752L170.158 47.4648ZM172.678 38.8528V39.8475H171.675V38.8528H172.678ZM172.678 41.2757V47.5732H171.675V41.2757H172.678ZM180.19 43.5632V47.5732H179.196V43.66C179.196 42.5685 178.615 42.0382 177.729 42.0382C177.079 42.0466 176.444 42.2269 175.886 42.5608V47.5925H174.892V41.2757H175.801V41.7363C176.462 41.3606 177.208 41.1607 177.969 41.1558C178.269 41.1364 178.571 41.179 178.855 41.2808C179.138 41.3827 179.398 41.5417 179.618 41.7479C180.055 42.1815 180.19 42.7659 180.19 43.5632ZM185.462 47.4648C185.067 47.612 184.649 47.6892 184.227 47.6931C183.785 47.7206 183.35 47.5733 183.016 47.2829C182.86 47.1053 182.741 46.8976 182.668 46.6727C182.595 46.4477 182.568 46.2102 182.59 45.9746V42.135H181.549V41.2757H182.59V39.6888H183.585V41.2757H185.183V42.135H183.585V45.8662C183.585 46.5436 183.875 46.8339 184.398 46.8339C184.703 46.8219 185.005 46.7686 185.296 46.6752L185.462 47.4648ZM191.891 47.5267V47.577H190.924C190.872 47.4519 190.832 47.3223 190.804 47.19C190.207 47.5078 189.544 47.6815 188.868 47.697C187.428 47.697 186.604 47.008 186.604 45.7114C186.604 44.5231 187.622 43.7258 189.313 43.7258C189.759 43.7213 190.204 43.7537 190.645 43.8226V43.5555C190.645 42.5143 190.064 42.0421 189.097 42.0421C188.452 42.0442 187.813 42.1595 187.208 42.3827L186.906 41.6086C187.624 41.3115 188.393 41.1551 189.17 41.148C189.511 41.1205 189.854 41.1621 190.179 41.2706C190.504 41.379 190.803 41.5519 191.059 41.7789C191.264 42.0059 191.42 42.2724 191.518 42.5619C191.615 42.8515 191.653 43.158 191.628 43.4626V45.6417C191.609 46.2804 191.698 46.9178 191.891 47.5267ZM188.319 39.8436H187.324V38.8489H188.319V39.8436ZM188.973 46.8107C189.546 46.8192 190.112 46.6863 190.622 46.4236V44.6083C190.191 44.5259 189.752 44.4896 189.313 44.4999C188.152 44.4999 187.606 44.9605 187.606 45.7114C187.606 46.4623 188.09 46.8223 188.984 46.8223L188.973 46.8107ZM191.225 39.8436H190.254V38.8489H191.249L191.225 39.8436ZM193.857 41.2757L195.057 44.4264L195.797 46.3888L196.513 44.4264L197.701 41.2757H198.742L196.273 47.5732H195.286L192.789 41.2757H193.857ZM201.184 38.8528V39.8475H200.19V38.8528H201.184ZM201.184 41.2757V47.5732H200.19V41.2757H201.184ZM204.397 42.8743V47.5732H203.414V41.2757H204.323V42.015C205.024 41.5846 205.8 41.2928 206.611 41.1558L206.781 42.0421C205.944 42.1781 205.137 42.4598 204.397 42.8743ZM212.997 47.5267V47.577H212.03C211.978 47.4519 211.938 47.3223 211.91 47.19C211.313 47.5078 210.65 47.6815 209.974 47.697C208.535 47.697 207.71 47.008 207.71 45.7114C207.71 44.5231 208.728 43.7258 210.42 43.7258C210.865 43.7213 211.311 43.7537 211.751 43.8226V43.5555C211.751 42.5143 211.17 42.0421 210.203 42.0421C209.558 42.0442 208.919 42.1595 208.314 42.3827L208.012 41.6086C208.73 41.3115 209.499 41.1551 210.276 41.148C210.617 41.1205 210.961 41.1621 211.285 41.2706C211.61 41.379 211.909 41.5519 212.165 41.7789C212.364 42.0093 212.515 42.2775 212.607 42.5676C212.699 42.8577 212.732 43.1634 212.703 43.4665V45.6456C212.694 46.2848 212.794 46.9208 212.997 47.5267ZM210.091 46.8223C210.664 46.8309 211.23 46.6979 211.739 46.4352V44.6199C211.308 44.5375 210.87 44.5012 210.431 44.5115C209.27 44.5115 208.724 44.9721 208.724 45.723C208.724 46.4739 209.193 46.8223 210.091 46.8223ZM218.97 41.5544L218.691 42.3285C218.126 42.1116 217.527 42.0001 216.922 41.9995C216.121 41.9995 215.626 42.3131 215.626 42.8124C215.626 43.3117 215.869 43.6136 216.996 43.9039C218.741 44.3528 219.368 44.8986 219.368 45.8662C219.368 46.981 218.412 47.697 216.802 47.697C215.986 47.685 215.176 47.5465 214.402 47.2867L214.681 46.5126C215.367 46.732 216.082 46.8468 216.802 46.8532C217.855 46.8532 218.389 46.5126 218.389 45.9204C218.389 45.4598 218.002 45.096 216.682 44.7593C215.095 44.3722 214.646 43.7761 214.646 42.8936C214.646 41.8989 215.517 41.148 216.922 41.148C217.624 41.1508 218.32 41.2887 218.97 41.5544ZM224.276 47.4648C223.881 47.612 223.463 47.6892 223.042 47.6931C222.599 47.7206 222.164 47.5733 221.83 47.2829C221.674 47.1053 221.555 46.8976 221.482 46.6727C221.409 46.4477 221.382 46.2102 221.404 45.9746V42.135H220.363V41.2757H221.404V39.6888H222.38V41.2757H223.978V42.135H222.38V45.8662C222.38 46.5436 222.67 46.8339 223.192 46.8339C223.498 46.8219 223.8 46.7686 224.09 46.6752L224.276 47.4648ZM231.352 44.4225C231.352 46.3578 229.97 47.6931 228.255 47.6931C226.54 47.6931 225.159 46.3733 225.159 44.4225C225.159 42.4717 226.54 41.1519 228.255 41.1519C229.97 41.1519 231.352 42.4601 231.352 44.4225ZM230.334 44.4225C230.334 42.9323 229.451 42.0344 228.24 42.0344C227.028 42.0344 226.146 42.9323 226.146 44.4225C226.146 45.9127 227.032 46.8107 228.24 46.8107C229.447 46.8107 230.334 45.9127 230.334 44.4225Z" fill="#666666"/>
</g>
<defs>
<clipPath id="clip0">
<rect width="231.479" height="50" fill="white"/>
</clipPath>
</defs>
</svg>
