<svg width="260" height="260" viewBox="0 0 260 260" fill="none" xmlns="http://www.w3.org/2000/svg">
<path d="M234.971 243.149L245.493 241.044C251.546 239.834 255.938 234.475 255.938 228.304C255.938 221.142 250.108 215.312 242.946 215.312H239.688C239.688 210.832 236.043 207.188 231.562 207.188H190.938V158.438C190.938 153.957 187.293 150.312 182.812 150.312H174.688V142.188H178.75C212.351 142.188 239.688 114.851 239.688 81.25V60.9375C244.168 60.9375 247.812 57.2934 247.812 52.8125V12.1875C247.812 7.70656 244.168 4.0625 239.688 4.0625H215.312C210.832 4.0625 207.188 7.70656 207.188 12.1875V45.435C202.471 47.1169 199.062 51.5856 199.062 56.875V66.6047C199.062 69.0219 199.769 71.3578 201.11 73.3647L207.163 82.4444C206.533 97.5731 194.029 109.688 178.75 109.688H150.312V101.562C159.274 101.562 166.562 94.2744 166.562 85.3125V74.8069L176.369 65L173.497 62.1278C169.024 57.655 166.562 51.7116 166.562 45.3822V44.6875H174.688C179.168 44.6875 182.812 41.0434 182.812 36.5625C182.812 18.6428 168.232 4.0625 150.312 4.0625H125.686C98.9422 4.0625 77.1875 25.8172 77.1875 52.5606C77.1875 69.3916 85.7106 84.7641 99.9822 93.6853L109.688 99.7506V109.688H81.25C65.9709 109.688 53.4666 97.5731 52.8369 82.4403L58.89 73.3647C60.2306 71.3538 60.9375 69.0178 60.9375 66.6006V56.875C60.9375 51.5856 57.5291 47.1169 52.8125 45.435V12.1875C52.8125 7.70656 49.1684 4.0625 44.6875 4.0625H30.3266L12.1875 31.2691V52.8125C12.1875 57.2934 15.8316 60.9375 20.3125 60.9375V81.25C20.3125 114.851 47.6491 142.188 81.25 142.188H85.3125V150.312H77.1875C72.7066 150.312 69.0625 153.957 69.0625 158.438V223.438C69.0625 227.918 72.7066 231.562 77.1875 231.562H108.485L106.161 247.812H60.9375V190.938C60.9375 186.457 57.2934 182.812 52.8125 182.812H12.1875C7.70656 182.812 4.0625 186.457 4.0625 190.938V255.938H255.938V247.812H231.116C232.558 246.399 233.85 244.839 234.971 243.149ZM242.946 223.438C245.627 223.438 247.812 225.623 247.812 228.304C247.812 230.616 246.167 232.623 243.9 233.078L238.891 234.081C239.391 231.965 239.688 229.767 239.688 227.5V223.438H242.946ZM52.8125 190.938V199.062H12.1875V190.938H52.8125ZM30.2534 213.923L26.8856 207.188H38.1144L34.7466 213.927C33.8894 215.637 31.1106 215.637 30.2534 213.923ZM17.8019 207.188L21.8644 215.312H12.1875V207.188H17.8019ZM52.8125 223.438V231.562H12.1875V223.438H52.8125ZM43.1356 215.312L47.1981 207.188H52.8125V215.312H43.1356ZM12.1875 247.812V239.688H52.8125V247.812H12.1875ZM190.938 215.312H231.562V227.5C231.562 238.7 222.45 247.812 211.25 247.812C200.05 247.812 190.938 238.7 190.938 227.5V215.312ZM230.815 52.8125C229.133 48.0959 224.664 44.6875 219.375 44.6875H215.312V28.4375H239.688V52.8125H230.815ZM239.688 12.1875V20.3125H215.312V12.1875H239.688ZM207.188 56.875C207.188 54.6366 209.012 52.8125 211.25 52.8125H219.375C221.613 52.8125 223.438 54.6366 223.438 56.875C223.438 59.1134 221.613 60.9375 219.375 60.9375H215.312V69.0625H219.375C224.664 69.0625 229.133 65.6541 230.815 60.9375H231.562V77.1875H213.423L207.87 68.8553C207.423 68.185 207.188 67.4091 207.188 66.6047V56.875ZM215.073 85.3125H231.355C229.271 112.535 206.501 134.062 178.75 134.062H174.688V125.938H166.562V150.312H144.698L138.751 138.417L141.871 133.737L153.164 140.514L157.706 117.812H178.75C197.535 117.812 213.042 103.565 215.073 85.3125ZM112.791 117.812L121.566 122.2L112.543 127.615L110.581 117.812H112.791ZM147.209 117.812H149.419L147.461 127.615L138.438 122.2L147.209 117.812ZM130 126.612L134.895 129.549L131.889 134.062H128.111L125.105 129.549L130 126.612ZM128.448 142.188H131.552L135.614 150.312H124.386L128.448 142.188ZM165.059 64.8213L158.438 71.4431V77.1875H150.312C145.832 77.1875 142.188 73.5434 142.188 69.0625H134.062C134.062 78.0244 141.351 85.3125 150.312 85.3125H158.438C158.438 89.7934 154.793 93.4375 150.312 93.4375H125.938V101.562H142.188V111.239L130 117.333L117.812 111.239V75.5056L110.878 68.5709C110.11 67.8031 109.688 66.7794 109.688 65.6947V65C109.688 62.7616 111.512 60.9375 113.75 60.9375H117.812V48.75C117.812 46.5116 119.637 44.6875 121.875 44.6875H158.438V45.3822C158.438 52.5078 160.765 59.2759 165.059 64.8213ZM104.284 86.7953C92.4056 79.3691 85.3125 66.5722 85.3125 52.5606C85.3125 30.2981 103.423 12.1875 125.686 12.1875H150.312C163.755 12.1875 174.688 23.1197 174.688 36.5625H121.875C115.156 36.5625 109.688 42.0306 109.688 48.75V53.5072C104.959 55.185 101.562 59.7025 101.562 65V65.6947C101.562 68.9487 102.83 72.0119 105.133 74.3153L109.688 78.8694V90.1712L104.284 86.7953ZM44.6875 44.6875H40.625C35.3356 44.6875 30.8669 48.0959 29.185 52.8125H20.3125V36.5625H28.4375C32.9184 36.5625 36.5625 32.9184 36.5625 28.4375V12.1875H44.6875V44.6875ZM23.8388 28.4375L28.4375 21.5434V28.4375H23.8388ZM29.185 60.9375C30.8669 65.6541 35.3356 69.0625 40.625 69.0625H44.6875V60.9375H40.625C38.3866 60.9375 36.5625 59.1134 36.5625 56.875C36.5625 54.6366 38.3866 52.8125 40.625 52.8125H48.75C50.9884 52.8125 52.8125 54.6366 52.8125 56.875V66.6047C52.8125 67.4091 52.5769 68.1891 52.13 68.8594L46.5766 77.1875H28.4375V60.9375H29.185ZM85.3125 125.938V134.062H81.25C53.4991 134.062 30.7288 112.535 28.6447 85.3125H44.9272C46.9584 103.565 62.465 117.812 81.25 117.812H102.294L106.836 140.51L118.129 133.733L121.249 138.413L115.302 150.312H93.4375V125.938H85.3125ZM77.1875 223.438V158.438H182.812V223.438H150.353L147.205 201.402C146.352 195.435 141.168 190.938 135.143 190.938H124.861C118.836 190.938 113.648 195.435 112.799 201.402L109.647 223.438H77.1875ZM120.839 202.548C121.123 200.562 122.85 199.062 124.857 199.062H135.139C137.146 199.062 138.872 200.562 139.161 202.552L145.628 247.812H114.372L120.839 202.548ZM153.835 247.812L151.511 231.562H183.133C184.043 237.888 187.017 243.543 191.384 247.812H153.835Z" fill="#8E5EA0"/>
<path d="M227.5 182.812H219.375C212.656 182.812 207.188 188.281 207.188 195V199.062H215.312V195C215.312 192.762 217.137 190.938 219.375 190.938H227.5C234.219 190.938 239.688 185.469 239.688 178.75C239.688 172.031 234.219 166.562 227.5 166.562H211.25C209.012 166.562 207.188 164.738 207.188 162.5C207.188 160.262 209.012 158.438 211.25 158.438H219.375C226.094 158.438 231.562 152.969 231.562 146.25V142.188H223.438V146.25C223.438 148.488 221.613 150.312 219.375 150.312H211.25C204.531 150.312 199.062 155.781 199.062 162.5C199.062 169.219 204.531 174.688 211.25 174.688H227.5C229.738 174.688 231.562 176.512 231.562 178.75C231.562 180.988 229.738 182.812 227.5 182.812Z" fill="#8E5EA0"/>
<path d="M146.25 60.9375C148.494 60.9375 150.312 59.1187 150.312 56.875C150.312 54.6313 148.494 52.8125 146.25 52.8125C144.006 52.8125 142.188 54.6313 142.188 56.875C142.188 59.1187 144.006 60.9375 146.25 60.9375Z" fill="#8E5EA0"/>
</svg>
