<?xml version="1.0" encoding="utf-8"?>
<!-- Generator: Adobe Illustrator 19.1.0, SVG Export Plug-In . SVG Version: 6.00 Build 0)  -->
<!DOCTYPE svg PUBLIC "-//W3C//DTD SVG 1.1//EN" "http://www.w3.org/Graphics/SVG/1.1/DTD/svg11.dtd">
<svg version="1.1" id="Layer_1" xmlns="http://www.w3.org/2000/svg" xmlns:xlink="http://www.w3.org/1999/xlink" x="0px" y="0px"
	 viewBox="0 0 360 360" enable-background="new 0 0 360 360" xml:space="preserve">
<g>
	<g>
		<path fill-rule="evenodd" clip-rule="evenodd" fill="#EEEEEE" d="M180,358.5C81.575,358.5,1.5,278.425,1.5,180
			C1.5,81.575,81.575,1.5,180,1.5c98.425,0,178.5,80.075,178.5,178.5C358.5,278.425,278.425,358.5,180,358.5z"/>
		<path fill="#8C54A2" d="M180,3c47.278,0,91.727,18.411,125.158,51.842S357,132.722,357,180s-18.411,91.727-51.842,125.158
			S227.278,357,180,357c-47.278,0-91.727-18.411-125.158-51.842S3,227.278,3,180S21.411,88.273,54.842,54.842S132.722,3,180,3
			 M180,0C80.589,0,0,80.589,0,180s80.589,180,180,180s180-80.589,180-180S279.411,0,180,0L180,0z"/>
	</g>
	<path fill-rule="evenodd" clip-rule="evenodd" fill="#FFFFFF" d="M180,20c88.365,0,160,71.634,160,160s-71.634,160-160,160
		S20,268.366,20,180S91.635,20,180,20z"/>
	<g>
		<path fill="#8C54A2" d="M162.397,150.565c1.771,0.921,3.696,1.388,5.636,1.387c0.331,0,0.662-0.016,0.993-0.043
			c0.94,2.699,1.03,5.629,0.231,8.407c-0.345,1.198,0.347,2.449,1.546,2.793c0.208,0.06,0.418,0.088,0.625,0.088
			c0.981,0,1.884-0.644,2.168-1.634c1.03-3.581,0.947-7.353-0.204-10.848c5.391-2.612,8.204-8.874,6.345-14.755
			c-0.376-1.188-1.643-1.848-2.833-1.472c-1.189,0.376-1.848,1.644-1.472,2.833c1.29,4.082-0.974,8.455-5.047,9.747
			c-1.972,0.626-4.068,0.444-5.904-0.511c-1.837-0.955-3.192-2.57-3.817-4.547c-0.376-1.188-1.644-1.847-2.833-1.472
			c-1.189,0.376-1.848,1.644-1.472,2.833C157.346,146.5,159.491,149.054,162.397,150.565z"/>
		<path fill="#8C54A2" d="M179.104,159.177c-0.678,1.046-0.379,2.444,0.668,3.122c5.529,3.58,5.641,10.203,4.761,15.129
			c-0.219,1.227,0.598,2.4,1.825,2.619c0.134,0.024,0.268,0.036,0.399,0.036c1.073,0,2.024-0.768,2.22-1.861
			c1.583-8.867-0.814-15.868-6.752-19.713C181.179,157.831,179.781,158.13,179.104,159.177z"/>
		<path fill="#8C54A2" d="M160.644,171.673c0.576,0,1.152-0.219,1.592-0.657c0.884-0.879,0.887-2.309,0.008-3.192
			c-4.141-4.162-8.847-3.286-12.628-2.582c-4.071,0.758-6.704,1.084-9.419-1.645c-0.879-0.884-2.309-0.888-3.192-0.009
			c-0.884,0.879-0.888,2.309-0.009,3.192c4.535,4.56,9.476,3.639,13.447,2.9c3.923-0.73,6.256-1.029,8.6,1.328
			C159.485,171.451,160.065,171.673,160.644,171.673z"/>
		<path fill="#8C54A2" d="M196.305,170.943c2.722,0.739,5.163,2.26,7.032,4.332c-0.678,1.022-1.208,2.15-1.557,3.363
			c-0.602,2.094-0.63,4.31-0.082,6.408c0.266,1.015,1.18,1.686,2.182,1.686c0.189,0,0.381-0.024,0.573-0.074
			c1.206-0.315,1.928-1.549,1.613-2.755c-0.344-1.313-0.325-2.702,0.053-4.017c0.561-1.949,1.846-3.562,3.618-4.542
			c1.768-0.977,3.81-1.207,5.75-0.646c1.197,0.347,2.449-0.345,2.795-1.542c0.346-1.198-0.345-2.449-1.543-2.795
			c-3.1-0.895-6.362-0.529-9.186,1.032c-0.361,0.199-0.708,0.416-1.043,0.647c-2.423-2.607-5.554-4.511-9.023-5.453
			c-1.203-0.326-2.443,0.384-2.77,1.587C194.392,169.376,195.102,170.616,196.305,170.943z"/>
		<path fill="#8C54A2" d="M178.936,194.393c1.194,0,2.191-0.936,2.253-2.142c0.25-4.885-2.212-9.342-6.232-11.763
			c0.896-2.346,2.425-4.388,4.508-5.961c0.995-0.751,1.192-2.167,0.441-3.162c-0.751-0.995-2.167-1.193-3.162-0.441
			c-2.769,2.091-4.818,4.804-6.014,7.938c-4.852-0.945-9.923,0.979-12.901,5.001c-0.742,1.002-0.531,2.416,0.471,3.157
			c1.002,0.742,2.416,0.531,3.158-0.47c2.088-2.819,5.755-4.06,9.122-3.089c3.794,1.095,6.302,4.615,6.1,8.559
			c-0.064,1.245,0.894,2.306,2.139,2.37C178.858,194.392,178.897,194.393,178.936,194.393z"/>
		<path fill="#8C54A2" d="M200.599,162.483c0.26,0,0.525-0.046,0.784-0.141c1.169-0.433,1.766-1.732,1.333-2.901
			c-1.962-5.297,0.743-11.206,6.029-13.17c1.169-0.435,1.764-1.734,1.329-2.903c-0.435-1.169-1.735-1.764-2.902-1.33
			c-7.617,2.831-11.515,11.341-8.689,18.97C198.819,161.92,199.682,162.483,200.599,162.483z"/>
		<path fill="#8C54A2" d="M115.375,110.467c0.441,0.441,1.018,0.661,1.596,0.661c0.578,0,1.156-0.22,1.596-0.661
			c0.882-0.882,0.882-2.311,0-3.192l-7.254-7.254c-0.881-0.882-2.311-0.881-3.192,0c-0.882,0.882-0.882,2.311,0,3.192
			L115.375,110.467z"/>
		<path fill="#8C54A2" d="M121.82,115.975c0.592,0,1.174-0.241,1.595-0.662c0.422-0.416,0.662-0.998,0.662-1.595
			c0-0.592-0.241-1.174-0.662-1.595c-0.421-0.421-1.003-0.662-1.595-0.662c-0.597,0-1.179,0.241-1.595,0.662
			c-0.422,0.421-0.662,1.003-0.662,1.595c0,0.597,0.241,1.179,0.662,1.595C120.641,115.734,121.223,115.975,121.82,115.975z"/>
		<path fill="#8C54A2" d="M234.055,117.139c0.597,0,1.179-0.241,1.595-0.662c0.421-0.416,0.662-0.998,0.662-1.595
			c0-0.592-0.241-1.174-0.662-1.595c-0.416-0.421-0.998-0.662-1.595-0.662c-0.592,0-1.174,0.241-1.595,0.662
			c-0.421,0.421-0.662,1.003-0.662,1.595c0,0.597,0.241,1.179,0.662,1.595C232.881,116.898,233.463,117.139,234.055,117.139z"/>
		<path fill="#8C54A2" d="M244.984,100.762l-7.745,7.745c-0.882,0.882-0.882,2.311,0,3.192c0.441,0.441,1.018,0.661,1.596,0.661
			c0.578,0,1.156-0.22,1.596-0.661l7.745-7.745c0.882-0.882,0.882-2.311,0-3.192C247.294,99.88,245.865,99.88,244.984,100.762z"/>
		<path fill="#8C54A2" d="M208.256,101.618c0.592,0,1.174-0.241,1.595-0.662c0.421-0.416,0.662-0.998,0.662-1.595
			c0-0.592-0.241-1.174-0.662-1.595c-0.421-0.421-1.003-0.662-1.595-0.662c-0.597,0-1.179,0.241-1.6,0.662
			c-0.416,0.421-0.657,1.003-0.657,1.595c0,0.597,0.241,1.179,0.657,1.595C207.077,101.377,207.659,101.618,208.256,101.618z"/>
		<path fill="#8C54A2" d="M210.845,95.368c0.592,0,1.174-0.241,1.595-0.662c0.421-0.421,0.662-1.003,0.662-1.595
			c0-0.597-0.241-1.179-0.662-1.6c-0.421-0.416-1.003-0.657-1.595-0.657c-0.597,0-1.179,0.241-1.595,0.657
			c-0.421,0.421-0.662,1.003-0.662,1.6c0,0.592,0.241,1.174,0.662,1.595C209.666,95.127,210.248,95.368,210.845,95.368z"/>
		<path fill="#8C54A2" d="M213.458,89.047c0.597,0,1.179-0.241,1.6-0.662c0.416-0.421,0.657-1.003,0.657-1.595
			c0-0.597-0.241-1.179-0.657-1.595c-0.421-0.421-1.003-0.662-1.6-0.662c-0.592,0-1.174,0.241-1.595,0.662
			c-0.416,0.416-0.657,0.998-0.657,1.595c0,0.592,0.241,1.174,0.657,1.595C212.284,88.806,212.866,89.047,213.458,89.047z"/>
		<path fill="#8C54A2" d="M143.54,88.225c0.592,0,1.174-0.241,1.595-0.657c0.422-0.421,0.662-1.003,0.662-1.6
			c0-0.592-0.241-1.174-0.662-1.595c-0.422-0.421-1.003-0.662-1.595-0.662c-0.597,0-1.179,0.241-1.595,0.662
			c-0.421,0.421-0.662,1.003-0.662,1.595c0,0.597,0.241,1.179,0.662,1.6C142.362,87.984,142.944,88.225,143.54,88.225z"/>
		<path fill="#8C54A2" d="M143.816,92.092c0,0.597,0.241,1.179,0.662,1.6c0.421,0.416,1.003,0.657,1.595,0.657
			c0.597,0,1.179-0.241,1.6-0.657c0.416-0.421,0.657-1.003,0.657-1.6c0-0.592-0.241-1.174-0.657-1.595
			c-0.421-0.421-1.003-0.662-1.6-0.662c-0.592,0-1.174,0.241-1.595,0.662C144.057,90.918,143.816,91.5,143.816,92.092z"/>
		<path fill="#8C54A2" d="M146.335,98.172c0,0.597,0.241,1.179,0.662,1.595c0.422,0.421,1.003,0.662,1.595,0.662
			c0.597,0,1.179-0.241,1.595-0.662c0.421-0.416,0.662-0.998,0.662-1.595c0-0.592-0.241-1.174-0.662-1.595
			c-0.416-0.421-0.998-0.662-1.595-0.662c-0.592,0-1.174,0.241-1.595,0.662C146.575,96.998,146.335,97.58,146.335,98.172z"/>
		<path fill="#8C54A2" d="M272.264,168.162h-4.667v-4.668c0-1.247-1.011-2.257-2.257-2.257c-1.247,0-2.257,1.011-2.257,2.257v4.668
			h-4.668c-1.247,0-2.257,1.011-2.257,2.257c0,1.247,1.011,2.257,2.257,2.257h4.668v4.667c0,1.247,1.011,2.257,2.257,2.257
			c1.247,0,2.257-1.011,2.257-2.257v-4.667h4.667c1.247,0,2.257-1.011,2.257-2.257C274.521,169.173,273.511,168.162,272.264,168.162
			z"/>
		<path fill="#8C54A2" d="M101.585,172.677c1.247,0,2.257-1.011,2.257-2.257c0-1.247-1.011-2.257-2.257-2.257h-4.667v-4.668
			c0-1.247-1.011-2.257-2.257-2.257c-1.247,0-2.257,1.011-2.257,2.257v4.668h-4.668c-1.247,0-2.257,1.011-2.257,2.257
			c0,1.247,1.011,2.257,2.257,2.257h4.668v4.667c0,1.247,1.011,2.257,2.257,2.257c1.247,0,2.257-1.011,2.257-2.257v-4.667H101.585z"
			/>
		<path fill="#8C54A2" d="M171.595,88.856h4.668v4.667c0,1.247,1.011,2.257,2.257,2.257c1.247,0,2.257-1.011,2.257-2.257v-4.667
			h4.667c1.247,0,2.257-1.011,2.257-2.257c0-1.247-1.011-2.257-2.257-2.257h-4.667v-4.667c0-1.247-1.011-2.257-2.257-2.257
			c-1.247,0-2.257,1.011-2.257,2.257v4.667h-4.668c-1.247,0-2.257,1.011-2.257,2.257C169.337,87.845,170.348,88.856,171.595,88.856z
			"/>
		<path fill="#8C54A2" d="M217.457,112.369c-10.655-6.042-23.931-9.105-39.46-9.105c-21.364,0-37.878,5.704-49.084,16.954
			c-17.019,17.085-16.923,41.805-16.887,51.111l0.003,1.042c0,10.802-2.596,21.597-7.508,31.217l-3.685,7.219
			c-0.357,0.7-0.325,1.535,0.085,2.205c0.41,0.67,1.139,1.079,1.925,1.079h10.101c2.967,0,5.381,2.414,5.381,5.381v16.216v14.593
			c0,8.419,6.849,15.267,15.268,15.267h31.494c8.419,0,15.268-6.849,15.268-15.267V209.11c1.868-0.222,3.695-0.804,5.391-1.743
			c2.797-1.548,4.97-3.908,6.271-6.769c1.465,1.074,3.116,1.887,4.893,2.4c4.008,1.158,8.226,0.682,11.877-1.339
			c3.65-2.02,6.295-5.343,7.45-9.356c0.314-1.09,0.507-2.2,0.579-3.32c7.965-0.376,15.004-5.816,17.262-13.664
			c2.72-9.455-2.285-19.335-11.261-22.851c-0.399-10.605-7.536-19.852-17.843-22.828c-3.608-1.041-7.399-1.243-11.064-0.605
			c-2.19-3.526-5.636-6.286-9.924-7.524c-7.773-2.242-15.967,1.243-19.873,8.057c-1.205-0.746-2.508-1.323-3.899-1.725
			c-4.029-1.163-8.269-0.684-11.939,1.347c-3.669,2.031-6.328,5.371-7.489,9.405c-0.783,2.723-0.815,5.567-0.12,8.261
			c-7.49,0.817-13.992,6.127-16.135,13.575c-2.884,10.024,2.912,20.529,12.92,23.418c1.97,0.568,4.014,0.809,6.047,0.722
			c-1.146,6.895,3.037,13.731,9.903,15.712c3.806,1.099,7.847,0.496,11.135-1.513c1.441,4.666,5.158,8.462,10,9.86
			c0.432,0.125,0.867,0.222,1.303,0.307v41.343c0,5.929-4.824,10.753-10.753,10.753h-31.494c-5.929,0-10.753-4.824-10.753-10.753
			v-12.336h11.48c1.247,0,2.257-1.011,2.257-2.257c0-1.247-1.011-2.257-2.257-2.257h-11.48v-13.958c0-5.456-4.439-9.895-9.896-9.895
			h-6.414l2.009-3.935c5.235-10.253,8.001-21.758,8.001-33.27l-0.003-1.06c-0.034-8.793-0.125-32.151,15.571-47.907
			c10.328-10.368,25.766-15.626,45.886-15.626c26.961,0,46.039,9.416,56.702,27.986c7.911,13.777,9.092,29.226,9.092,37.21
			c0,13.824-4.692,22.006-10.632,32.364c-7.334,12.789-16.232,28.308-18.38,60.024c-4.511,0.201-8.121,3.923-8.121,8.483v6.483
			c0,1.247,1.011,2.257,2.257,2.257c1.247,0,2.257-1.011,2.257-2.257v-6.483c0-1.982,1.455-3.626,3.352-3.932
			c-0.149,3.302-0.229,6.767-0.229,10.414c0,1.247,1.011,2.257,2.257,2.257c1.247,0,2.257-1.011,2.257-2.258
			c0-3.616,0.081-7.046,0.231-10.312c1.667,0.478,2.892,2.012,2.892,3.831v6.483c0,1.247,1.011,2.257,2.257,2.257
			c1.247,0,2.257-1.011,2.257-2.257v-6.483c0-4.225-3.101-7.73-7.145-8.383c2.119-30.573,10.698-45.539,17.774-57.877
			c6.026-10.509,11.231-19.584,11.231-34.61c0-8.433-1.259-24.773-9.692-39.458C233.445,124.513,226.326,117.399,217.457,112.369z
			 M168.402,194.472c-0.001-0.944-0.59-1.788-1.476-2.115c-0.885-0.327-1.881-0.068-2.496,0.649
			c-2.404,2.806-6.241,3.96-9.775,2.939c-5.003-1.444-7.9-6.698-6.458-11.71c0.05-0.171,0.114-0.349,0.179-0.528
			c1.809-0.573,3.515-1.407,5.083-2.497c1.024-0.711,1.277-2.118,0.566-3.142c-0.711-1.024-2.118-1.277-3.142-0.566
			c-1.429,0.992-3.006,1.71-4.688,2.136c-0.011,0.002-0.021,0.003-0.032,0.006c-2.449,0.615-5.028,0.568-7.458-0.133
			c-7.618-2.199-12.029-10.199-9.833-17.833c1.765-6.136,7.413-10.364,13.695-10.416c1.671,2.682,4.103,4.814,7.011,6.084
			c0.294,0.128,0.601,0.189,0.902,0.189c0.87,0,1.699-0.506,2.07-1.355c0.499-1.143-0.023-2.473-1.165-2.972
			c-2.398-1.047-4.345-2.918-5.517-5.275c-1.252-2.519-1.518-5.388-0.741-8.092c0.827-2.876,2.723-5.256,5.337-6.703
			c2.613-1.447,5.632-1.788,8.5-0.959c1.688,0.488,3.196,1.339,4.482,2.529c0.555,0.514,1.33,0.716,2.066,0.537
			c0.735-0.179,1.332-0.714,1.59-1.425c2.295-6.338,9.162-9.84,15.634-7.973c3.621,1.046,6.432,3.557,7.976,6.707
			c0.001,0.001,0.001,0.002,0.002,0.004c1.358,2.773,1.733,6.04,0.814,9.236c-0.174,0.604-0.396,1.207-0.662,1.792
			c-0.001,0.003-0.002,0.007-0.003,0.01c-0.996,2.186-2.585,4.043-4.595,5.373c-1.04,0.688-1.325,2.088-0.637,3.128
			c0.434,0.656,1.153,1.012,1.885,1.012c0.428,0,0.86-0.121,1.243-0.375c2.721-1.8,4.872-4.317,6.219-7.28
			c0.004-0.008,0.005-0.016,0.008-0.024c0.352-0.778,0.65-1.583,0.882-2.39c0.949-3.3,0.871-6.655-0.038-9.727
			c2.632-0.301,5.319-0.081,7.894,0.662c7.99,2.307,13.65,9.225,14.492,17.328c-2.662-0.328-5.364-0.09-7.949,0.725
			c-1.189,0.375-1.849,1.643-1.474,2.832c0.375,1.189,1.643,1.849,2.832,1.474c2.695-0.85,5.559-0.884,8.282-0.098
			c7.618,2.199,12.03,10.199,9.834,17.832c-1.895,6.589-8.21,10.948-15.019,10.366c-0.668-0.059-1.326,0.185-1.798,0.662
			c-0.471,0.476-0.706,1.138-0.641,1.805c0.136,1.401,0.007,2.797-0.382,4.151c-0.821,2.854-2.702,5.218-5.297,6.654
			c-2.594,1.436-5.591,1.774-8.438,0.952c-1.866-0.539-3.532-1.543-4.87-2.923c0.261-2.989-0.396-6.019-1.902-8.641
			c-0.621-1.081-2.001-1.454-3.082-0.834c-1.081,0.621-1.454,2.001-0.833,3.082c1.171,2.039,1.607,4.431,1.232,6.74
			c-0.002,0.009-0.005,0.018-0.006,0.027c-0.069,0.419-0.155,0.805-0.263,1.178c-0.756,2.629-2.489,4.805-4.879,6.128
			c-2.389,1.322-5.148,1.633-7.77,0.877C171.447,203.039,168.408,199,168.402,194.472z"/>
		<path fill="#8C54A2" d="M95.431,136.856c0.418-0.419,0.659-1.001,0.661-1.594c0-0.596-0.242-1.177-0.665-1.599
			c-0.419-0.418-1.001-0.659-1.597-0.658c-0.596,0.001-1.177,0.243-1.595,0.662c-0.422,0.423-0.662,1.004-0.658,1.596
			c0.001,0.596,0.243,1.178,0.661,1.596c0.423,0.421,1.005,0.662,1.601,0.661C94.428,137.52,95.01,137.279,95.431,136.856z"/>
		<path fill="#8C54A2" d="M98.364,139.392c0.422,0.422,1.004,0.662,1.6,0.662c0.592-0.004,1.174-0.246,1.592-0.665
			c0.421-0.423,0.662-1.005,0.665-1.597c-0.004-0.592-0.246-1.174-0.668-1.595c-0.42-0.419-1.001-0.659-1.594-0.662
			c-0.595,0-1.177,0.243-1.599,0.665c-0.418,0.419-0.659,1.001-0.658,1.596C97.703,138.392,97.944,138.974,98.364,139.392z"/>
		<path fill="#8C54A2" d="M104.446,141.904c0.422,0.421,1.004,0.662,1.597,0.658c0.596-0.001,1.177-0.243,1.595-0.662
			c0.422-0.423,0.662-1.004,0.658-1.597c0.003-0.592-0.239-1.174-0.661-1.596c-0.419-0.418-1.001-0.659-1.598-0.658
			c-0.592-0.003-1.173,0.239-1.595,0.662c-0.418,0.419-0.659,1.001-0.658,1.597C103.786,140.905,104.027,141.485,104.446,141.904z"
			/>
		<path fill="#8C54A2" d="M250.378,141.436c0.421,0.416,1.005,0.653,1.6,0.65c0.592-0.001,1.173-0.245,1.592-0.67
			c0.416-0.421,0.653-1.005,0.65-1.6c-0.004-0.596-0.249-1.176-0.67-1.592c-0.425-0.419-1.008-0.657-1.604-0.653
			c-0.592,0.007-1.172,0.252-1.588,0.673c-0.419,0.425-0.657,1.008-0.653,1.597C249.708,140.436,249.953,141.017,250.378,141.436z"
			/>
		<path fill="#8C54A2" d="M256.611,138.806c0.421,0.416,1.005,0.653,1.6,0.65c0.596-0.004,1.176-0.249,1.592-0.67
			c0.419-0.424,0.657-1.008,0.653-1.603c-0.007-0.593-0.252-1.173-0.674-1.589c-0.425-0.42-1.008-0.657-1.597-0.653
			c-0.596,0.003-1.176,0.248-1.595,0.674c-0.416,0.421-0.653,1.004-0.65,1.6C255.941,137.807,256.186,138.387,256.611,138.806z"/>
		<path fill="#8C54A2" d="M262.911,136.145c0.425,0.419,1.008,0.657,1.604,0.653c0.592-0.008,1.173-0.252,1.588-0.674
			c0.419-0.425,0.657-1.008,0.653-1.597c-0.004-0.596-0.249-1.176-0.673-1.596c-0.421-0.416-1.005-0.653-1.601-0.649
			c-0.589,0.004-1.169,0.249-1.588,0.673c-0.416,0.422-0.653,1.004-0.653,1.598C262.245,135.149,262.49,135.729,262.911,136.145z"/>
	</g>
</g>
</svg>
