<?xml version="1.0" encoding="utf-8"?>
<!-- Generator: Adobe Illustrator 19.1.0, SVG Export Plug-In . SVG Version: 6.00 Build 0)  -->
<!DOCTYPE svg PUBLIC "-//W3C//DTD SVG 1.1//EN" "http://www.w3.org/Graphics/SVG/1.1/DTD/svg11.dtd">
<svg version="1.1" id="Layer_1" xmlns="http://www.w3.org/2000/svg" xmlns:xlink="http://www.w3.org/1999/xlink" x="0px" y="0px"
	 viewBox="0 0 360 360" enable-background="new 0 0 360 360" xml:space="preserve">
<g>
	<g>
		<path fill-rule="evenodd" clip-rule="evenodd" fill="#EEEEEE" d="M180,358.5C81.575,358.5,1.5,278.425,1.5,180
			C1.5,81.575,81.575,1.5,180,1.5S358.5,81.575,358.5,180C358.5,278.425,278.425,358.5,180,358.5z"/>
		<path fill="#FF8A3C" d="M180,3c47.278,0,91.727,18.411,125.158,51.842S357,132.722,357,180s-18.411,91.727-51.842,125.158
			S227.278,357,180,357c-47.278,0-91.727-18.411-125.158-51.842C21.411,271.727,3,227.278,3,180S21.411,88.273,54.842,54.842
			C88.273,21.411,132.722,3,180,3 M180,0C80.589,0,0,80.589,0,180s80.589,180,180,180s180-80.589,180-180S279.411,0,180,0L180,0z"/>
	</g>
	<path fill-rule="evenodd" clip-rule="evenodd" fill="#FFFFFF" d="M180,20c88.366,0,160,71.634,160,160s-71.634,160-160,160
		S20,268.366,20,180S91.635,20,180,20z"/>
	<g>
		<path fill="#FF8A3C" d="M273.085,92.756c0-5.288-4.302-9.589-9.589-9.589H96.505c-5.288,0-9.589,4.302-9.589,9.589V180v0l0,0
			v87.244c0,5.288,4.302,9.589,9.589,9.589h166.99c5.288,0,9.589-4.302,9.589-9.589V180l0,0v0V92.756z M91.396,92.756
			c0-2.817,2.292-5.109,5.109-5.109h166.99c2.817,0,5.109,2.292,5.109,5.109v85.004h-6.271v-81.6c0-1.237-1.003-2.24-2.24-2.24
			H99.908c-1.237,0-2.24,1.003-2.24,2.24v81.6h-6.271V92.756z M257.852,177.76H102.148V98.4h155.704V177.76z M263.495,272.352
			H96.505c-2.817,0-5.109-2.292-5.109-5.108v-85.004h177.208v85.004C268.604,270.061,266.312,272.352,263.495,272.352z"/>
		<path fill="#FF8A3C" d="M105.051,195.803h7.904c1.237,0,2.24-1.003,2.24-2.24c0-1.237-1.003-2.24-2.24-2.24h-7.904
			c-1.237,0-2.24,1.003-2.24,2.24C102.81,194.8,103.813,195.803,105.051,195.803z"/>
		<path fill="#FF8A3C" d="M128.732,191.322h-7.904c-1.237,0-2.24,1.003-2.24,2.24c0,1.237,1.003,2.24,2.24,2.24h7.904
			c1.237,0,2.24-1.003,2.24-2.24C130.972,192.325,129.969,191.322,128.732,191.322z"/>
		<path fill="#FF8A3C" d="M144.508,191.322h-7.904c-1.237,0-2.24,1.003-2.24,2.24c0,1.237,1.003,2.24,2.24,2.24h7.904
			c1.237,0,2.24-1.003,2.24-2.24C146.749,192.325,145.746,191.322,144.508,191.322z"/>
		<path fill="#FF8A3C" d="M152.382,195.803h7.903c1.237,0,2.24-1.003,2.24-2.24c0-1.237-1.003-2.24-2.24-2.24h-7.903
			c-1.237,0-2.24,1.003-2.24,2.24C150.142,194.8,151.145,195.803,152.382,195.803z"/>
		<path fill="#FF8A3C" d="M168.16,195.803h7.903c1.237,0,2.24-1.003,2.24-2.24c0-1.237-1.003-2.24-2.24-2.24h-7.903
			c-1.237,0-2.24,1.003-2.24,2.24C165.92,194.8,166.923,195.803,168.16,195.803z"/>
		<path fill="#FF8A3C" d="M183.937,195.803h7.903c1.237,0,2.24-1.003,2.24-2.24c0-1.237-1.003-2.24-2.24-2.24h-7.903
			c-1.237,0-2.24,1.003-2.24,2.24C181.696,194.8,182.699,195.803,183.937,195.803z"/>
		<path fill="#FF8A3C" d="M199.714,195.803h7.904c1.237,0,2.24-1.003,2.24-2.24c0-1.237-1.003-2.24-2.24-2.24h-7.904
			c-1.237,0-2.24,1.003-2.24,2.24C197.474,194.8,198.477,195.803,199.714,195.803z"/>
		<path fill="#FF8A3C" d="M223.395,191.322h-7.904c-1.237,0-2.24,1.003-2.24,2.24c0,1.237,1.003,2.24,2.24,2.24h7.904
			c1.237,0,2.24-1.003,2.24-2.24C225.635,192.325,224.632,191.322,223.395,191.322z"/>
		<path fill="#FF8A3C" d="M231.269,195.803h7.904c1.237,0,2.24-1.003,2.24-2.24c0-1.237-1.003-2.24-2.24-2.24h-7.904
			c-1.237,0-2.24,1.003-2.24,2.24C229.028,194.8,230.031,195.803,231.269,195.803z"/>
		<path fill="#FF8A3C" d="M254.95,191.322h-7.904c-1.237,0-2.24,1.003-2.24,2.24c0,1.237,1.003,2.24,2.24,2.24h7.904
			c1.237,0,2.24-1.003,2.24-2.24C257.19,192.325,256.187,191.322,254.95,191.322z"/>
		<path fill="#FF8A3C" d="M112.954,232.647h-7.904c-1.237,0-2.24,1.003-2.24,2.24c0,1.237,1.003,2.24,2.24,2.24h7.904
			c1.237,0,2.24-1.003,2.24-2.24C115.195,233.65,114.192,232.647,112.954,232.647z"/>
		<path fill="#FF8A3C" d="M128.732,232.647h-7.904c-1.237,0-2.24,1.003-2.24,2.24c0,1.237,1.003,2.24,2.24,2.24h7.904
			c1.237,0,2.24-1.003,2.24-2.24C130.972,233.65,129.969,232.647,128.732,232.647z"/>
		<path fill="#FF8A3C" d="M144.508,232.647h-7.904c-1.237,0-2.24,1.003-2.24,2.24c0,1.237,1.003,2.24,2.24,2.24h7.904
			c1.237,0,2.24-1.003,2.24-2.24C146.749,233.65,145.746,232.647,144.508,232.647z"/>
		<path fill="#FF8A3C" d="M223.395,232.647h-7.904c-1.237,0-2.24,1.003-2.24,2.24c0,1.237,1.003,2.24,2.24,2.24h7.904
			c1.237,0,2.24-1.003,2.24-2.24C225.635,233.65,224.632,232.647,223.395,232.647z"/>
		<path fill="#FF8A3C" d="M239.172,232.647h-7.904c-1.237,0-2.24,1.003-2.24,2.24c0,1.237,1.003,2.24,2.24,2.24h7.904
			c1.237,0,2.24-1.003,2.24-2.24C241.413,233.65,240.41,232.647,239.172,232.647z"/>
		<path fill="#FF8A3C" d="M254.95,232.647h-7.904c-1.237,0-2.24,1.003-2.24,2.24c0,1.237,1.003,2.24,2.24,2.24h7.904
			c1.237,0,2.24-1.003,2.24-2.24C257.19,233.65,256.187,232.647,254.95,232.647z"/>
		<path fill="#FF8A3C" d="M152.382,237.127h55.236c1.237,0,2.24-1.003,2.24-2.24c0-1.237-1.003-2.24-2.24-2.24h-55.236
			c-1.237,0-2.24,1.003-2.24,2.24C150.142,236.124,151.145,237.127,152.382,237.127z"/>
		<path fill="#FF8A3C" d="M105.051,206.134h7.904c1.237,0,2.24-1.003,2.24-2.24c0-1.237-1.003-2.24-2.24-2.24h-7.904
			c-1.237,0-2.24,1.003-2.24,2.24C102.81,205.131,103.813,206.134,105.051,206.134z"/>
		<path fill="#FF8A3C" d="M128.732,201.653h-7.904c-1.237,0-2.24,1.003-2.24,2.24c0,1.237,1.003,2.24,2.24,2.24h7.904
			c1.237,0,2.24-1.003,2.24-2.24C130.972,202.656,129.969,201.653,128.732,201.653z"/>
		<path fill="#FF8A3C" d="M144.508,201.653h-7.904c-1.237,0-2.24,1.003-2.24,2.24c0,1.237,1.003,2.24,2.24,2.24h7.904
			c1.237,0,2.24-1.003,2.24-2.24C146.749,202.656,145.746,201.653,144.508,201.653z"/>
		<path fill="#FF8A3C" d="M152.382,206.134h7.903c1.237,0,2.24-1.003,2.24-2.24c0-1.237-1.003-2.24-2.24-2.24h-7.903
			c-1.237,0-2.24,1.003-2.24,2.24C150.142,205.131,151.145,206.134,152.382,206.134z"/>
		<path fill="#FF8A3C" d="M168.16,206.134h7.903c1.237,0,2.24-1.003,2.24-2.24c0-1.237-1.003-2.24-2.24-2.24h-7.903
			c-1.237,0-2.24,1.003-2.24,2.24C165.92,205.131,166.923,206.134,168.16,206.134z"/>
		<path fill="#FF8A3C" d="M183.937,206.134h7.903c1.237,0,2.24-1.003,2.24-2.24c0-1.237-1.003-2.24-2.24-2.24h-7.903
			c-1.237,0-2.24,1.003-2.24,2.24C181.696,205.131,182.699,206.134,183.937,206.134z"/>
		<path fill="#FF8A3C" d="M199.714,206.134h7.904c1.237,0,2.24-1.003,2.24-2.24c0-1.237-1.003-2.24-2.24-2.24h-7.904
			c-1.237,0-2.24,1.003-2.24,2.24C197.474,205.131,198.477,206.134,199.714,206.134z"/>
		<path fill="#FF8A3C" d="M223.395,201.653h-7.904c-1.237,0-2.24,1.003-2.24,2.24c0,1.237,1.003,2.24,2.24,2.24h7.904
			c1.237,0,2.24-1.003,2.24-2.24C225.635,202.656,224.632,201.653,223.395,201.653z"/>
		<path fill="#FF8A3C" d="M254.95,201.653h-23.681c-1.237,0-2.24,1.003-2.24,2.24c0,1.237,1.003,2.24,2.24,2.24h23.681
			c1.237,0,2.24-1.003,2.24-2.24C257.19,202.656,256.187,201.653,254.95,201.653z"/>
		<path fill="#FF8A3C" d="M144.508,222.316h-7.904c-1.237,0-2.24,1.003-2.24,2.24c0,1.237,1.003,2.24,2.24,2.24h7.904
			c1.237,0,2.24-1.003,2.24-2.24C146.749,223.319,145.746,222.316,144.508,222.316z"/>
		<path fill="#FF8A3C" d="M152.382,226.797h7.903c1.237,0,2.24-1.003,2.24-2.24c0-1.237-1.003-2.24-2.24-2.24h-7.903
			c-1.237,0-2.24,1.003-2.24,2.24C150.142,225.794,151.145,226.797,152.382,226.797z"/>
		<path fill="#FF8A3C" d="M176.063,226.797c1.237,0,2.24-1.003,2.24-2.24c0-1.237-1.003-2.24-2.24-2.24h-7.903
			c-1.237,0-2.24,1.003-2.24,2.24c0,1.237,1.003,2.24,2.24,2.24H176.063z"/>
		<path fill="#FF8A3C" d="M183.937,226.797h7.903c1.237,0,2.24-1.003,2.24-2.24c0-1.237-1.003-2.24-2.24-2.24h-7.903
			c-1.237,0-2.24,1.003-2.24,2.24C181.696,225.794,182.699,226.797,183.937,226.797z"/>
		<path fill="#FF8A3C" d="M199.714,226.797h7.904c1.237,0,2.24-1.003,2.24-2.24c0-1.237-1.003-2.24-2.24-2.24h-7.904
			c-1.237,0-2.24,1.003-2.24,2.24C197.474,225.794,198.477,226.797,199.714,226.797z"/>
		<path fill="#FF8A3C" d="M223.395,222.316h-7.904c-1.237,0-2.24,1.003-2.24,2.24c0,1.237,1.003,2.24,2.24,2.24h7.904
			c1.237,0,2.24-1.003,2.24-2.24C225.635,223.319,224.632,222.316,223.395,222.316z"/>
		<path fill="#FF8A3C" d="M254.95,222.316h-23.681c-1.237,0-2.24,1.003-2.24,2.24c0,1.237,1.003,2.24,2.24,2.24h23.681
			c1.237,0,2.24-1.003,2.24-2.24C257.19,223.319,256.187,222.316,254.95,222.316z"/>
		<path fill="#FF8A3C" d="M105.05,226.797h23.681c1.237,0,2.24-1.003,2.24-2.24c0-1.237-1.003-2.24-2.24-2.24H105.05
			c-1.237,0-2.24,1.003-2.24,2.24C102.81,225.794,103.813,226.797,105.05,226.797z"/>
		<path fill="#FF8A3C" d="M254.949,216.465c1.237,0,2.24-1.003,2.24-2.24c0-1.237-1.003-2.24-2.24-2.24h-7.904
			c-1.237,0-2.24,1.003-2.24,2.24c0,1.237,1.003,2.24,2.24,2.24H254.949z"/>
		<path fill="#FF8A3C" d="M231.268,216.465h7.904c1.237,0,2.24-1.003,2.24-2.24c0-1.237-1.003-2.24-2.24-2.24h-7.904
			c-1.237,0-2.24,1.003-2.24,2.24C229.028,215.462,230.031,216.465,231.268,216.465z"/>
		<path fill="#FF8A3C" d="M223.395,211.984h-7.904c-1.237,0-2.24,1.003-2.24,2.24c0,1.237,1.003,2.24,2.24,2.24h7.904
			c1.237,0,2.24-1.003,2.24-2.24C225.635,212.987,224.632,211.984,223.395,211.984z"/>
		<path fill="#FF8A3C" d="M199.714,216.465h7.903c1.237,0,2.24-1.003,2.24-2.24c0-1.237-1.003-2.24-2.24-2.24h-7.903
			c-1.237,0-2.24,1.003-2.24,2.24C197.474,215.462,198.477,216.465,199.714,216.465z"/>
		<path fill="#FF8A3C" d="M183.937,216.465h7.903c1.237,0,2.24-1.003,2.24-2.24c0-1.237-1.003-2.24-2.24-2.24h-7.903
			c-1.237,0-2.24,1.003-2.24,2.24C181.696,215.462,182.699,216.465,183.937,216.465z"/>
		<path fill="#FF8A3C" d="M168.159,216.465h7.903c1.237,0,2.24-1.003,2.24-2.24c0-1.237-1.003-2.24-2.24-2.24h-7.903
			c-1.237,0-2.24,1.003-2.24,2.24C165.919,215.462,166.922,216.465,168.159,216.465z"/>
		<path fill="#FF8A3C" d="M152.382,216.465h7.903c1.237,0,2.24-1.003,2.24-2.24c0-1.237-1.003-2.24-2.24-2.24h-7.903
			c-1.237,0-2.24,1.003-2.24,2.24C150.142,215.462,151.145,216.465,152.382,216.465z"/>
		<path fill="#FF8A3C" d="M144.508,211.984h-7.904c-1.237,0-2.24,1.003-2.24,2.24c0,1.237,1.003,2.24,2.24,2.24h7.904
			c1.237,0,2.24-1.003,2.24-2.24C146.749,212.987,145.746,211.984,144.508,211.984z"/>
		<path fill="#FF8A3C" d="M105.05,216.465h23.681c1.237,0,2.24-1.003,2.24-2.24c0-1.237-1.003-2.24-2.24-2.24H105.05
			c-1.237,0-2.24,1.003-2.24,2.24C102.81,215.462,103.813,216.465,105.05,216.465z"/>
		<path fill="#FF8A3C" d="M207.874,242.978h-55.747c-1.237,0-2.24,1.003-2.24,2.24v19.044c0,1.237,1.003,2.24,2.24,2.24h55.747
			c1.237,0,2.24-1.003,2.24-2.24v-19.044C210.114,243.981,209.111,242.978,207.874,242.978z M205.633,262.021h-51.266v-14.563
			h51.266V262.021z"/>
		<path fill="#FF8A3C" d="M119.362,141.697l10.806,5.13c0.321,0.161,0.673,0.289,1.026,0.289c1.186,0.032,2.116-0.802,2.116-1.988
			c0-0.898-0.513-1.636-1.347-2.02l-9.684-4.329l9.684-4.329c0.834-0.385,1.347-1.026,1.347-1.956c0-1.155-0.93-2.052-1.956-2.02
			c-0.449,0-0.801,0.128-1.187,0.32l-10.806,5.131c-1.219,0.577-1.956,1.475-1.956,2.726v0.321
			C117.406,140.222,118.144,141.12,119.362,141.697z"/>
		<path fill="#FF8A3C" d="M137.042,154.667c0.759-0.127,1.264-0.603,1.49-1.388l8.028-27.912c0.058-0.238,0.126-0.606,0.068-0.954
			c-0.159-0.949-1.156-1.659-2.168-1.489c-0.759,0.127-1.265,0.602-1.49,1.388l-8.027,27.911c-0.058,0.238-0.126,0.607-0.067,0.954
			C135.033,154.126,136.03,154.837,137.042,154.667z"/>
		<path fill="#FF8A3C" d="M156.208,147.243c2.401,0,4.176-0.642,5.755-2.08c0.362-0.334,0.546-0.729,0.546-1.174
			c0-0.889-0.683-1.586-1.554-1.586c-0.511,0-0.907,0.267-1.006,0.342c-1.113,0.882-2.23,1.294-3.515,1.294
			c-2.815,0-4.859-2.205-4.859-5.243v-0.064c0-2.904,2.05-5.179,4.666-5.179c1.273,0,2.275,0.357,3.352,1.195
			c0.18,0.14,0.563,0.376,1.105,0.376c0.945,0,1.714-0.755,1.714-1.683c0-0.773-0.485-1.201-0.592-1.287
			c-1.46-1.232-3.222-1.806-5.547-1.806c-4.853,0-8.512,3.632-8.512,8.448v0.064C147.759,143.639,151.392,147.243,156.208,147.243z"
			/>
		<path fill="#FF8A3C" d="M174.114,147.243c4.953,0,8.833-3.711,8.833-8.448v-0.064c0-4.78-3.77-8.384-8.769-8.384
			c-4.953,0-8.833,3.711-8.833,8.448v0.064C165.345,143.639,169.115,147.243,174.114,147.243z M169.159,138.731
			c0-3.001,2.084-5.179,4.955-5.179c2.814,0,5.019,2.303,5.019,5.243v0.064c0,3.001-2.084,5.179-4.955,5.179
			c-2.814,0-5.019-2.303-5.019-5.243V138.731z"/>
		<path fill="#FF8A3C" d="M193.594,147.179c2.074,0,3.648-0.822,4.954-2.588l0.898-1.214v1.734c0,1.069,0.87,1.939,1.939,1.939
			c1.069,0,1.939-0.87,1.939-1.939v-18.919c0-1.069-0.87-1.939-1.939-1.939c-1.069,0-1.939,0.87-1.939,1.939v7.591l-0.88-1.051
			c-1.363-1.628-2.943-2.387-4.973-2.387c-3.529,0-7.326,2.624-7.326,8.384v0.064C186.268,142.962,188.785,147.179,193.594,147.179z
			 M190.147,138.731c0-2.989,2.02-5.243,4.698-5.243c2.66,0,4.666,2.254,4.666,5.243v0.064c0,2.989-2.006,5.243-4.666,5.243
			c-2.678,0-4.698-2.254-4.698-5.243V138.731z"/>
		<path fill="#FF8A3C" d="M216.003,147.243c2.211,0,4.109-0.661,5.629-1.955c0.218-0.198,0.478-0.546,0.478-1.074
			c0-0.826-0.586-1.426-1.394-1.426c-0.417,0-0.635,0.102-0.889,0.287c-1.136,0.843-2.366,1.252-3.76,1.252
			c-2.46,0-4.168-1.37-4.687-3.759l-0.132-0.604h10.27c1.047,0,1.778-0.758,1.778-1.843c0-3.006-2.111-7.775-7.775-7.775
			c-4.56,0-7.999,3.632-7.999,8.448v0.064C207.522,143.796,211.009,147.243,216.003,147.243z M211.311,137.331
			c0.443-2.547,2.017-4.068,4.21-4.068c2.206,0,3.784,1.567,4.117,4.088l0.074,0.563h-8.503L211.311,137.331z"/>
		<path fill="#FF8A3C" d="M226.689,145.096c0,1.154,0.93,2.052,1.956,2.02c0.448,0,0.801-0.128,1.186-0.32l10.807-5.131
			c1.218-0.577,1.956-1.475,1.956-2.726v-0.321c0-1.251-0.738-2.148-1.956-2.726l-10.807-5.13c-0.32-0.161-0.673-0.289-1.026-0.289
			c-1.187-0.032-2.116,0.801-2.116,1.988c0,0.898,0.513,1.636,1.347,2.02l9.684,4.329l-9.684,4.329
			C227.202,143.525,226.689,144.166,226.689,145.096z"/>
	</g>
</g>
</svg>
