<?xml version="1.0" encoding="utf-8"?>
<!-- Generator: Adobe Illustrator 19.1.0, SVG Export Plug-In . SVG Version: 6.00 Build 0)  -->
<!DOCTYPE svg PUBLIC "-//W3C//DTD SVG 1.1//EN" "http://www.w3.org/Graphics/SVG/1.1/DTD/svg11.dtd">
<svg version="1.1" id="Layer_1" xmlns="http://www.w3.org/2000/svg" xmlns:xlink="http://www.w3.org/1999/xlink" x="0px" y="0px"
	 viewBox="0 0 360 360" enable-background="new 0 0 360 360" xml:space="preserve">
<g>
	<g>
		<path fill-rule="evenodd" clip-rule="evenodd" fill="#EEEEEE" d="M180,358.5C81.575,358.5,1.5,278.425,1.5,180
			C1.5,81.575,81.575,1.5,180,1.5S358.5,81.575,358.5,180C358.5,278.425,278.425,358.5,180,358.5z"/>
		<path fill="#64BE47" d="M180,3c47.278,0,91.727,18.411,125.158,51.842C338.589,88.273,357,132.722,357,180
			s-18.411,91.727-51.842,125.158C271.727,338.589,227.278,357,180,357s-91.727-18.411-125.158-51.842
			C21.411,271.727,3,227.278,3,180S21.411,88.273,54.842,54.842C88.273,21.411,132.722,3,180,3 M180,0C80.589,0,0,80.589,0,180
			s80.589,180,180,180s180-80.589,180-180S279.411,0,180,0L180,0z"/>
	</g>
	<path fill-rule="evenodd" clip-rule="evenodd" fill="#FFFFFF" d="M180,20c88.366,0,160,71.635,160,160s-71.634,160-160,160
		S20,268.366,20,180S91.635,20,180,20z"/>
	<g>
		<path fill="#64BE47" d="M161.921,127.119c-0.001,0.001-0.002,0.001-0.003,0.001c-9.378,3.516-17.695,9.5-24.053,17.303
			c-8.203,10.069-12.72,22.777-12.72,35.784c0,12.976,4.495,25.652,12.66,35.703c0.021,0.028,0.042,0.055,0.064,0.082
			c6.36,7.807,14.678,13.791,24.052,17.305c6.358,2.388,13.057,3.598,19.912,3.598c6.854,0,13.554-1.21,19.91-3.598
			c9.382-3.517,17.7-9.503,24.053-17.308c0.007-0.009,0.014-0.018,0.021-0.026c0.005-0.007,0.011-0.014,0.016-0.021
			c8.181-10.056,12.687-22.744,12.687-35.734c0-13.007-4.517-25.715-12.72-35.784c-6.359-7.805-14.677-13.788-24.054-17.303
			c-0.001,0-0.001,0-0.002-0.001h0c-6.357-2.388-13.057-3.599-19.912-3.599c-6.855,0-13.554,1.211-19.91,3.598
			C161.922,127.119,161.921,127.119,161.921,127.119z M179.571,128.095v22.856c-7.205-0.131-14.392-0.89-21.419-2.277
			c1.613-6.011,3.709-11.925,6.24-17.627C169.272,129.313,174.363,128.316,179.571,128.095z M199.274,131.047
			c2.531,5.702,4.626,11.616,6.24,17.627c-7.027,1.387-14.214,2.146-21.419,2.277v-22.856
			C189.302,128.316,194.392,129.312,199.274,131.047z M223.265,148.529c6.468,8.458,10.215,18.77,10.68,29.417h-19.787
			c-0.155-8.731-1.206-17.401-3.131-25.837C215.172,151.124,219.272,149.923,223.265,148.529z M223.261,211.884
			c-4.013-1.399-8.112-2.598-12.233-3.578c1.926-8.436,2.976-17.106,3.131-25.837h19.787
			C233.481,193.118,229.732,203.429,223.261,211.884z M199.274,229.37c-4.881,1.733-9.971,2.73-15.179,2.951v-22.856
			c7.205,0.131,14.392,0.89,21.419,2.278C203.901,217.748,201.806,223.662,199.274,229.37z M164.391,229.37
			c-2.532-5.708-4.627-11.621-6.24-17.627c7.027-1.387,14.214-2.146,21.419-2.278v22.856
			C174.363,232.1,169.273,231.104,164.391,229.37z M140.404,211.884c-6.471-8.454-10.219-18.766-10.685-29.415h19.787
			c0.155,8.731,1.206,17.401,3.131,25.837C148.513,209.287,144.414,210.486,140.404,211.884z M140.4,148.529
			c3.998,1.395,8.098,2.595,12.237,3.58c-1.925,8.436-2.976,17.106-3.131,25.837h-19.787
			C130.185,167.3,133.932,156.987,140.4,148.529z M206.596,153.07c1.857,8.121,2.873,16.468,3.028,24.876h-25.529v-22.459
			C191.668,155.352,199.215,154.541,206.596,153.07z M184.094,204.942V182.47h25.529c-0.155,8.409-1.17,16.755-3.028,24.878
			C199.215,205.877,191.664,205.076,184.094,204.942z M157.07,207.347c-1.857-8.122-2.873-16.469-3.028-24.878h25.529v22.473
			C172.001,205.076,164.45,205.877,157.07,207.347z M179.571,177.946h-25.529c0.155-8.408,1.171-16.754,3.028-24.877
			c7.38,1.472,14.928,2.282,22.501,2.417V177.946z M158.402,133.597c-1.84,4.613-3.402,9.339-4.676,14.122
			c-3.443-0.818-6.858-1.792-10.207-2.907C147.779,140.203,152.827,136.404,158.402,133.597z M143.522,215.602
			c3.357-1.116,6.771-2.09,10.204-2.905c1.274,4.779,2.836,9.506,4.677,14.123C152.829,224.013,147.783,220.213,143.522,215.602z
			 M205.262,226.821c1.842-4.617,3.404-9.344,4.677-14.124c3.431,0.814,6.845,1.787,10.204,2.905
			C215.886,220.212,210.839,224.012,205.262,226.821z M220.146,144.812c-3.345,1.114-6.76,2.088-10.207,2.907
			c-1.275-4.783-2.836-9.509-4.676-14.123C210.838,136.404,215.886,140.203,220.146,144.812z"/>
		<path fill="#64BE47" d="M114.3,160.673l-0.142,0.498c-0.339,1.202,0.362,2.452,1.564,2.79c0.205,0.058,0.411,0.085,0.614,0.085
			c0.988,0,1.895-0.652,2.176-1.649l0.134-0.469c0.347-1.2-0.345-2.454-1.545-2.801C115.901,158.781,114.647,159.473,114.3,160.673z
			"/>
		<path fill="#64BE47" d="M126.214,137.195l-0.316,0.412c-0.757,0.994-0.565,2.413,0.429,3.17c0.41,0.312,0.891,0.463,1.369,0.463
			c0.682,0,1.356-0.307,1.801-0.892l0.296-0.385c0.764-0.988,0.582-2.409-0.406-3.173
			C128.398,136.025,126.978,136.206,126.214,137.195z"/>
		<path fill="#64BE47" d="M170.687,110.777l-0.509,0.083c-1.232,0.205-2.065,1.37-1.86,2.603c0.184,1.107,1.143,1.891,2.228,1.891
			c0.123,0,0.248-0.01,0.374-0.031l0.482-0.079c1.234-0.198,2.073-1.358,1.876-2.591C173.08,111.42,171.92,110.581,170.687,110.777z
			"/>
		<path fill="#64BE47" d="M112.382,169.284l-0.079,0.514c-0.185,1.235,0.666,2.387,1.901,2.573c0.114,0.017,0.227,0.025,0.339,0.025
			c1.101,0,2.066-0.805,2.234-1.926l0.074-0.481c0.195-1.234-0.648-2.392-1.882-2.587
			C113.734,167.207,112.577,168.05,112.382,169.284z"/>
		<path fill="#64BE47" d="M204.996,113.81c-1.179-0.413-2.469,0.21-2.881,1.389c-0.412,1.179,0.21,2.469,1.389,2.881l0.457,0.162
			c0.252,0.09,0.509,0.133,0.762,0.133c0.928,0,1.799-0.576,2.13-1.5c0.421-1.176-0.191-2.471-1.367-2.892L204.996,113.81z"/>
		<path fill="#64BE47" d="M117.074,152.846c-0.486,1.151,0.053,2.478,1.204,2.964c0.287,0.121,0.585,0.178,0.879,0.178
			c0.882,0,1.72-0.519,2.085-1.383l0.19-0.446c0.495-1.147-0.034-2.478-1.181-2.973c-1.147-0.494-2.478,0.034-2.973,1.181
			L117.074,152.846z"/>
		<path fill="#64BE47" d="M162.079,112.716l-0.499,0.148c-1.196,0.36-1.874,1.622-1.513,2.818c0.295,0.979,1.193,1.61,2.165,1.61
			c0.216,0,0.436-0.031,0.653-0.097l0.465-0.138c1.199-0.351,1.886-1.608,1.535-2.806
			C164.534,113.051,163.277,112.363,162.079,112.716z"/>
		<path fill="#64BE47" d="M121.267,144.502l-0.261,0.448c-0.626,1.081-0.257,2.465,0.825,3.091c0.357,0.207,0.746,0.305,1.131,0.305
			c0.781,0,1.54-0.405,1.96-1.129l0.245-0.42c0.633-1.077,0.274-2.463-0.802-3.097C123.287,143.066,121.901,143.425,121.267,144.502
			z"/>
		<path fill="#64BE47" d="M114.139,189.436c0.077,0,0.156-0.004,0.235-0.012c1.243-0.128,2.146-1.239,2.018-2.482l-0.048-0.482
			c-0.118-1.244-1.219-2.156-2.465-2.038c-1.244,0.118-2.156,1.222-2.038,2.465l0.051,0.519
			C112.012,188.569,112.994,189.436,114.139,189.436z"/>
		<path fill="#64BE47" d="M113.342,196.1c0.243,1.044,1.173,1.75,2.201,1.75c0.17,0,0.342-0.019,0.514-0.059
			c1.217-0.283,1.974-1.499,1.691-2.715l-0.108-0.471c-0.274-1.219-1.483-1.986-2.702-1.712c-1.219,0.273-1.985,1.483-1.712,2.702
			L113.342,196.1z"/>
		<path fill="#64BE47" d="M115.871,204.545c0.337,0.913,1.202,1.479,2.122,1.479c0.26,0,0.525-0.045,0.783-0.141
			c1.172-0.433,1.771-1.733,1.338-2.905l-0.166-0.456c-0.424-1.175-1.72-1.783-2.896-1.359c-1.175,0.424-1.783,1.721-1.359,2.896
			L115.871,204.545z"/>
		<path fill="#64BE47" d="M123.985,220.166c0.439,0.637,1.146,0.978,1.864,0.978c0.443,0,0.89-0.13,1.282-0.4
			c1.028-0.709,1.287-2.117,0.578-3.146l-0.276-0.404c-0.703-1.032-2.11-1.3-3.143-0.597c-1.033,0.703-1.3,2.11-0.597,3.143
			L123.985,220.166z"/>
		<path fill="#64BE47" d="M119.439,212.61c0.403,0.775,1.192,1.219,2.009,1.219c0.351,0,0.708-0.082,1.041-0.255
			c1.108-0.576,1.54-1.942,0.964-3.05l-0.222-0.43c-0.568-1.113-1.93-1.555-3.042-0.988c-1.113,0.567-1.555,1.93-0.988,3.042
			L119.439,212.61z"/>
		<path fill="#64BE47" d="M145.487,120.013c-1.069,0.646-1.412,2.037-0.766,3.106c0.425,0.703,1.172,1.092,1.938,1.092
			c0.398,0,0.802-0.105,1.168-0.326l0.42-0.252c1.073-0.64,1.423-2.029,0.783-3.101c-0.64-1.073-2.029-1.423-3.101-0.783
			L145.487,120.013z"/>
		<path fill="#64BE47" d="M153.785,115.722l-0.477,0.21c-1.142,0.507-1.656,1.844-1.149,2.985c0.375,0.843,1.202,1.344,2.068,1.344
			c0.307,0,0.619-0.063,0.917-0.195l0.443-0.195c1.146-0.498,1.671-1.83,1.173-2.976
			C156.263,115.749,154.93,115.224,153.785,115.722z"/>
		<path fill="#64BE47" d="M178.953,109.957c-1.248,0.05-2.22,1.101-2.171,2.35c0.048,1.218,1.051,2.172,2.259,2.172
			c0.03,0,0.061-0.001,0.091-0.002l0.489-0.018c1.248-0.042,2.227-1.088,2.184-2.337c-0.042-1.248-1.087-2.217-2.337-2.184
			L178.953,109.957z"/>
		<path fill="#64BE47" d="M132.039,130.57l-0.364,0.368c-0.875,0.891-0.863,2.323,0.028,3.199c0.44,0.433,1.013,0.648,1.585,0.648
			c0.585,0,1.171-0.226,1.614-0.677l0.343-0.347c0.881-0.885,0.878-2.317-0.007-3.199
			C134.353,129.681,132.92,129.684,132.039,130.57z"/>
		<path fill="#64BE47" d="M129.301,223.517c-0.938,0.825-1.03,2.254-0.205,3.192l0.346,0.39c0.447,0.5,1.066,0.754,1.687,0.754
			c0.537,0,1.075-0.19,1.507-0.576c0.931-0.832,1.011-2.262,0.179-3.194l-0.321-0.362
			C131.668,222.784,130.239,222.693,129.301,223.517z"/>
		<path fill="#64BE47" d="M151.951,238.833c-1.113-0.566-2.475-0.122-3.041,0.992c-0.566,1.113-0.122,2.475,0.992,3.041l0.463,0.234
			c0.325,0.162,0.67,0.24,1.01,0.24c0.829,0,1.628-0.458,2.024-1.25c0.559-1.117,0.107-2.476-1.011-3.035L151.951,238.833z"/>
		<path fill="#64BE47" d="M135.13,229.765c-0.825,0.938-0.734,2.367,0.204,3.192l0.388,0.34c0.428,0.373,0.957,0.556,1.484,0.556
			c0.632,0,1.26-0.263,1.707-0.777c0.82-0.942,0.721-2.371-0.222-3.191l-0.369-0.323
			C137.384,228.736,135.955,228.827,135.13,229.765z"/>
		<path fill="#64BE47" d="M144.847,234.629c-1.033-0.703-2.44-0.436-3.143,0.597c-0.703,1.033-0.436,2.44,0.597,3.142l0.432,0.292
			c0.386,0.259,0.824,0.383,1.256,0.383c0.729,0,1.445-0.352,1.882-1.004c0.695-1.038,0.417-2.443-0.621-3.138L144.847,234.629z"/>
		<path fill="#64BE47" d="M220.763,121.654c-1.039-0.692-2.444-0.41-3.136,0.63c-0.692,1.04-0.41,2.444,0.63,3.136l0.403,0.27
			c0.388,0.263,0.829,0.389,1.266,0.389c0.726,0,1.438-0.348,1.875-0.994c0.7-1.035,0.429-2.441-0.606-3.141L220.763,121.654z"/>
		<path fill="#64BE47" d="M187.768,110.146c-1.243-0.104-2.338,0.82-2.443,2.065c-0.104,1.245,0.821,2.338,2.065,2.443l0.484,0.042
			c0.07,0.006,0.139,0.01,0.208,0.01c1.156,0,2.143-0.883,2.25-2.057c0.113-1.244-0.803-2.345-2.047-2.458L187.768,110.146z"/>
		<path fill="#64BE47" d="M159.535,242.114c-1.175-0.423-2.471,0.187-2.894,1.363c-0.423,1.176,0.188,2.471,1.363,2.894l0.486,0.173
			c0.249,0.088,0.503,0.13,0.752,0.13c0.932,0,1.805-0.581,2.133-1.51c0.416-1.178-0.202-2.47-1.381-2.886L159.535,242.114z"/>
		<path fill="#64BE47" d="M196.498,111.432c-1.222-0.261-2.423,0.52-2.683,1.742c-0.26,1.222,0.52,2.423,1.742,2.683l0.475,0.103
			c0.164,0.036,0.328,0.053,0.489,0.053c1.038,0,1.974-0.72,2.207-1.776c0.269-1.22-0.502-2.427-1.722-2.696L196.498,111.432z"/>
		<path fill="#64BE47" d="M111.556,178.07l-0.014,0.518c-0.029,1.249,0.959,2.285,2.208,2.314c0.018,0,0.036,0.001,0.054,0.001
			c1.224,0,2.231-0.978,2.26-2.209l0.013-0.488c0.037-1.249-0.944-2.291-2.193-2.329
			C112.626,175.838,111.593,176.822,111.556,178.07z"/>
		<path fill="#64BE47" d="M167.46,244.418c-1.219-0.269-2.428,0.498-2.699,1.717c-0.271,1.219,0.498,2.428,1.717,2.699l0.505,0.11
			c0.161,0.035,0.321,0.051,0.479,0.051c1.042,0,1.98-0.725,2.209-1.786c0.263-1.221-0.513-2.424-1.734-2.688L167.46,244.418z"/>
		<path fill="#64BE47" d="M213.127,117.234c-1.118-0.556-2.476-0.101-3.032,1.018c-0.556,1.118-0.101,2.476,1.018,3.032l0.43,0.216
			c0.329,0.167,0.679,0.247,1.024,0.247c0.824,0,1.618-0.452,2.017-1.236c0.567-1.113,0.124-2.475-0.99-3.042L213.127,117.234z"/>
		<path fill="#64BE47" d="M138.237,125.044c-0.979,0.775-1.145,2.198-0.369,3.177c0.446,0.564,1.107,0.858,1.775,0.858
			c0.492,0,0.987-0.159,1.403-0.489l0.38-0.298c0.986-0.767,1.163-2.188,0.396-3.174c-0.767-0.986-2.188-1.163-3.174-0.396
			L138.237,125.044z"/>
		<path fill="#64BE47" d="M129.575,114.529l-0.404,0.324c-0.972,0.784-1.124,2.209-0.339,3.18c0.447,0.554,1.101,0.841,1.761,0.841
			c0.499,0,1.001-0.164,1.419-0.502l0.38-0.305c0.977-0.778,1.139-2.201,0.361-3.178
			C131.975,113.912,130.552,113.75,129.575,114.529z"/>
		<path fill="#64BE47" d="M152.361,101.608l-0.445,0.168c-1.167,0.445-1.752,1.753-1.307,2.92c0.344,0.902,1.203,1.456,2.114,1.456
			c0.268,0,0.54-0.048,0.806-0.149l0.456-0.172c1.17-0.438,1.744-1.733,1.307-2.903
			C154.854,101.757,153.531,101.171,152.361,101.608z"/>
		<path fill="#64BE47" d="M123.004,120.344l-0.37,0.366c-0.885,0.881-0.888,2.314-0.007,3.199c0.442,0.444,1.022,0.666,1.603,0.666
			c0.577,0,1.155-0.22,1.596-0.659l0.345-0.341c0.892-0.874,0.906-2.307,0.031-3.198
			C125.328,119.484,123.896,119.47,123.004,120.344z"/>
		<path fill="#64BE47" d="M186.125,100.914l0.485,0.027c0.046,0.003,0.092,0.004,0.138,0.004c1.187,0,2.183-0.925,2.256-2.126
			c0.075-1.247-0.875-2.319-2.122-2.393l-0.518-0.029c-1.252-0.071-2.312,0.892-2.378,2.139
			C183.92,99.784,184.877,100.848,186.125,100.914z"/>
		<path fill="#64BE47" d="M160.766,98.948l-0.496,0.13c-1.208,0.32-1.927,1.558-1.607,2.766c0.269,1.013,1.184,1.683,2.185,1.683
			c0.192,0,0.387-0.025,0.581-0.076l0.477-0.125c1.209-0.315,1.934-1.55,1.619-2.759C163.21,99.358,161.974,98.634,160.766,98.948z"
			/>
		<path fill="#64BE47" d="M144.354,105.097l-0.465,0.234c-1.114,0.565-1.558,1.927-0.993,3.041c0.399,0.786,1.194,1.238,2.018,1.238
			c0.344,0,0.694-0.079,1.022-0.246l0.433-0.218c1.118-0.557,1.573-1.915,1.017-3.033
			C146.83,104.995,145.472,104.54,144.354,105.097z"/>
		<path fill="#64BE47" d="M177.702,100.902c0.038,0,0.076-0.001,0.115-0.003l0.488-0.023c1.248-0.055,2.215-1.111,2.16-2.359
			c-0.055-1.248-1.107-2.21-2.359-2.16l-0.515,0.024c-1.248,0.062-2.209,1.124-2.146,2.372
			C175.505,99.963,176.504,100.902,177.702,100.902z"/>
		<path fill="#64BE47" d="M169.205,101.771c0.116,0,0.233-0.009,0.351-0.027l0.483-0.074c1.235-0.185,2.087-1.336,1.902-2.572
			c-0.185-1.235-1.335-2.088-2.572-1.902l-0.51,0.078c-1.234,0.192-2.079,1.349-1.887,2.583
			C167.147,100.973,168.109,101.771,169.205,101.771z"/>
		<path fill="#64BE47" d="M117.071,126.817l-0.328,0.4c-0.789,0.969-0.643,2.393,0.326,3.182c0.42,0.342,0.925,0.508,1.427,0.508
			c0.657,0,1.308-0.285,1.755-0.834l0.31-0.378c0.795-0.964,0.657-2.389-0.306-3.184
			C119.292,125.716,117.866,125.853,117.071,126.817z"/>
		<path fill="#64BE47" d="M136.717,109.427l-0.436,0.28c-1.049,0.679-1.348,2.079-0.669,3.128c0.433,0.669,1.159,1.033,1.901,1.033
			c0.421,0,0.847-0.118,1.227-0.363l0.41-0.263c1.053-0.672,1.362-2.07,0.691-3.123C139.168,109.065,137.77,108.755,136.717,109.427
			z"/>
		<path fill="#64BE47" d="M232.449,128.884c-3.268,0-5.927,2.659-5.927,5.927c0,3.268,2.659,5.927,5.927,5.927
			c0.627,0,1.231-0.1,1.799-0.281c8.625,11.375,13.37,25.459,13.37,39.751c0,15.1-5.246,29.849-14.772,41.533
			c-7.366,9.05-17.016,15.992-27.91,20.076c-5.693,2.139-11.655,3.461-17.73,3.952c-0.942-2.028-2.993-3.44-5.373-3.44
			c-3.268,0-5.927,2.659-5.927,5.927c0,3.268,2.659,5.927,5.927,5.927c2.552,0,4.725-1.624,5.559-3.889
			c6.556-0.513,12.992-1.933,19.134-4.24c11.643-4.365,21.958-11.784,29.828-21.455c10.182-12.487,15.789-28.252,15.789-44.39
			c0-15.354-5.124-30.483-14.434-42.674c0.425-0.816,0.668-1.741,0.668-2.723C238.377,131.543,235.718,128.884,232.449,128.884z"/>
		<path fill="#64BE47" d="M201.191,103.34c0,3.268,2.659,5.927,5.927,5.927c2.006,0,3.779-1.004,4.852-2.533
			c12.21,5.009,23.074,13.066,31.445,23.34c10.274,12.61,16.519,28.473,17.637,44.745c-2.047,0.935-3.476,2.997-3.476,5.39
			c0,3.268,2.659,5.927,5.927,5.927c3.268,0,5.928-2.659,5.928-5.927c0-2.538-1.607-4.702-3.854-5.545
			c-1.153-17.251-7.762-34.078-18.654-47.447c-8.986-11.029-20.689-19.647-33.845-24.921c-0.044-0.018-0.091-0.026-0.136-0.041
			c-0.512-2.751-2.926-4.841-5.823-4.841C203.85,97.413,201.191,100.071,201.191,103.34z"/>
		<path fill="#64BE47" d="M125.504,233.508c-0.758,0-1.48,0.148-2.146,0.408c-1.068-1.163-2.113-2.358-3.104-3.574
			c-11.497-14.112-17.829-31.917-17.829-50.135c0-11.962,2.779-23.959,8.031-34.764c0.335,0.059,0.678,0.096,1.029,0.096
			c3.268,0,5.927-2.659,5.927-5.927c0-3.268-2.659-5.927-5.927-5.927c-3.268,0-5.927,2.659-5.927,5.927
			c0,1.254,0.394,2.416,1.061,3.375c-5.701,11.542-8.718,24.4-8.718,37.221c0,19.256,6.693,38.075,18.846,52.992
			c1.059,1.3,2.18,2.581,3.34,3.842c-0.325,0.733-0.509,1.541-0.509,2.393c0,3.268,2.659,5.927,5.927,5.927
			c3.268,0,5.927-2.659,5.927-5.927C131.431,236.167,128.772,233.508,125.504,233.508z"/>
		<path fill="#64BE47" d="M92.468,186.192c0-2.467-1.516-4.585-3.665-5.476v-0.508c0-21.346,7.418-42.207,20.888-58.739
			c10.421-12.792,24.071-22.606,39.477-28.381c1.023-0.384,2.052-0.745,3.067-1.086c1.088,1.276,2.704,2.089,4.509,2.089
			c3.268,0,5.927-2.658,5.927-5.926c0-3.268-2.659-5.927-5.927-5.927c-3.111,0-5.664,2.41-5.903,5.461
			c-1.084,0.364-2.177,0.747-3.261,1.154c-16.154,6.055-30.468,16.346-41.395,29.759c-14.125,17.337-21.905,39.213-21.905,61.596
			v0.508c-2.149,0.891-3.665,3.009-3.665,5.476c0,3.268,2.659,5.927,5.927,5.927C89.809,192.119,92.468,189.46,92.468,186.192z"/>
		<path fill="#64BE47" d="M100.137,224.73l-0.235-0.434c-0.593-1.1-1.965-1.511-3.064-0.918c-1.1,0.593-1.51,1.965-0.918,3.064
			l0.245,0.452c0.411,0.753,1.187,1.18,1.988,1.18c0.366,0,0.737-0.089,1.08-0.276C100.33,227.2,100.735,225.827,100.137,224.73z"/>
		<path fill="#64BE47" d="M173.888,272.904l-0.491-0.043c-1.246-0.109-2.343,0.806-2.455,2.051
			c-0.112,1.244,0.806,2.343,2.051,2.455l0.511,0.045c0.065,0.005,0.13,0.008,0.195,0.008c1.162,0,2.151-0.891,2.251-2.07
			C176.056,274.105,175.133,273.01,173.888,272.904z"/>
		<path fill="#64BE47" d="M165.619,271.827l-0.485-0.087c-1.23-0.223-2.407,0.592-2.63,1.821c-0.223,1.229,0.592,2.406,1.821,2.63
			l0.505,0.09c0.133,0.024,0.266,0.035,0.397,0.035c1.076,0,2.031-0.771,2.225-1.868C167.67,273.219,166.85,272.045,165.619,271.827
			z"/>
		<path fill="#64BE47" d="M229.836,259.905l-0.421,0.252c-1.074,0.638-1.427,2.027-0.788,3.1c0.423,0.711,1.175,1.106,1.946,1.106
			c0.393,0,0.791-0.102,1.154-0.318l0.441-0.264c1.071-0.644,1.416-2.034,0.772-3.104
			C232.296,259.607,230.906,259.262,229.836,259.905z"/>
		<path fill="#64BE47" d="M182.231,273.238c-0.003,0-0.006,0-0.008,0l-0.494,0.001c-1.249,0-2.262,1.013-2.262,2.262
			c0,1.249,1.013,2.262,2.262,2.262l0.511-0.001c1.249-0.005,2.258-1.021,2.254-2.27
			C184.488,274.245,183.477,273.238,182.231,273.238z"/>
		<path fill="#64BE47" d="M157.482,270.01l-0.475-0.13c-1.205-0.335-2.45,0.373-2.783,1.577c-0.333,1.204,0.373,2.45,1.577,2.783
			l0.494,0.135c0.199,0.054,0.398,0.08,0.595,0.08c0.995,0,1.908-0.662,2.181-1.669C159.399,271.581,158.688,270.338,157.482,270.01
			z"/>
		<path fill="#64BE47" d="M198.812,271.69l-0.484,0.088c-1.229,0.221-2.047,1.397-1.825,2.627c0.197,1.094,1.15,1.862,2.223,1.862
			c0.133,0,0.268-0.012,0.403-0.036l0.505-0.092c1.228-0.227,2.04-1.407,1.813-2.635C201.22,272.275,200.04,271.465,198.812,271.69z
			"/>
		<path fill="#64BE47" d="M214.852,267.195l-0.464,0.175c-1.169,0.44-1.76,1.745-1.319,2.914c0.341,0.906,1.202,1.465,2.117,1.465
			c0.265,0,0.535-0.047,0.797-0.146l0.477-0.179c1.168-0.444,1.755-1.75,1.311-2.918
			C217.327,267.338,216.02,266.752,214.852,267.195z"/>
		<path fill="#64BE47" d="M243.277,250.06l-0.371,0.325c-0.942,0.821-1.04,2.249-0.219,3.191c0.447,0.513,1.075,0.776,1.706,0.776
			c0.527,0,1.057-0.183,1.485-0.557l0.386-0.337c0.938-0.825,1.03-2.254,0.205-3.192
			C245.645,249.328,244.216,249.236,243.277,250.06z"/>
		<path fill="#64BE47" d="M149.54,267.467l-0.397-0.148c-0.004-0.001-0.045-0.017-0.049-0.018c-1.166-0.448-2.474,0.135-2.922,1.301
			c-0.447,1.166,0.135,2.475,1.302,2.922l0.496,0.185c0.259,0.096,0.524,0.141,0.785,0.141c0.919,0,1.783-0.565,2.121-1.477
			C151.31,269.202,150.712,267.901,149.54,267.467z"/>
		<path fill="#64BE47" d="M206.934,269.805l-0.475,0.132c-1.205,0.331-1.912,1.576-1.581,2.781c0.276,1.004,1.187,1.663,2.18,1.663
			c0.199,0,0.4-0.026,0.601-0.081l0.494-0.137c1.203-0.336,1.905-1.584,1.569-2.788
			C209.385,270.171,208.138,269.468,206.934,269.805z"/>
		<path fill="#64BE47" d="M222.507,263.888l-0.439,0.212c-1.127,0.539-1.602,1.89-1.063,3.017c0.389,0.811,1.198,1.285,2.041,1.285
			c0.328,0,0.66-0.071,0.976-0.222l0.466-0.225c1.123-0.547,1.59-1.901,1.043-3.024C224.984,263.809,223.63,263.342,222.507,263.888
			z"/>
		<path fill="#64BE47" d="M190.553,272.835l-0.493,0.045c-1.244,0.112-2.162,1.211-2.051,2.455c0.105,1.176,1.092,2.06,2.25,2.06
			c0.068,0,0.136-0.003,0.205-0.009l0.507-0.046c1.244-0.116,2.159-1.217,2.043-2.461
			C192.899,273.635,191.798,272.724,190.553,272.835z"/>
		<path fill="#64BE47" d="M96.476,217.235l-0.194-0.45c-0.49-1.149-1.819-1.683-2.968-1.192c-1.149,0.49-1.683,1.819-1.192,2.968
			l0.204,0.475c0.37,0.853,1.202,1.362,2.076,1.362c0.3,0,0.606-0.06,0.899-0.187C96.447,219.713,96.974,218.381,96.476,217.235z"/>
		<path fill="#64BE47" d="M93.506,209.443l-0.152-0.465c-0.385-1.188-1.66-1.839-2.849-1.455c-1.188,0.385-1.84,1.66-1.455,2.849
			l0.161,0.491c0.314,0.951,1.198,1.553,2.147,1.553c0.235,0,0.475-0.037,0.71-0.115C93.254,211.908,93.898,210.629,93.506,209.443z
			"/>
		<path fill="#64BE47" d="M141.858,264.225l-0.443-0.213c-1.124-0.543-2.477-0.072-3.02,1.053c-0.543,1.125-0.072,2.477,1.053,3.02
			l0.463,0.222c0.314,0.15,0.646,0.221,0.972,0.221c0.845,0,1.655-0.475,2.043-1.289
			C143.464,266.113,142.986,264.763,141.858,264.225z"/>
		<path fill="#64BE47" d="M109.092,238.201c-0.778-0.977-2.201-1.137-3.179-0.359c-0.977,0.779-1.137,2.202-0.359,3.179l0.324,0.403
			c0.447,0.554,1.101,0.842,1.762,0.842c0.499,0,1.001-0.164,1.419-0.501c0.972-0.784,1.125-2.208,0.34-3.181L109.092,238.201z"/>
		<path fill="#64BE47" d="M89.558,204.132c1.216-0.284,1.972-1.501,1.688-2.717l-0.111-0.48c-0.278-1.218-1.491-1.979-2.708-1.702
			c-1.218,0.278-1.98,1.49-1.702,2.708l0.116,0.501c0.244,1.044,1.173,1.748,2.201,1.748
			C89.212,204.191,89.386,204.172,89.558,204.132z"/>
		<path fill="#64BE47" d="M236.777,255.284l-0.4,0.292c-1.011,0.734-1.235,2.149-0.5,3.159c0.443,0.609,1.132,0.933,1.832,0.933
			c0.461,0,0.926-0.141,1.327-0.432l0.412-0.3c1.008-0.738,1.228-2.153,0.49-3.161C239.2,254.766,237.785,254.547,236.777,255.284z"
			/>
		<path fill="#64BE47" d="M104.184,231.453c-0.689-1.042-2.093-1.328-3.134-0.639c-1.042,0.689-1.328,2.093-0.639,3.134l0.285,0.429
			c0.436,0.652,1.152,1.005,1.882,1.005c0.432,0,0.869-0.124,1.255-0.382c1.038-0.694,1.317-2.099,0.623-3.138L104.184,231.453z"/>
		<path fill="#64BE47" d="M134.498,260.305l-0.422-0.251c-1.071-0.642-2.461-0.295-3.103,0.777
			c-0.642,1.072-0.294,2.461,0.777,3.103l0.442,0.263c0.362,0.214,0.759,0.316,1.151,0.316c0.773,0,1.526-0.396,1.948-1.109
			C135.928,262.329,135.573,260.942,134.498,260.305z"/>
		<path fill="#64BE47" d="M127.519,255.74l-0.399-0.289c-1.01-0.735-2.425-0.511-3.16,0.499c-0.735,1.01-0.511,2.425,0.499,3.16
			l0.415,0.3c0.4,0.288,0.862,0.427,1.32,0.427c0.703,0,1.395-0.327,1.837-0.94C128.763,257.884,128.533,256.47,127.519,255.74z"/>
		<path fill="#64BE47" d="M120.605,250.247c-0.94-0.822-2.369-0.726-3.192,0.214c-0.822,0.94-0.727,2.369,0.214,3.192l0.387,0.337
			c0.428,0.371,0.955,0.552,1.48,0.552c0.633,0,1.263-0.265,1.711-0.781c0.818-0.944,0.716-2.373-0.229-3.191L120.605,250.247z"/>
		<path fill="#64BE47" d="M114.58,244.482c-0.863-0.902-2.295-0.935-3.198-0.071c-0.903,0.863-0.935,2.295-0.071,3.198l0.355,0.37
			c0.444,0.46,1.035,0.691,1.628,0.691c0.565,0,1.132-0.211,1.571-0.635c0.899-0.868,0.924-2.299,0.056-3.198L114.58,244.482z"/>
		<path fill="#64BE47" d="M279.386,180.208c0-13.814-3.039-27.768-8.784-40.414c0.972-1.056,1.572-2.461,1.572-4.006
			c0-3.268-2.659-5.927-5.927-5.927c-3.268,0-5.927,2.659-5.927,5.927c0,3.268,2.659,5.927,5.927,5.927
			c0.086,0,0.169-0.009,0.254-0.013c5.468,12.047,8.362,25.343,8.362,38.505c0,19.862-6.513,39.522-18.349,55.461
			c-0.578-0.188-1.193-0.293-1.832-0.293c-3.268,0-5.927,2.659-5.927,5.927c0,3.269,2.659,5.928,5.927,5.928
			c3.268,0,5.927-2.659,5.927-5.928c0-0.967-0.238-1.877-0.65-2.684C272.488,221.859,279.386,201.14,279.386,180.208z"/>
		<path fill="#64BE47" d="M239.997,107.601l0.384,0.309c0.419,0.339,0.922,0.504,1.422,0.504c0.659,0,1.312-0.286,1.759-0.838
			c0.786-0.971,0.636-2.395-0.334-3.181l-0.399-0.322c-0.974-0.782-2.398-0.626-3.18,0.348
			C238.867,105.395,239.023,106.819,239.997,107.601z"/>
		<path fill="#64BE47" d="M246.617,113.443c0.44,0.427,1.008,0.639,1.576,0.639c0.59,0,1.179-0.23,1.623-0.686
			c0.87-0.896,0.849-2.328-0.047-3.198l-0.37-0.357c-0.9-0.866-2.333-0.838-3.198,0.063c-0.866,0.9-0.837,2.332,0.063,3.198
			L246.617,113.443z"/>
		<path fill="#64BE47" d="M202.784,89.552l0.48,0.112c0.175,0.041,0.35,0.061,0.522,0.061c1.025,0,1.953-0.701,2.199-1.742
			c0.287-1.216-0.465-2.434-1.681-2.721l-0.499-0.117c-1.217-0.282-2.432,0.476-2.714,1.693
			C200.809,88.055,201.567,89.27,202.784,89.552z"/>
		<path fill="#64BE47" d="M194.585,88.046l0.488,0.068c0.108,0.015,0.215,0.023,0.321,0.023c1.108,0,2.076-0.815,2.237-1.944
			c0.176-1.237-0.685-2.382-1.921-2.557l-0.508-0.071c-1.239-0.172-2.379,0.695-2.549,1.933
			C192.482,86.735,193.347,87.876,194.585,88.046z"/>
		<path fill="#64BE47" d="M186.281,87.282l0.492,0.024c0.04,0.002,0.079,0.003,0.118,0.003c1.196,0,2.195-0.938,2.257-2.146
			c0.064-1.247-0.895-2.311-2.143-2.375l-0.512-0.025c-1.249-0.054-2.307,0.906-2.365,2.153
			C184.069,86.165,185.033,87.224,186.281,87.282z"/>
		<path fill="#64BE47" d="M252.334,119.51c0.447,0.521,1.08,0.788,1.717,0.788c0.522,0,1.046-0.179,1.473-0.546
			c0.948-0.814,1.056-2.242,0.242-3.19l-0.34-0.392c-0.82-0.941-2.249-1.04-3.191-0.219c-0.942,0.821-1.04,2.249-0.219,3.191
			L252.334,119.51z"/>
		<path fill="#64BE47" d="M177.843,87.26c0.031,0,0.063,0,0.094-0.002l0.492-0.019c1.248-0.046,2.223-1.095,2.178-2.343
			c-0.046-1.248-1.101-2.222-2.343-2.177l-0.512,0.02c-1.248,0.051-2.218,1.104-2.167,2.353
			C175.634,86.307,176.636,87.26,177.843,87.26z"/>
		<path fill="#64BE47" d="M210.815,91.793l0.467,0.155c0.238,0.079,0.479,0.117,0.716,0.117c0.947,0,1.829-0.599,2.145-1.546
			c0.396-1.185-0.244-2.466-1.429-2.862l-0.487-0.161c-1.187-0.39-2.465,0.255-2.855,1.442
			C208.982,90.125,209.628,91.403,210.815,91.793z"/>
		<path fill="#64BE47" d="M169.331,87.992c0.098,0,0.198-0.006,0.298-0.02l0.488-0.063c1.239-0.157,2.116-1.289,1.959-2.529
			c-0.157-1.239-1.289-2.118-2.529-1.959l-0.509,0.066c-1.239,0.163-2.11,1.299-1.948,2.537
			C167.241,87.163,168.213,87.992,169.331,87.992z"/>
		<path fill="#64BE47" d="M226.119,98.383l0.43,0.234c0.346,0.19,0.719,0.28,1.087,0.28c0.799,0,1.573-0.424,1.985-1.173
			c0.601-1.095,0.201-2.47-0.894-3.072l-0.453-0.247c-1.098-0.594-2.471-0.187-3.066,0.912
			C224.613,96.416,225.021,97.788,226.119,98.383z"/>
		<path fill="#64BE47" d="M218.616,94.744l0.452,0.196c0.294,0.128,0.601,0.189,0.903,0.189c0.872,0,1.703-0.508,2.075-1.358
			c0.499-1.145-0.024-2.478-1.169-2.978l-0.471-0.204c-1.147-0.493-2.478,0.035-2.972,1.183
			C216.939,92.919,217.469,94.25,218.616,94.744z"/>
		<path fill="#64BE47" d="M233.265,102.681l0.409,0.273c0.387,0.26,0.825,0.384,1.259,0.384c0.728,0,1.443-0.351,1.88-1.001
			c0.696-1.037,0.42-2.442-0.617-3.138l-0.427-0.285c-1.042-0.693-2.445-0.408-3.136,0.632
			C231.941,100.586,232.224,101.99,233.265,102.681z"/>
		<path fill="#64BE47" d="M264.438,195.03l0.09-0.508c0.214-1.231-0.61-2.402-1.841-2.616c-1.23-0.213-2.402,0.611-2.616,1.841
			l-0.085,0.483c-0.221,1.23,0.597,2.405,1.826,2.627c0.135,0.024,0.27,0.036,0.403,0.036
			C263.288,196.892,264.241,196.124,264.438,195.03z"/>
		<path fill="#64BE47" d="M262.434,203.577l0.143-0.499c0.34-1.202-0.358-2.452-1.56-2.792c-1.2-0.339-2.452,0.358-2.792,1.56
			l-0.134,0.467c-0.349,1.199,0.34,2.455,1.54,2.804c0.211,0.061,0.424,0.091,0.633,0.091
			C261.243,205.207,262.146,204.565,262.434,203.577z"/>
		<path fill="#64BE47" d="M257.458,213.274c0.892,0,1.737-0.531,2.095-1.408l0.195-0.482c0.463-1.16-0.102-2.476-1.262-2.939
			c-1.161-0.463-2.476,0.102-2.939,1.262l-0.181,0.45c-0.472,1.156,0.082,2.477,1.239,2.949
			C256.884,213.22,257.173,213.274,257.458,213.274z"/>
		<path fill="#64BE47" d="M252.763,220.738c0.34,0.182,0.706,0.268,1.066,0.268c0.807,0,1.588-0.433,1.996-1.194l0.243-0.458
			c0.582-1.105,0.158-2.473-0.948-3.055c-1.105-0.582-2.473-0.158-3.055,0.948l-0.228,0.429
			C251.248,218.777,251.662,220.148,252.763,220.738z"/>
		<path fill="#64BE47" d="M168.402,258.484l-0.482-0.084c-1.229-0.216-2.404,0.603-2.621,1.833c-0.218,1.23,0.603,2.404,1.833,2.621
			l0.508,0.088c0.129,0.022,0.257,0.033,0.384,0.033c1.082,0,2.039-0.779,2.227-1.881
			C170.461,259.863,169.634,258.694,168.402,258.484z"/>
		<path fill="#64BE47" d="M224.176,247.392l-0.414,0.26c-1.061,0.66-1.385,2.055-0.725,3.115c0.428,0.689,1.167,1.067,1.922,1.067
			c0.408,0,0.821-0.11,1.193-0.342l0.437-0.274c1.057-0.667,1.373-2.063,0.706-3.12
			C226.629,247.042,225.232,246.725,224.176,247.392z"/>
		<path fill="#64BE47" d="M216.93,251.451l-0.435,0.213c-1.125,0.544-1.595,1.896-1.051,3.021c0.39,0.807,1.197,1.277,2.038,1.277
			c0.33,0,0.666-0.073,0.983-0.226l0.467-0.228c1.12-0.553,1.58-1.909,1.027-3.029C219.407,251.358,218.051,250.898,216.93,251.451z
			"/>
		<path fill="#64BE47" d="M230.956,242.6l-0.383,0.3c-0.986,0.767-1.164,2.188-0.398,3.174c0.446,0.574,1.113,0.874,1.787,0.874
			c0.485,0,0.974-0.155,1.387-0.476l0.409-0.32c0.981-0.774,1.148-2.196,0.374-3.177C233.359,241.994,231.936,241.827,230.956,242.6
			z"/>
		<path fill="#64BE47" d="M237.203,237.126l-0.351,0.34c-0.9,0.866-0.929,2.298-0.063,3.198c0.444,0.462,1.037,0.694,1.631,0.694
			c0.564,0,1.129-0.21,1.567-0.631l0.371-0.359c0.895-0.871,0.914-2.303,0.043-3.198
			C239.53,236.274,238.098,236.254,237.203,237.126z"/>
		<path fill="#64BE47" d="M209.3,254.728l-0.456,0.167c-1.175,0.424-1.784,1.72-1.36,2.895c0.333,0.922,1.201,1.495,2.128,1.495
			c0.255,0,0.514-0.043,0.767-0.135l0.489-0.179c1.172-0.433,1.77-1.734,1.337-2.906C211.773,254.894,210.472,254.295,209.3,254.728
			z"/>
		<path fill="#64BE47" d="M251.289,227.324l0.289-0.429c0.694-1.038,0.415-2.443-0.624-3.137c-1.038-0.694-2.443-0.415-3.137,0.624
			l-0.272,0.404c-0.701,1.034-0.431,2.44,0.603,3.141c0.389,0.263,0.83,0.39,1.267,0.39
			C250.139,228.317,250.851,227.969,251.289,227.324z"/>
		<path fill="#64BE47" d="M244.257,235.125c0.644,0,1.283-0.273,1.731-0.804l0.332-0.396c0.799-0.96,0.669-2.386-0.291-3.185
			c-0.96-0.799-2.387-0.669-3.185,0.291l-0.314,0.375c-0.805,0.955-0.683,2.382,0.272,3.187
			C243.225,234.95,243.742,235.125,244.257,235.125z"/>
		<path fill="#64BE47" d="M160.303,256.657l-0.47-0.134c-1.2-0.346-2.454,0.346-2.8,1.547c-0.346,1.2,0.346,2.454,1.547,2.8
			l0.497,0.142c0.205,0.058,0.411,0.085,0.614,0.085c0.988,0,1.895-0.652,2.176-1.649
			C162.206,258.245,161.506,256.996,160.303,256.657z"/>
		<path fill="#64BE47" d="M152.44,253.99l-0.456-0.183c-1.157-0.468-2.476,0.09-2.945,1.248c-0.469,1.158,0.09,2.477,1.248,2.945
			l0.477,0.192c0.275,0.109,0.558,0.161,0.837,0.161c0.899,0,1.749-0.539,2.102-1.425C154.166,255.769,153.6,254.453,152.44,253.99z
			"/>
		<path fill="#64BE47" d="M201.371,257.191l-0.475,0.119c-1.213,0.3-1.952,1.527-1.652,2.739c0.255,1.03,1.178,1.719,2.194,1.719
			c0.18,0,0.363-0.022,0.545-0.067l0.501-0.125c1.211-0.307,1.943-1.538,1.636-2.749
			C203.813,257.616,202.583,256.883,201.371,257.191z"/>
		<path fill="#64BE47" d="M144.899,250.516l-0.432-0.229c-1.102-0.588-2.472-0.173-3.061,0.929
			c-0.589,1.102-0.173,2.472,0.929,3.061l0.456,0.242c0.336,0.177,0.697,0.261,1.052,0.261c0.813,0,1.598-0.44,2.003-1.209
			C146.428,252.466,146.004,251.098,144.899,250.516z"/>
		<path fill="#64BE47" d="M137.761,246.269l-0.405-0.272c-1.034-0.7-2.441-0.43-3.141,0.604c-0.701,1.034-0.43,2.441,0.604,3.141
			l0.429,0.289c0.386,0.258,0.822,0.381,1.254,0.381c0.73,0,1.447-0.353,1.883-1.006C139.08,248.368,138.8,246.963,137.761,246.269z
			"/>
		<path fill="#64BE47" d="M193.228,258.804l-0.488,0.069c-1.237,0.172-2.101,1.315-1.929,2.552c0.157,1.132,1.126,1.951,2.237,1.951
			c0.104,0,0.209-0.007,0.314-0.022l0.507-0.072c1.236-0.177,2.095-1.324,1.917-2.56S194.465,258.627,193.228,258.804z"/>
		<path fill="#64BE47" d="M184.958,259.556l-0.492,0.017c-1.248,0.042-2.227,1.089-2.184,2.337c0.041,1.223,1.045,2.186,2.259,2.186
			c0.026,0,0.052-0.001,0.078-0.001l0.512-0.018c1.248-0.048,2.222-1.098,2.174-2.346
			C187.257,260.482,186.207,259.5,184.958,259.556z"/>
		<path fill="#64BE47" d="M176.65,259.449l-0.488-0.033c-1.244-0.094-2.327,0.851-2.415,2.097c-0.088,1.246,0.851,2.327,2.097,2.415
			l0.515,0.035c0.05,0.003,0.099,0.005,0.148,0.005c1.183,0,2.178-0.919,2.255-2.116C178.842,260.606,177.897,259.53,176.65,259.449
			z"/>
	</g>
</g>
</svg>
